<?xml version="1.0" encoding="utf-8"?>
<!-- Generator: Adobe Illustrator 25.2.1, SVG Export Plug-In . SVG Version: 6.00 Build 0)  -->
<svg version="1.1" xmlns="http://www.w3.org/2000/svg" xmlns:xlink="http://www.w3.org/1999/xlink" x="0px" y="0px"
	 viewBox="0 0 1366 768" style="enable-background:new 0 0 1366 768;" xml:space="preserve">
<style type="text/css">
	.st0{fill:#0080AF;}
	.st1{fill:#FF7F50;}
</style>
<g id="Layer_1">
</g>
<g id="Layer_2">
</g>
<g id="Layer_3">
	<path class="st0" d="M885.94,426.68"/>
	<rect x="519.39" y="225.32" class="st1" width="199.49" height="27.2"/>
</g>
<g id="Layer_4">
	<g>
		<path class="st0" d="M43.22,585.83c37.69,12.4,70.36,18.6,98,18.6c10.55,0,20.52-1.3,29.9-3.89c9.38-2.59,17.25-6.35,23.62-11.28
			c6.36-4.94,11.31-11.62,14.83-20.06s5.86-18.22,7.04-29.34c1.17-11.12,2.09-27.96,2.76-50.52c-6.53,8.88-12.4,15.79-17.59,20.73
			c-5.19,4.94-11.43,9.38-18.72,13.32c-7.29,3.94-15.79,7.12-25.51,9.55c-9.72,2.43-19.94,3.64-30.66,3.64
			c-14.74,0-28.73-2.3-41.97-6.91c-13.24-4.61-25-11.85-35.31-21.74c-10.3-9.88-18.14-22.32-23.5-37.32
			c-5.36-14.99-8.04-30.61-8.04-46.87c0-23.28,4.4-45.31,13.19-66.09c8.8-20.77,21.69-37.86,38.7-51.26
			c17-13.4,35.18-22.62,54.53-27.64s40.83-7.54,64.46-7.54c13.07,0,27.89,0.8,44.48,2.39c16.58,1.59,38.53,4.82,65.84,9.67
			l-5.79,79.6l-5.28,99.69l-2.01,90.15c-0.5,10.21-1.76,20.04-3.77,29.51c-2.01,9.46-5.19,18-9.55,25.62
			c-4.36,7.62-9.89,14.35-16.58,20.22c-6.7,5.85-14.28,10.58-22.74,14.19c-8.46,3.6-18.93,6.57-31.41,8.92
			c-12.48,2.34-25.84,3.51-40.08,3.51c-15.25,0-32.58-1-52.02-3.01c-19.43-2.01-40.62-5.78-63.57-11.31L43.22,585.83z
			 M226.69,327.51c-14.58-3.02-28.07-4.52-40.47-4.52c-21.78,0-39.8,3.99-54.04,11.96c-14.24,7.97-25.22,19.59-32.93,34.85
			c-7.71,15.27-11.56,31.46-11.56,48.57c0,12.59,2.34,24.29,7.04,35.11s12.02,19,22,24.54c9.97,5.54,20.99,8.3,33.05,8.3
			c8.54,0,16.54-1.34,24-4.02c7.46-2.69,14.2-6.8,20.23-12.33s11.35-12.42,15.96-20.64c4.61-8.22,7.87-17.49,9.8-27.81
			c1.93-10.32,3.4-23.24,4.4-38.76C225.19,367.24,226.02,348.82,226.69,327.51z"/>
		<path class="st0" d="M349.79,532.81c2.5-28.31,5.54-79.2,9.13-152.66c3.58-73.46,5.8-136.91,6.63-190.35
			c17.44,0.34,29.85,0.5,37.23,0.5c9.89,0,21.96-0.17,36.22-0.5l-6,91.72l-8.75,204.55l-1,46.74c-13.75-0.33-25.41-0.5-34.96-0.5
			C385.09,532.31,372.26,532.48,349.79,532.81z"/>
		<path class="st0" d="M505.34,333.29c2.34-12.06,3.81-20.52,4.4-25.38c0.58-4.86,1.63-12.23,3.14-22.11
			c22.78-5.36,42.88-9.13,60.31-11.31c17.42-2.18,34.26-3.27,50.51-3.27c18.43,0,35.35,2.14,50.76,6.41
			c15.41,4.27,27.47,11.1,36.19,20.48c8.71,9.38,13.07,22.87,13.07,40.46c0,9.55-1.33,33.88-3.99,73
			c-2.66,39.12-4.24,79.53-4.74,121.25c-12.75-0.33-24.48-0.5-35.21-0.5c-10.23,0-22.22,0.17-35.97,0.5
			c2.2-20.27,3.98-43.72,5.34-70.36l3.31-62.57c-6.37,4.19-11.23,7.12-14.59,8.79c-3.35,1.68-7.13,3.23-11.32,4.65
			c-4.19,1.43-11.57,3.6-22.13,6.53c-10.56,2.93-19.03,5.49-25.4,7.67c-6.37,2.18-12.12,4.65-17.23,7.41
			c-5.12,2.76-9.44,5.87-12.95,9.3c-3.52,3.44-6.08,7.04-7.67,10.81c-1.59,3.77-2.39,7.83-2.39,12.19c0,7.04,2.05,13.11,6.16,18.22
			c4.1,5.11,9.25,8.67,15.45,10.68c6.2,2.01,13.48,3.01,21.86,3.01c5.36,0,11.01-0.42,16.96-1.26c5.94-0.84,13.95-2.93,24-6.28
			c-3.52,9.55-7.62,23.79-12.31,42.72c-11.9,2.01-21.36,3.27-28.4,3.77c-7.04,0.5-13.57,0.75-19.6,0.75
			c-21.11,0-38.45-2.85-52.02-8.54c-13.57-5.69-23.58-14.74-30.03-27.14c-6.45-12.4-9.67-24.88-9.67-37.44
			c0-7.2,1.26-14.32,3.77-21.36c2.51-7.04,6.2-13.48,11.06-19.35c4.86-5.86,11.15-11.52,18.86-16.96
			c7.71-5.44,18.86-10.72,33.44-15.83c14.58-5.11,33.86-10.26,57.83-15.45c6.37-1.34,12.99-2.97,19.86-4.9
			c6.87-1.92,12.36-3.81,16.47-5.65c4.11-1.84,7.67-4.23,10.68-7.16c3.02-2.93,5.24-5.99,6.66-9.17c1.43-3.18,2.14-6.45,2.14-9.8
			c0-6.53-2.14-12.06-6.41-16.58c-4.28-4.52-9.81-7.66-16.6-9.42c-6.79-1.76-14.3-2.64-22.51-2.64
			C575.92,311.43,542.22,318.71,505.34,333.29z"/>
		<path class="st0" d="M777.74,532.81l5-65.33l5.76-125.39l2.75-107.3c0.33-19.43,0.5-34.43,0.5-44.98
			c17.54,0.34,29.99,0.5,37.34,0.5c8.69,0,20.13-0.17,34.34-0.5l-5.25,81.67l-6,130.17l-2.5,97.25l-0.25,33.92
			c-14.87-0.33-26.57-0.5-35.09-0.5C804.63,532.31,792.44,532.48,777.74,532.81z M857.64,389.7l51.22-62.25
			c4.37-5.36,9.59-11.96,15.64-19.83c6.05-7.86,13.71-17.99,22.96-30.37c17.4,0.34,30.11,0.5,38.15,0.5
			c11.04,0,25.01-0.16,41.91-0.5l-82.81,94.88l-14.85,18.07c12.25,19.45,46.23,66.99,101.93,142.61c-15.1-0.33-28.01-0.5-38.75-0.5
			c-10.74,0-24.07,0.17-40.01,0.5c-9.73-15.93-17.66-28.71-23.79-38.35c-6.12-9.64-11.79-18.07-16.99-25.28l-42.79-61.12
			C868.3,406.39,864.35,400.27,857.64,389.7z"/>
		<path class="st0" d="M1060.18,532.81l6-81.67l6-116.85l3.5-144.49c14.76,0.34,27,0.5,36.73,0.5c12.75,0,24.91-0.17,36.48-0.5
			l-4.54,59.81c-1.01,14.74-2.35,38.45-4.03,71.11c5.36-8.04,9.84-14.07,13.44-18.09c3.6-4.02,7.62-7.75,12.07-11.18
			c4.44-3.43,9-6.32,13.7-8.67c4.69-2.34,10.18-4.44,16.46-6.28c6.28-1.84,13.28-3.27,20.98-4.27c7.71-1.01,15.58-1.51,23.63-1.51
			c13.9,0,27.27,1.59,40.08,4.77c12.82,3.18,23.88,8.54,33.17,16.08c9.3,7.54,15.67,16.38,19.1,26.51
			c3.43,10.14,5.15,20.73,5.15,31.79c0,7.21-0.42,18.43-1.27,33.67l-6.09,109.81c-0.51,11.39-0.76,24.54-0.76,39.45
			c-13.55-0.33-25.52-0.5-35.89-0.5c-11.21,0-24.01,0.17-38.4,0.5c2.32-19.77,4.6-46.74,6.84-80.92
			c2.24-34.17,3.36-58.46,3.36-72.87c0-13.23-2.13-23.58-6.4-31.03c-4.26-7.45-10.54-12.98-18.82-16.58
			c-8.28-3.6-17.35-5.4-27.21-5.4c-12.71,0-23.92,2.26-33.61,6.78c-9.37,4.36-17.23,10.89-23.58,19.6
			c-5.18,7.2-9.53,17.51-13.04,30.91c-3.68,14.07-6.35,35.85-8.03,65.33c-0.86,14.24-1.79,42.3-2.81,84.18
			c-13.25-0.33-24.65-0.5-34.21-0.5C1089.11,532.31,1076.45,532.48,1060.18,532.81z"/>
	</g>
</g>
</svg>
