<?xml version="1.0" encoding="utf-8"?>
<!-- Generator: Adobe Illustrator 26.0.3, SVG Export Plug-In . SVG Version: 6.00 Build 0)  -->
<svg version="1.1" id="Layer_1" xmlns="http://www.w3.org/2000/svg" xmlns:xlink="http://www.w3.org/1999/xlink" x="0px" y="0px"
	 viewBox="0 0 1366 768" style="enable-background:new 0 0 1366 768;" xml:space="preserve">
<style type="text/css">
	.st0{fill:#0080AF;}
	.st1{fill:#FF7F50;}
</style>
<g id="Layer_1_00000032646202008731363610000001160492070575863454_">
</g>
<g id="Layer_2_00000155126587688216308500000006208672642868014736_">
</g>
<g id="Layer_3">
	<g>
		<path class="st0" d="M256.9,278.3h62.6L290.1,518c-4.5,36.6-19.4,65.9-44.8,88.1c-25.4,22.1-56.6,33.2-93.8,33.2
			c-25,0-47.6-4.8-67.8-14.4l8.2-66.9c18.9,15.7,41.4,23.6,67.4,23.6c15.4,0,28.8-5.5,40.2-16.4c11.4-10.9,18.4-26.6,20.9-47.2
			l2.4-20.2c-19.9,17.3-42.7,26-68.3,26c-32.7,0-58.1-12-76-35.9c-18-23.9-24.8-53.6-20.5-89.2s18.4-65.4,42.3-89.3
			c23.9-23.9,52.2-35.9,84.9-35.9c27.6,0,49.4,10,65.4,29.8L256.9,278.3z M175.6,462.1c11.6,0,22.4-3.4,32.5-10.4
			c10.1-6.9,18-16.1,23.8-27.7l6.3-51c-2.9-11.5-8.6-20.9-17.1-27.9c-8.5-7-18.4-10.6-29.6-10.6c-16.7,0-31,6.1-42.8,18.3
			c-11.9,12.2-18.9,27.4-21.2,45.7c-1.6,11.9-0.7,22.6,2.6,32.2s9.1,17.2,17.1,22.9C155.2,459.3,164.7,462.1,175.6,462.1z"/>
		<path class="st0" d="M445.5,523.7c-31.8,0-54.7-7.9-68.8-23.8c-14.1-15.9-19.6-37.6-16.4-65.2L394.5,158h70.2l-34.2,277.2
			c-1,9.6,0.5,16.9,4.3,21.9c3.9,5,9.6,7.5,17.3,7.5c9,0,16.5-2.9,22.6-8.7l27.4,50C487.2,517.8,468.3,523.7,445.5,523.7z"/>
		<path class="st0" d="M654.8,273.5c33,0,58.5,7.7,76.5,23.1c18,15.4,25,38.5,21.2,69.3l-18.8,153h-59.2l-0.5-23.6
			c-26.6,18.9-54.2,28.4-82.8,28.4c-23.1,0-41.1-6.7-53.9-20c-12.8-13.3-17.8-31.2-14.9-53.6c2.9-24.1,15.6-43.1,38-57
			c22.5-14,51.7-18,87.6-12.3l33.7,5.3l2.4-20.7c1.6-13.1-1.8-22.9-10.1-29.4c-8.3-6.4-19.2-9.6-32.7-9.6
			c-23.4,0-44.3,9.6-62.6,28.9l-37-39.9c15.1-14.8,31.4-25.4,49.1-32C608.5,276.8,629.8,273.5,654.8,273.5z M596.1,446.3
			c-1,8,1,14.4,5.8,19c4.8,4.6,11.5,7,20.2,7c16.4,0,33.5-7.2,51.5-21.6l3.4-24.5l-18.8-3.9c-20.9-4.2-36.2-3.7-46,1.4
			C602.5,428.8,597.1,436.3,596.1,446.3z"/>
		<path class="st0" d="M1056.2,278.3L936.3,381.8l92.4,91.9l-11.1,87.1L873.3,411.6l-13,107.3h-70.2L834.3,158h70.2L880,357.3
			l91-78.9L1056.2,278.3L1056.2,278.3z"/>
		<path class="st0" d="M1232.8,273.5c28.2,0,50,8.5,65.2,25.5c15.2,17,21.1,39.6,17.6,67.9l-18.8,152.1h-70.2l17.8-143.4
			c1.3-12.2-1.8-22-9.1-29.6c-7.4-7.5-17.7-11.3-30.8-11.3c-13.8,0-26,4.3-36.6,13s-16.5,19.2-17.8,31.8l-17.3,139.5h-70.2
			l44.3-360.9h70.2l-17.8,144.8C1180.6,283.3,1205.2,273.5,1232.8,273.5z"/>
	</g>
	<path class="st0" d="M914.3,426.7"/>
	<rect x="542.2" y="225.3" class="st1" width="199.5" height="27.2"/>
	<rect x="542.2" y="540.2" class="st1" width="199.5" height="27.2"/>
</g>
</svg>
