<?xml version="1.0" encoding="utf-8"?>
<!-- Generator: Adobe Illustrator 25.2.1, SVG Export Plug-In . SVG Version: 6.00 Build 0)  -->
<svg version="1.1" xmlns="http://www.w3.org/2000/svg" xmlns:xlink="http://www.w3.org/1999/xlink" x="0px" y="0px"
	 viewBox="0 0 1366 768" style="enable-background:new 0 0 1366 768;" xml:space="preserve">
<style type="text/css">
	.st0{fill:#0080AF;}
	.st1{fill:#FF7F50;}
</style>
<g id="Layer_1">
</g>
<g id="Layer_2">
</g>
<g id="Layer_3">
	<g>
		<path class="st0" d="M256.9,278.34h62.56L290.1,517.97c-4.5,36.57-19.41,65.92-44.75,88.06c-25.35,22.14-56.62,33.2-93.83,33.2
			c-25.02,0-47.64-4.81-67.85-14.44l8.18-66.89c18.92,15.71,41.38,23.58,67.37,23.58c15.4,0,28.79-5.46,40.18-16.36
			c11.38-10.91,18.36-26.63,20.93-47.16l2.41-20.21c-19.89,17.32-42.67,25.98-68.33,25.98c-32.72,0-58.07-11.95-76.03-35.85
			C60.4,464,53.59,434.25,57.92,398.64c4.33-35.61,18.44-65.36,42.35-89.26c23.89-23.89,52.21-35.85,84.93-35.85
			c27.59,0,49.4,9.95,65.44,29.83L256.9,278.34z M175.57,462.15c11.55,0,22.38-3.44,32.48-10.35c10.1-6.89,18.04-16.12,23.82-27.67
			l6.26-51.01c-2.89-11.55-8.59-20.85-17.08-27.91c-8.5-7.05-18.37-10.59-29.59-10.59c-16.68,0-30.96,6.1-42.83,18.29
			c-11.87,12.2-18.93,27.43-21.17,45.71c-1.61,11.87-0.72,22.62,2.65,32.24s9.06,17.25,17.08,22.86
			C155.2,459.35,164.66,462.15,175.57,462.15z"/>
		<path class="st0" d="M445.52,523.75c-31.76,0-54.7-7.94-68.81-23.82c-14.12-15.88-19.57-37.61-16.36-65.2l34.17-276.69h70.25
			L430.6,435.21c-0.96,9.62,0.48,16.92,4.33,21.89c3.85,4.98,9.62,7.46,17.32,7.46c8.98,0,16.52-2.89,22.62-8.66l27.43,50.04
			C487.22,517.82,468.29,523.75,445.52,523.75z"/>
		<path class="st0" d="M654.84,273.52c33.04,0,58.54,7.7,76.51,23.1c17.96,15.4,25.02,38.5,21.17,69.29l-18.77,153.02h-59.19
			l-0.48-23.58c-26.63,18.93-54.22,28.39-82.77,28.39c-23.1,0-41.07-6.65-53.89-19.97c-12.83-13.31-17.8-31.19-14.92-53.65
			c2.89-24.06,15.56-43.07,38.01-57.02c22.45-13.95,51.65-18.04,87.58-12.27l33.68,5.29l2.41-20.69c1.6-13.15-1.77-22.93-10.1-29.35
			c-8.35-6.41-19.25-9.62-32.72-9.62c-23.42,0-44.27,9.62-62.56,28.87l-37.05-39.94c15.08-14.75,31.44-25.42,49.08-32
			C608.48,276.82,629.82,273.52,654.84,273.52z M596.14,446.27c-0.96,8.02,0.96,14.36,5.77,19.01c4.81,4.65,11.55,6.98,20.21,6.98
			c16.36,0,33.52-7.22,51.49-21.65l3.37-24.54l-18.77-3.85c-20.86-4.17-36.17-3.68-45.95,1.44
			C602.47,428.79,597.1,436.33,596.14,446.27z"/>
		<path class="st0" d="M1056.16,278.34L936.34,381.79l92.39,91.91l-11.07,87.1L873.3,411.63l-12.99,107.31h-70.25l44.27-360.9h70.25
			l-24.54,199.22l90.95-78.92H1056.16z"/>
		<path class="st0" d="M1232.75,273.52c28.23,0,49.96,8.5,65.2,25.5c15.23,17.01,21.09,39.62,17.56,67.85l-18.77,152.06h-70.25
			l17.8-143.4c1.28-12.19-1.77-22.05-9.14-29.59c-7.38-7.53-17.65-11.31-30.8-11.31c-13.8,0-25.98,4.33-36.57,12.99
			c-10.59,8.66-16.53,19.25-17.8,31.76l-17.32,139.55h-70.25l44.27-360.9h70.25l-17.8,144.84
			C1180.62,283.31,1205.16,273.52,1232.75,273.52z"/>
	</g>
	<path class="st0" d="M914.26,426.68"/>
	<rect x="547.72" y="225.32" class="st1" width="199.49" height="27.2"/>
</g>
</svg>
