<?xml version="1.0" encoding="utf-8"?>
<!-- Generator: Adobe Illustrator 23.0.1, SVG Export Plug-In . SVG Version: 6.00 Build 0)  -->
<svg version="1.1" id="Layer_1" xmlns="http://www.w3.org/2000/svg" xmlns:xlink="http://www.w3.org/1999/xlink" x="0px" y="0px"
	 viewBox="0 0 1000 1000" style="enable-background:new 0 0 1000 1000;" xml:space="preserve">
<style type="text/css">
	.st0{fill-rule:evenodd;clip-rule:evenodd;fill:#FFFFFF;}
	.st1{fill:#515151;}
	.st2{opacity:0.3;fill-rule:evenodd;clip-rule:evenodd;fill:url(#SVGID_1_);enable-background:new    ;}
	.st3{fill-rule:evenodd;clip-rule:evenodd;fill:url(#SVGID_2_);}
	.st4{fill:url(#SVGID_3_);}
	.st5{fill-rule:evenodd;clip-rule:evenodd;fill:url(#SVGID_4_);}
	.st6{fill:url(#SVGID_5_);}
	.st7{fill:url(#SVGID_6_);}
	.st8{fill-rule:evenodd;clip-rule:evenodd;fill:#A5ADBA;}
	.st9{fill:url(#SVGID_7_);}
	.st10{fill-rule:evenodd;clip-rule:evenodd;fill:#ECEEF1;}
	.st11{fill:#ECEEF1;}
	.st12{fill:#717D93;}
	.st13{fill:url(#SVGID_8_);}
	.st14{fill:url(#SVGID_9_);}
	.st15{fill:none;stroke:#FFFFFF;stroke-miterlimit:10;}
	.st16{fill:#FFFFFF;}
	.st17{fill:#0000FF;}
	.st18{fill:none;stroke:#FFD237;stroke-miterlimit:10;}
	.st19{fill:none;stroke:#FBB03B;stroke-miterlimit:10;}
</style>
<path class="st0" d="M535.82,798.58H305.7V697.39H535.8L535.82,798.58z"/>
<path class="st1" d="M535.82,806.13H305.7c-4.17,0-7.55-3.38-7.55-7.55V697.39c0-4.17,3.38-7.55,7.55-7.55H535.8
	c4.17,0,7.55,3.38,7.55,7.55v101.19C543.34,802.74,539.98,806.11,535.82,806.13z M313.27,791.04h215v-86.1H313.25L313.27,791.04z"/>
<path class="st0" d="M591.03,826.2H250.52v-27.62h340.51V826.2z"/>
<path class="st1" d="M591.03,833.75H250.52c-4.17,0-7.55-3.38-7.55-7.55v-27.62c0-4.17,3.38-7.55,7.55-7.55h340.51
	c4.17,0,7.55,3.38,7.55,7.55v27.62C598.58,830.37,595.2,833.75,591.03,833.75z M258.06,818.65h325.42v-12.53H258.06V818.65z"/>
<linearGradient id="SVGID_1_" gradientUnits="userSpaceOnUse" x1="-180.1605" y1="904.9268" x2="-180.1605" y2="897.3807" gradientTransform="matrix(103.6721 0 0 -70.23 19098.3848 63628.3594)">
	<stop  offset="0" style="stop-color:#0049B0"/>
	<stop  offset="0.14" style="stop-color:#004FC1"/>
	<stop  offset="0.45" style="stop-color:#005BE3"/>
	<stop  offset="0.72" style="stop-color:#0062F7"/>
	<stop  offset="0.89" style="stop-color:#0065FF"/>
</linearGradient>
<path class="st2" d="M29.62,605.33V102.99C29.59,87.77,41.91,75.4,57.13,75.37c0.03,0,0.05,0,0.08,0h727.1
	c15.25,0,27.62,12.36,27.62,27.62v502.34H29.62z"/>
<path class="st1" d="M811.93,612.87H29.62c-4.17,0-7.55-3.38-7.55-7.55V102.99c-0.02-19.4,15.68-35.14,35.07-35.16
	c0.02,0,0.04,0,0.06,0h727.1c19.4-0.02,35.14,15.68,35.16,35.07c0,0.03,0,0.06,0,0.09v502.34
	C819.47,609.5,816.1,612.87,811.93,612.87z M37.16,597.78h767.22V102.99c-0.03-11.07-9-20.04-20.07-20.07H57.2
	c-11.06-0.01-20.03,8.94-20.04,20c0,0.03,0,0.05,0,0.08L37.16,597.78z"/>
<linearGradient id="SVGID_2_" gradientUnits="userSpaceOnUse" x1="-179.9615" y1="908.8607" x2="-179.9615" y2="901.3147" gradientTransform="matrix(90.258 0 0 -56.812 16663.7324 51760.1602)">
	<stop  offset="0.09" style="stop-color:#FFAB00"/>
	<stop  offset="0.48" style="stop-color:#FFB800"/>
	<stop  offset="1" style="stop-color:#FFC400"/>
</linearGradient>
<path class="st3" d="M80.23,554.66v-428.7h681.09v428.7H80.23z"/>
<linearGradient id="SVGID_3_" gradientUnits="userSpaceOnUse" x1="-179.9948" y1="908.1606" x2="-179.9948" y2="900.6146" gradientTransform="matrix(92.258 0 0 -58.812 17026.7324 53529.1602)">
	<stop  offset="0.09" style="stop-color:#FFAB00"/>
	<stop  offset="0.48" style="stop-color:#FFB800"/>
	<stop  offset="1" style="stop-color:#FFC400"/>
</linearGradient>
<path class="st4" d="M761.32,562.2H80.23c-4.17,0-7.55-3.38-7.55-7.55v-428.7c0-4.17,3.38-7.55,7.55-7.55h681.09
	c4.17,0,7.55,3.38,7.55,7.55v428.7C768.86,558.82,765.48,562.2,761.32,562.2z M87.77,547.11h666V133.5h-666V547.11z"/>
<linearGradient id="SVGID_4_" gradientUnits="userSpaceOnUse" x1="-180.1605" y1="962.0587" x2="-180.1605" y2="954.5127" gradientTransform="matrix(103.6721 0 0 -12.1949 19098.3848 12337.582)">
	<stop  offset="0" style="stop-color:#C1C7D0"/>
	<stop  offset="1" style="stop-color:#DEE1E4"/>
</linearGradient>
<path class="st5" d="M811.93,669.73c-0.03,15.24-12.38,27.59-27.62,27.62H57.2c-15.24-0.02-27.59-12.38-27.59-27.62v-64.41h782.31
	V669.73z"/>
<path class="st1" d="M784.31,704.94H57.2c-19.41-0.02-35.13-15.76-35.13-35.16v-64.44c0-4.17,3.38-7.55,7.55-7.55h782.31
	c4.17,0,7.55,3.38,7.55,7.55v64.44C819.47,689.18,803.73,704.93,784.31,704.94L784.31,704.94z M37.16,612.87v56.89
	c0,11.07,8.97,20.06,20.04,20.07h727.1c11.06-0.06,20.01-9.01,20.07-20.07v-56.89H37.16z"/>
<path class="st0" d="M970.45,881.32c0.45,5.91-3.91,11.09-9.81,11.64h-569.2c-5.9-0.55-10.27-5.73-9.81-11.64V429.45
	c-0.45-5.9,3.92-11.07,9.81-11.61h569.2c5.89,0.55,10.25,5.72,9.81,11.61V881.32z"/>
<linearGradient id="SVGID_5_" gradientUnits="userSpaceOnUse" x1="-176.9985" y1="902.0698" x2="-176.9985" y2="894.5238" gradientTransform="matrix(80.0352 0 0 -64.964 14842.1221 59012.3398)">
	<stop  offset="0.09" style="stop-color:#0049B0"/>
	<stop  offset="0.53" style="stop-color:#0052CC"/>
	<stop  offset="1" style="stop-color:#0049B0"/>
</linearGradient>
<path class="st6" d="M960.61,900.51h-569.2c-10.08-0.54-17.83-9.11-17.36-19.19V429.45c-0.46-10.07,7.29-18.63,17.36-19.16h569.2
	c10.06,0.55,17.8,9.09,17.36,19.16v451.87C978.42,891.39,970.68,899.95,960.61,900.51z M391.41,425.38c-0.75,0-2.26,1.51-2.26,4.07
	v451.87c0,2.54,1.51,4.1,2.26,4.1h569.2c0.8,0,2.26-1.56,2.26-4.1V429.45c0-2.54-1.51-4.07-2.26-4.07H391.41z"/>
<path class="st0" d="M956.27,875.87H675.74v-27.8H395.39v27.8h280.35c6.21-14.2,20.08-23.52,35.58-23.91h244.95V875.87z"/>
<linearGradient id="SVGID_6_" gradientUnits="userSpaceOnUse" x1="-176.7818" y1="1014.4332" x2="-176.7818" y2="1006.8872" gradientTransform="matrix(76.328 0 0 -5.684 14169.2393 6606.5815)">
	<stop  offset="0" style="stop-color:#0052CC"/>
	<stop  offset="1" style="stop-color:#0065FF"/>
</linearGradient>
<path class="st7" d="M956.27,883.41H395.39c-4.17,0-7.55-3.38-7.55-7.55v-27.8c0-4.17,3.38-7.55,7.55-7.55h280.35
	c4.17,0,7.55,3.38,7.55,7.55v6.25c7.95-6.38,17.84-9.87,28.03-9.9h244.95c4.17,0,7.55,3.38,7.55,7.55v23.91
	C963.82,880.04,960.44,883.41,956.27,883.41z M690.22,868.32h258.51v-8.81H711.32C703.41,859.58,695.84,862.75,690.22,868.32z
	 M402.94,868.32H668.2v-12.71H402.94V868.32z"/>
<path class="st8" d="M675.74,875.87V466.7c0.21-0.38,0.32-0.81,0.32-1.24c0-1.12-0.12-2.26-0.14-3.33
	c0.58-19.42,15.99-35.14,35.4-36.12h244.95v425.94H711.32C695.83,852.35,681.96,861.67,675.74,875.87z"/>
<linearGradient id="SVGID_7_" gradientUnits="userSpaceOnUse" x1="-169.2035" y1="902.8826" x2="-169.2035" y2="895.3366" gradientTransform="matrix(39.176 0 0 -61.614 7444.7314 56048.6953)">
	<stop  offset="0" style="stop-color:#0065FF"/>
	<stop  offset="1" style="stop-color:#0052CC"/>
</linearGradient>
<path class="st9" d="M675.74,883.41c-0.56,0-1.11-0.06-1.65-0.18c-3.45-0.77-5.89-3.83-5.89-7.36V466.7
	c-0.01-0.7,0.09-1.39,0.29-2.06c-0.06-0.91-0.11-2.26-0.11-2.3c0.67-23.59,19.37-42.7,42.94-43.86h244.95
	c4.17,0,7.55,3.38,7.55,7.55v425.94c0,4.17-3.38,7.55-7.55,7.55H711.32c-12.58,0.37-23.8,8.01-28.77,19.57
	C681.31,881.72,678.66,883.41,675.74,883.41z M683.29,467.63v386.72c7.95-6.38,17.84-9.87,28.03-9.9h237.41V433.57H711.32
	c-15.44,1.03-27.55,13.66-27.92,29.13l0.17,2.77c-0.01,0.74-0.11,1.47-0.29,2.18V467.63z"/>
<path class="st10" d="M675.95,875.87V466.7c-0.2-0.38-0.31-0.81-0.32-1.24c0-1.12,0.08-2.26,0.17-3.33l-0.06-0.68v-0.29v-0.35
	l-0.08-0.56v-0.09l-0.09-0.65v-0.17l-0.06-0.48l-0.09-0.47l-0.14-0.83v-0.09l-0.12-0.56l-0.06-0.35l-0.05-0.26l-0.15-0.62l0,0
	l-0.14-0.62l-0.09-0.26l-0.2-0.88v-0.12l-0.18-0.59l-0.06-0.17l-0.26-0.89l-0.06-0.14l-0.17-0.62l-0.06-0.06l-0.17-0.53l-0.12-0.35
	l-0.09-0.23l-0.23-0.6l0,0l-0.23-0.53l-0.12-0.29l-0.11-0.29l-0.24-0.53v-0.06l-0.23-0.56l-0.08-0.18l-0.21-0.39l-0.2-0.41
	l-0.06-0.12l-0.26-0.56l-0.06-0.09l-0.26-0.47l-0.18-0.32l-0.11-0.21l-0.29-0.53c-6-10.92-17.38-17.79-29.83-18.04H395.39v425.94
	h244.98c5.39,0.01,10.72,1.22,15.59,3.54l0,0c6.66,3.22,12.35,8.15,16.48,14.29l0.26,0.39l0,0l0.26,0.39l0.23,0.38l0.26,0.41l0,0
	l0.24,0.35l0.14,0.26l0.09,0.12l0.23,0.41l0.06,0.09l0.17,0.32l0.18,0.29l0.06,0.12l0.2,0.41l0.09,0.12l0.14,0.29l0.18,0.35v0.06
	l0.23,0.41l0.06,0.18l0.14,0.23L675.95,875.87z"/>
<path class="st11" d="M675.95,883.41c-2.93,0-5.6-1.7-6.84-4.36l-0.2-0.45c-0.26-0.35-0.8-1.51-1-1.86
	c-0.06-0.12-1.09-1.83-1.18-1.92c-3.45-5.36-8.29-9.69-14.01-12.53c-3.86-1.84-8.07-2.8-12.35-2.8H395.39
	c-4.17,0-7.55-3.38-7.55-7.55V426.02c0-4.17,3.38-7.55,7.55-7.55h244.98c15.15,0.21,29.02,8.52,36.34,21.79
	c0.12,0.18,1.12,2.01,1.21,2.18l0.97,1.98c0,0,0.75,1.83,0.8,1.86l0.7,1.77l0,0c0.21,0.39,0.37,0.81,0.48,1.24
	c0,0.06,0.68,2.26,0.71,2.26c0.03,0,0.56,2.18,0.59,2.33c0.03,0.15,0.41,1.92,0.41,1.97c0,0.05,0.32,1.86,0.35,2.01
	c0,0.32,0.24,1.92,0.24,2.26c0,0.35,0.2,2.15,0.17,2.6c-0.06,0.59-0.09,1.21-0.12,1.83c0.2,0.69,0.3,1.4,0.29,2.12v409.17
	c0,3.54-2.47,6.6-5.92,7.37C677.06,883.33,676.51,883.4,675.95,883.41z M402.94,844.42h237.44c6.51,0,12.93,1.46,18.8,4.27
	c3.28,1.56,6.37,3.49,9.22,5.75V467.64c-0.19-0.71-0.29-1.44-0.32-2.18c0-1.33,0.08-2.66,0.2-3.95c-0.09-0.45-0.65-3.51-0.65-3.95
	c-0.06-0.23-0.59-1.71-0.62-1.95c-0.85-0.82-0.26-0.75-0.65-1.92l6.31-4.63l-7.02,2.8c0-0.06-0.75-1.65-0.75-1.74l-0.91-1.71
	c-4.59-8.87-13.63-14.56-23.61-14.86H402.94V844.42z"/>
<path class="st0" d="M918.61,515.36H711.09v-14.8h207.52V515.36z"/>
<path class="st12" d="M711.12,493.02h207.49c4.17,0,7.55,3.38,7.55,7.55v14.8c0,4.17-3.38,7.55-7.55,7.55H711.12
	c-4.17,0-7.55-3.38-7.55-7.55v-14.8C703.57,496.4,706.95,493.02,711.12,493.02z"/>
<path class="st0" d="M918.61,568.8H711.09v-14.79h207.52V568.8z"/>
<path class="st12" d="M711.12,546.46h207.49c4.17,0,7.55,3.38,7.55,7.55v14.8c0,4.17-3.38,7.55-7.55,7.55H711.12
	c-4.17,0-7.55-3.38-7.55-7.55v-14.8C703.57,549.84,706.95,546.46,711.12,546.46z"/>
<path class="st0" d="M918.61,622.28H711.09v-14.8h207.52V622.28z"/>
<path class="st12" d="M711.12,599.93h207.49c4.17,0,7.55,3.38,7.55,7.55v14.8c0,4.17-3.38,7.55-7.55,7.55H711.12
	c-4.17,0-7.55-3.38-7.55-7.55v-14.8C703.57,603.31,706.95,599.93,711.12,599.93z"/>
<path class="st0" d="M918.61,675.75H711.09v-14.83h207.52V675.75z"/>
<path class="st12" d="M711.12,653.37h207.49c4.17,0,7.55,3.38,7.55,7.55v14.83c0,4.17-3.38,7.55-7.55,7.55H711.12
	c-4.17,0-7.55-3.38-7.55-7.55v-14.83C703.57,656.75,706.95,653.37,711.12,653.37z"/>
<path class="st0" d="M918.61,729.16H711.09v-14.74h207.52V729.16z"/>
<path class="st12" d="M711.12,706.87h207.49c4.17,0,7.55,3.38,7.55,7.55v14.74c0,4.17-3.38,7.55-7.55,7.55H711.12
	c-4.17,0-7.55-3.38-7.55-7.55v-14.74C703.57,710.25,706.95,706.87,711.12,706.87z"/>
<path class="st0" d="M918.61,782.66H711.09v-14.8h207.52V782.66z"/>
<path class="st12" d="M711.12,760.29h207.49c4.17,0,7.55,3.38,7.55,7.55v14.8c0,4.17-3.38,7.55-7.55,7.55H711.12
	c-4.17,0-7.55-3.38-7.55-7.55v-14.8C703.57,763.66,706.95,760.29,711.12,760.29z"/>
<path class="st0" d="M638.22,515.36H430.7v-14.8h207.52V515.36z"/>
<path class="st12" d="M430.73,493.02h207.49c4.17,0,7.55,3.38,7.55,7.55v14.8c0,4.17-3.38,7.55-7.55,7.55H430.73
	c-4.17,0-7.55-3.38-7.55-7.55v-14.8C423.19,496.4,426.56,493.02,430.73,493.02z"/>
<path class="st0" d="M638.22,568.8H430.7v-14.79h207.52V568.8z"/>
<path class="st12" d="M430.73,546.46h207.49c4.17,0,7.55,3.38,7.55,7.55v14.8c0,4.17-3.38,7.55-7.55,7.55H430.73
	c-4.17,0-7.55-3.38-7.55-7.55v-14.8C423.19,549.84,426.56,546.46,430.73,546.46z"/>
<path class="st0" d="M638.22,622.28H430.7v-14.8h207.52V622.28z"/>
<path class="st12" d="M430.73,599.93h207.49c4.17,0,7.55,3.38,7.55,7.55v14.8c0,4.17-3.38,7.55-7.55,7.55H430.73
	c-4.17,0-7.55-3.38-7.55-7.55v-14.8C423.19,603.31,426.56,599.93,430.73,599.93z"/>
<path class="st0" d="M638.22,675.75H430.7v-14.83h207.52V675.75z"/>
<path class="st12" d="M430.73,653.37h207.49c4.17,0,7.55,3.38,7.55,7.55v14.83c0,4.17-3.38,7.55-7.55,7.55H430.73
	c-4.17,0-7.55-3.38-7.55-7.55v-14.83C423.19,656.75,426.56,653.37,430.73,653.37z"/>
<path class="st0" d="M638.22,729.16H430.7v-14.74h207.52V729.16z"/>
<path class="st12" d="M430.73,706.87h207.49c4.17,0,7.55,3.38,7.55,7.55v14.74c0,4.17-3.38,7.55-7.55,7.55H430.73
	c-4.17,0-7.55-3.38-7.55-7.55v-14.74C423.19,710.25,426.56,706.87,430.73,706.87z"/>
<path class="st0" d="M638.22,782.66H430.7v-14.8h207.52V782.66z"/>
<path class="st12" d="M430.73,760.29h207.49c4.17,0,7.55,3.38,7.55,7.55v14.8c0,4.17-3.38,7.55-7.55,7.55H430.73
	c-4.17,0-7.55-3.38-7.55-7.55v-14.8C423.19,763.66,426.56,760.29,430.73,760.29z"/>
<g transform="translate(-163.083 1121.387)">
	
		<radialGradient id="SVGID_8_" cx="-5.3564" cy="-216.886" r="3.773" gradientTransform="matrix(37.752 0 0 -37.752 1194.3768 -8491.0801)" gradientUnits="userSpaceOnUse">
		<stop  offset="0" style="stop-color:#FFD664"/>
		<stop  offset="0.7" style="stop-color:#FFC400;stop-opacity:0"/>
	</radialGradient>
	<circle class="st13" cx="992.16" cy="-303.2" r="142.44"/>
	
		<linearGradient id="SVGID_9_" gradientUnits="userSpaceOnUse" x1="6.2837" y1="-207.6236" x2="5.997" y2="-201.0435" gradientTransform="matrix(20.0281 0 0 -22.5779 867.6697 -4894.6577)">
		<stop  offset="0" style="stop-color:#FFA416"/>
		<stop  offset="1" style="stop-color:#FFC400"/>
	</linearGradient>
	<path class="st14" d="M1065.55-296.7c0.05,17.36-5.64,34.26-16.19,48.05c-0.82,1.08-1.68,2.11-2.55,3.15
		c-2.17,1.95-4.19,4.05-6.04,6.3c0,0-0.08,0.05-0.08,0.08c-8.36,9.77-12.62,22.39-11.87,35.22H951.1
		c0.77-12.87-3.51-25.53-11.92-35.31c-1.85-2.25-3.87-4.36-6.04-6.3c-12.14-14.29-18.76-32.45-18.68-51.2
		c-1.1-41.72,31.82-76.43,73.54-77.54c41.72-1.1,76.43,31.82,77.54,73.54C1065.58-299.36,1065.58-298.03,1065.55-296.7z"/>
	<path class="st15" d="M835.31-252c-1.89,2.22-3.9,4.32-6.04,6.3C831.13-247.95,833.14-250.06,835.31-252z"/>
	<rect x="949.01" y="-203.92" class="st16" width="82.01" height="38.85"/>
	<path class="st17" d="M1015.91-165.07c0,14.3-11.59,25.9-25.9,25.9c-14.3,0-25.9-11.59-25.9-25.9H1015.91z"/>
	<path class="st18" d="M957.64-272.98c-2.3,8.32,1.23,17.15,8.63,21.58c12.95,8.63,17.27,30.18,12.95,34.53"/>
	<path class="st19" d="M791.45-236.29"/>
	<path class="st18" d="M1021.8-272.98c1.93,7.98-0.87,16.36-7.21,21.58c-10.82,8.63-14.43,30.18-10.82,34.53"/>
	<line class="st18" x1="841.09" y1="-318.31" x2="888.57" y2="-305.36"/>
	<line class="st18" x1="869.43" y1="-380.65" x2="907.16" y2="-350.46"/>
	<line class="st18" x1="922.25" y1="-425.92" x2="944.89" y2="-380.65"/>
	<line class="st18" x1="982.62" y1="-441.01" x2="982.62" y2="-395.74"/>
	<line class="st18" x1="1058.08" y1="-425.92" x2="1035.44" y2="-388.19"/>
	<line class="st18" x1="1110.9" y1="-388.19" x2="1073.17" y2="-358.01"/>
	<line class="st18" x1="1141.08" y1="-327.82" x2="1095.81" y2="-312.73"/>
</g>
</svg>
