<?xml version="1.0" encoding="utf-8"?>
<!-- Generator: Adobe Illustrator 23.0.1, SVG Export Plug-In . SVG Version: 6.00 Build 0)  -->
<svg version="1.1" id="Layer_1" xmlns="http://www.w3.org/2000/svg" xmlns:xlink="http://www.w3.org/1999/xlink" x="0px" y="0px"
	 viewBox="0 0 1000 1000" style="enable-background:new 0 0 1000 1000;" xml:space="preserve">
<style type="text/css">
	.st0{fill-rule:evenodd;clip-rule:evenodd;fill:#FFFFFF;stroke:#0049B0;}
	.st1{fill:#0049B0;stroke:#0049B0;}
	.st2{fill:#FFFFFF;stroke:#0049B0;}
	.st3{fill:#FFFFFF;}
	.st4{fill:url(#SVGID_1_);}
	.st5{fill-rule:evenodd;clip-rule:evenodd;fill:#FFFFFF;}
	.st6{fill:#0049B0;}
	.st7{fill:#FFC43A;}
</style>
<g transform="translate(1376.584 1357.821)">
	<path class="st0" d="M-876.17-1348.51c270.91,0,490.53,219.62,490.53,490.53s-219.62,490.53-490.53,490.53
		s-490.53-219.62-490.53-490.53l0,0c0-270.91,219.61-490.53,490.52-490.53C-876.18-1348.51-876.18-1348.51-876.17-1348.51z"/>
	<path class="st1" d="M-876.17-359.17c-275.49,0-498.83-223.33-498.83-498.83s223.33-498.83,498.83-498.83
		c275.49,0,498.82,223.33,498.83,498.82C-377.65-582.63-600.8-359.48-876.17-359.17z M-876.17-1340.24
		c-266.33,0-482.24,215.91-482.24,482.24s215.91,482.24,482.24,482.24S-393.93-591.67-393.93-858
		C-394.23-1124.21-609.96-1339.95-876.17-1340.24z"/>
</g>
<path class="st2" d="M764.03,179.66C587.21,34.04,325.82,59.33,180.2,236.16s-120.33,438.21,56.5,583.83
	c176.82,145.62,438.21,120.33,583.83-56.5c61.16-74.26,94.6-167.48,94.6-263.68C915.31,375.84,859.85,258.32,764.03,179.66z
	 M767.39,766.82l-3.35,3.31c-141.97,138.64-367.07,143.62-515.04,11.4c-5.35-4.76-10.54-9.66-15.58-14.72
	C85.96,619.4,85.92,380.36,233.34,232.9c0.02-0.02,0.05-0.05,0.07-0.07c5.05-5.07,10.24-9.98,15.58-14.74
	C396.96,85.86,622.07,90.86,764.03,229.52l3.35,3.3c147.46,147.44,147.46,386.51,0.02,533.96c-0.01,0.01-0.01,0.01-0.02,0.02V766.82
	z"/>
<path class="st1" d="M500.4,922.85c-92.67,0.08-182.78-30.35-256.42-86.6C58.18,694.52,22.45,429.01,164.18,243.21
	c62.44-81.85,152.57-138.13,253.52-158.3c124.52-24.85,253.62,7.58,351.62,88.32c180.41,148.35,206.4,414.87,58.05,595.28
	c-80.4,97.78-200.38,154.4-326.97,154.3V922.85z M500.4,93.39c-89.04-0.09-175.62,29.17-246.36,83.25
	C75.52,312.8,41.19,567.9,177.36,746.41c59.98,78.64,146.58,132.72,243.57,152.1c119.64,23.9,243.69-7.27,337.82-84.88
	c173.34-142.53,198.32-398.6,55.79-571.94C737.29,147.74,622.02,93.34,500.39,93.42L500.4,93.39z M500.4,885.71
	c-94.79,0.13-186.29-34.77-256.93-97.98c-5.45-4.84-10.75-9.86-15.93-15.06C76.85,622.02,76.82,377.73,227.47,227.04
	c0.02-0.02,0.05-0.05,0.07-0.07c5.17-5.19,10.47-10.21,15.91-15.06c49.41-44.14,109.36-74.81,174.06-89.06
	c59.81-12.97,121.84-11.69,181.07,3.72c64.52,16.99,123.52,50.42,171.25,97.04l3.37,3.31c150.72,150.65,150.77,394.96,0.12,545.68
	c-0.03,0.03-0.05,0.05-0.08,0.08l-3.39,3.35C697.86,846.45,601.11,885.83,500.4,885.71L500.4,885.71z M500.4,130.53
	c-90.71-0.13-178.28,33.27-245.87,93.77c-5.23,4.66-10.31,9.46-15.22,14.4C95.08,382.86,95.04,616.65,239.21,760.87
	c0.03,0.03,0.06,0.06,0.09,0.09c4.94,4.95,10.01,9.75,15.22,14.38c47.29,42.25,104.66,71.61,166.58,85.25
	c57.25,12.39,116.61,11.18,173.3-3.54c61.73-16.28,118.19-48.28,163.87-92.87l3.3-3.27c144.2-144.21,144.2-378.01,0-522.22
	l-3.3-3.25c-68.9-67.38-161.47-105.05-257.83-104.93L500.4,130.53z"/>
<g transform="translate(1395.526 1376.765)">
	<path class="st3" d="M-555.21-894.45h-148.02c0.96-33.77,5.6-67.34,13.84-100.11c19.94,10.79,39.27,22.66,57.92,35.55
		c26.53,18.38,51.91,38.37,75.99,59.85c-1.53-23.88-5.59-47.53-12.1-70.56c-20.51-16.1-41.83-31.12-63.9-45.02
		c-14.68-9.21-29.38-17.64-44.11-25.28c8.36-23.51,18.32-46.41,29.81-68.56c-2.83-3.04-5.72-6.07-8.72-9.01
		c-8.41-8.43-17.28-16.41-26.54-23.89c-14.37,26.29-26.76,53.61-37.07,81.73c-26.18-11.02-53.27-19.73-80.96-26.05
		c-21.99-5.01-44.34-8.29-66.84-9.82v-120.43c-9.66-0.79-19.39-1.25-29.26-1.25c-2.81,0-5.62,0-8.41,0.1v120.73
		c-7.75,0.16-15.53,0.43-23.27,1.07c-16.59,1.29-33.08,3.57-49.4,6.8c-29.01,5.82-57.38,14.48-84.7,25.86
		c-10.99-29.52-24.26-58.13-39.7-85.59c-12.41,9.43-24.17,19.68-35.2,30.69l-0.72,0.75c12.94,23.8,24.13,48.51,33.5,73.93
		c-15.43,8.17-29.94,16.86-43.49,25.8c-28.6,18.9-55.5,40.27-80.36,63.86c-11.37,49.92-11.44,101.74-0.21,151.69
		c24.95,23.4,51.91,44.56,80.57,63.24c13.05,8.49,26.96,16.74,41.69,24.49c-9.72,25.29-21.61,49.69-35.52,72.94
		c1.5,1.59,3.03,3.09,4.54,4.64c9.51,9.5,19.57,18.43,30.13,26.74c16.39-27.11,30.36-55.61,41.75-85.17
		c28.27,11.79,57.68,20.66,87.76,26.47c15.37,2.96,30.88,5.05,46.48,6.27c8.72,0.67,17.44,1.06,26.16,1.19v124.09
		c2.78,0.08,5.61,0.11,8.41,0.11c9.88,0,19.63-0.42,29.26-1.26v-124.19c22.51-1.68,44.85-5.1,66.84-10.21
		c28.42-6.67,56.19-15.85,82.98-27.44c10.83,28.9,24.13,56.82,39.76,83.44c7.56-6.34,14.84-13.02,21.83-20.04
		c4.28-4.26,8.43-8.63,12.44-13.12c-12.58-22.53-23.37-46.03-32.26-70.25c14.27-7.58,28.54-15.88,42.81-24.9
		c22.79-14.47,44.79-30.15,65.9-46.97c7.2-27.91,10.83-56.61,10.81-85.43C-554.78-882.81-554.94-888.66-555.21-894.45z
		 M-1089.86-759.18c-19.67-10.9-38.6-23.08-56.66-36.47c-24.9-18.41-48.24-38.85-69.77-61.11h142.4
		C-1075.65-823.76-1081-791.03-1089.86-759.18z M-1146.53-894.45h-72.88c22.34-23.86,46.72-45.71,72.88-65.31
		c18.43-13.83,37.76-26.4,57.88-37.63c8.85,33.64,13.88,68.17,15,102.94H-1146.53z M-903.54-707.4c-7.4-0.13-14.75-0.37-22.09-0.95
		c-17.01-1.31-33.91-3.8-50.58-7.45c-24.91-5.5-49.24-13.33-72.68-23.4c11.19-38.27,17.91-77.7,20.02-117.52h125.33L-903.54-707.4z
		 M-903.54-894.45h-124.65c-0.99-41.79-7.13-83.3-18.3-123.58c22.69-9.75,46.22-17.42,70.3-22.91c17.46-3.96,35.19-6.65,53.04-8.04
		c6.51-0.53,13.05-0.73,19.63-0.9L-903.54-894.45z M-865.87-1048.89c22.55,1.74,44.92,5.43,66.84,11.01
		c22.84,5.81,45.18,13.41,66.83,22.72c-10.65,39.39-16.54,79.91-17.52,120.7h-116.14L-865.87-1048.89z M-799.06-720.23
		c-21.91,5.73-44.27,9.56-66.84,11.47v-147.97h116.69c2.03,38.1,8.27,75.86,18.59,112.58
		C-752.75-734.35-775.64-726.35-799.06-720.23z M-631.52-800.44c-18.32,12.8-37.31,24.62-56.89,35.41
		c-7.82-30.01-12.65-60.73-14.41-91.69h142.61c-22.67,20.1-46.47,38.9-71.28,56.28L-631.52-800.44z"/>
	
		<linearGradient id="SVGID_1_" gradientUnits="userSpaceOnUse" x1="-1585.635" y1="-476.4991" x2="-1585.635" y2="-484.4276" gradientTransform="matrix(87.9412 0 0 -87.946 138547.5156 -43131.7578)">
		<stop  offset="0.09" style="stop-color:#FFAB00"/>
		<stop  offset="0.48" style="stop-color:#FFB800"/>
		<stop  offset="1" style="stop-color:#FFC400"/>
	</linearGradient>
	<path class="st4" d="M-895.13-528.3c-2.89,0-5.78,0-8.65-0.11c-4.49-0.13-8.06-3.8-8.06-8.29V-652.7
		c-6.18-0.21-12.36-0.53-18.53-1.01c-15.91-1.26-31.75-3.39-47.43-6.39c-27.86-5.39-55.16-13.35-81.55-23.79
		c-10.96,27.23-24.1,53.53-39.29,78.65c-1.23,2.02-3.27,3.43-5.61,3.85c-2.34,0.4-4.74-0.2-6.61-1.65
		c-10.8-8.52-21.1-17.67-30.83-27.39l-4.65-4.76c-2.61-2.7-3.08-6.82-1.15-10.05c12.43-20.73,23.19-42.42,32.21-64.85
		c-12.08-6.6-24.1-13.76-35.77-21.36c-29.06-18.95-56.41-40.4-81.72-64.13c-1.2-1.14-2.03-2.61-2.38-4.23
		c-11.52-51.17-11.45-104.26,0.21-155.4c0.36-1.6,1.19-3.05,2.38-4.18c25.22-23.93,52.49-45.61,81.49-64.78
		c12.24-8.06,24.91-15.69,37.75-22.74c-8.71-22.68-18.89-44.76-30.48-66.11c-1.73-3.2-1.18-7.15,1.36-9.74
		c11.52-11.57,23.83-22.35,36.83-32.24c1.92-1.44,4.36-2,6.71-1.52c2.35,0.49,4.37,1.97,5.55,4.07
		c14.22,25.36,26.65,51.68,37.2,78.78c25.37-10.03,51.58-17.78,78.33-23.14c16.64-3.29,33.46-5.6,50.38-6.92
		c5.19-0.44,10.41-0.7,15.63-0.88v-112.61c0.01-4.5,3.6-8.18,8.1-8.29l8.6-0.1c10.12,0,20.08,0.44,29.98,1.28
		c4.29,0.36,7.59,3.96,7.58,8.26v112.72c20.32,1.74,40.49,4.89,60.38,9.42c25.35,5.77,50.21,13.54,74.34,23.23
		c9.85-25.67,21.4-50.66,34.57-74.8c1.18-2.16,3.26-3.68,5.67-4.16c2.42-0.52,4.94,0.1,6.83,1.68c9.49,7.67,18.57,15.84,27.19,24.48
		c3.04,3.01,5.98,6.09,8.9,9.21c2.38,2.57,2.89,6.35,1.29,9.46c-10.21,19.7-19.21,40-26.96,60.79c12.88,6.88,25.71,14.35,38.25,22.2
		c22.3,14.04,43.86,29.23,64.59,45.51c1.39,1.08,2.4,2.58,2.89,4.28c6.42,22.76,10.52,46.11,12.22,69.69
		c0.4,0.99,0.6,2.05,0.61,3.12c0,0.88-0.14,1.75-0.42,2.58c0.15,0.57,0.24,1.15,0.25,1.74c0.29,5.93,0.46,11.89,0.46,17.89
		c0,29.52-3.73,58.92-11.1,87.5c-0.46,1.75-1.47,3.3-2.89,4.42c-21.35,16.99-43.58,32.85-66.6,47.49
		c-12.23,7.75-24.58,15.06-36.91,21.76c8.23,21.45,17.98,42.28,29.18,62.33c1.73,3.09,1.3,6.94-1.06,9.59
		c-4.12,4.6-8.38,9.1-12.76,13.48c-7.13,7.14-14.58,13.98-22.36,20.51c-1.88,1.55-4.33,2.21-6.73,1.82c-2.4-0.41-4.5-1.86-5.74-3.96
		c-14.41-24.55-26.87-50.19-37.26-76.69c-24.78,10.24-50.34,18.46-76.44,24.58c-19.89,4.61-40.08,7.87-60.41,9.74v116.55
		c0.01,4.31-3.29,7.9-7.58,8.26C-875.03-528.75-885.02-528.32-895.13-528.3z M-895.25-544.89h0.12c7.06,0,14.04-0.22,20.97-0.67
		v-116.48c0-4.35,3.36-7.96,7.7-8.29c22.08-1.65,44-4.99,65.57-10.01c27.93-6.56,55.23-15.58,81.57-26.96
		c2.08-0.91,4.44-0.91,6.53,0c2.08,0.89,3.71,2.59,4.5,4.71c9.51,25.34,20.93,49.91,34.18,73.5c4.72-4.23,9.32-8.58,13.8-13.05
		c2.79-2.77,5.51-5.59,8.17-8.46c-11.56-21.31-21.56-43.43-29.92-66.18c-1.43-3.9,0.24-8.25,3.91-10.2
		c14.04-7.44,28.25-15.71,42.24-24.58c21.75-13.83,42.77-28.76,62.99-44.74c3.71-14.91,6.38-30.06,7.99-45.33
		c-20.49,17.54-41.23,33.65-61.84,47.98c-18.58,12.97-37.82,24.95-57.66,35.88c-4.02,2.2-9.07,0.73-11.27-3.29
		c-0.33-0.6-0.58-1.23-0.75-1.89c-7.93-30.55-12.84-61.8-14.64-93.31c-0.27-4.57,3.22-8.49,7.79-8.75c0.16-0.01,0.33-0.01,0.49-0.01
		h139.54c0.14-3.96,0.21-7.93,0.21-11.89c0-3.08-0.05-6.15-0.13-9.21h-140.02c-4.58,0-8.3-3.72-8.3-8.31c0-0.07,0-0.14,0-0.21
		c0.99-34.37,5.71-68.54,14.07-101.9c0.62-2.48,2.36-4.52,4.69-5.55c2.34-1.07,5.04-0.97,7.29,0.28
		c20.19,10.94,39.78,22.97,58.67,36.03c20.36,14.03,40.83,29.74,61.05,46.86c-1.96-15.49-5.01-30.82-9.14-45.88
		c-20.31-15.77-40.86-30.18-61.05-42.81c-14.27-8.96-28.92-17.36-43.52-24.96c-3.68-1.9-5.39-6.22-4-10.12
		c7.84-22.01,17.06-43.5,27.6-64.35c-1.47-1.55-2.98-3.06-4.49-4.57c-5.81-5.81-11.89-11.47-18.17-16.88
		c-12.17,23.16-22.8,47.1-31.81,71.67c-0.78,2.13-2.39,3.85-4.47,4.76c-2.07,0.92-4.43,0.93-6.51,0.04
		c-25.74-10.81-52.37-19.38-79.59-25.6c-21.57-4.9-43.48-8.12-65.54-9.63c-4.36-0.28-7.75-3.91-7.75-8.28v-112.8
		c-6.93-0.42-13.91-0.66-20.97-0.66h-0.12v112.58c0,4.51-3.6,8.19-8.11,8.29c-7.6,0.16-15.21,0.41-22.77,1.04
		c-16.27,1.28-32.45,3.51-48.47,6.67c-28.48,5.71-56.32,14.21-83.14,25.37c-4.23,1.76-9.09-0.25-10.85-4.48
		c-0.04-0.09-0.07-0.18-0.11-0.27c-9.71-26.08-21.23-51.45-34.5-75.92c-8.07,6.5-15.81,13.35-23.13,20.42
		c11.9,22.46,22.28,45.69,31.06,69.54c1.42,3.89-0.25,8.23-3.91,10.17c-14.57,7.74-28.98,16.28-42.81,25.37
		c-27.5,18.17-53.39,38.66-77.39,61.25c-3.65,16.52-6.03,33.3-7.14,50.18c0.28-0.48,0.62-0.92,1.01-1.32
		c22.67-24.21,47.42-46.4,73.96-66.3c18.73-14.04,38.38-26.81,58.81-38.22c3.98-2.23,9.02-0.81,11.26,3.17
		c0.35,0.62,0.62,1.29,0.79,1.98c9,34.24,14.12,69.38,15.28,104.77c0.06,2.24-0.78,4.41-2.34,6.02c-1.56,1.62-3.71,2.53-5.95,2.53
		h-145.67c-3.2-0.01-6.11-1.86-7.48-4.76c-0.19,4.65-0.29,9.29-0.29,13.94c-0.01,23.89,2.54,47.71,7.61,71.06
		c24.07,22.37,50.02,42.64,77.55,60.59c13.37,8.72,27.19,16.8,41.05,24.11c3.71,1.97,5.36,6.39,3.86,10.31
		c-9.13,23.73-20.12,46.7-32.87,68.69l0.06,0.06c6.93,6.95,14.27,13.68,21.99,20.08c14.02-24.25,26.13-49.55,36.23-75.68
		c1.64-4.27,6.43-6.39,10.7-4.75c0.06,0.02,0.13,0.05,0.19,0.08c27.76,11.55,56.62,20.26,86.14,25.98
		c15.07,2.9,30.28,4.95,45.58,6.15c8.53,0.64,17.08,1.03,25.67,1.15c4.53,0.07,8.16,3.77,8.16,8.29L-895.25-544.89z M-693.93-848.44
		c1.82,23.86,5.49,47.55,10.98,70.85c15.52-8.9,31.2-18.86,46.73-29.65c17.83-12.44,35.83-26.24,53.68-41.23L-693.93-848.44z
		 M-694.64-902.75h122.43c-20.45-17.58-41.8-34.08-63.97-49.43c-15.82-10.88-31.79-20.89-47.67-29.84
		C-689.76-955.96-693.36-929.44-694.64-902.75L-694.64-902.75z M-1199.82-902.75h117.52c-1.43-27.64-5.36-55.09-11.74-82.01
		c-16.41,9.65-32.28,20.21-47.51,31.63C-1162.12-937.7-1181.58-920.87-1199.82-902.75L-1199.82-902.75z M-903.54-699.11h-0.14
		c-7.58-0.13-15.06-0.39-22.61-0.98c-17.38-1.33-34.65-3.88-51.69-7.61c-25.42-5.61-50.25-13.61-74.17-23.87
		c-3.85-1.65-5.87-5.91-4.71-9.94c11.01-37.66,17.63-76.46,19.71-115.64c0.23-4.4,3.87-7.86,8.28-7.86h125.33
		c4.58,0,8.29,3.7,8.29,8.28c0,0.01,0,0.01,0,0.02v149.32C-895.25-702.82-898.96-699.1-903.54-699.11L-903.54-699.11z
		 M-1038.87-744.04c20.87,8.54,42.43,15.28,64.45,20.14c16.29,3.56,32.81,5.99,49.44,7.27c4.39,0.35,8.78,0.58,13.17,0.72v-132.52
		h-109.26C-1023.47-813.13-1029.44-778.15-1038.87-744.04z M-865.83-700.43c-4.58,0-8.29-3.71-8.29-8.29v-148
		c0-4.58,3.71-8.29,8.29-8.29h116.69c4.41,0,8.05,3.45,8.28,7.86c2.01,37.49,8.15,74.64,18.3,110.78c1.11,3.98-0.87,8.16-4.65,9.82
		c-22.54,9.96-45.85,18.11-69.69,24.36c-22.37,5.83-45.2,9.74-68.24,11.69c-0.25,0.02-0.48,0.04-0.71,0.04L-865.83-700.43z
		 M-857.54-848.4v130.55c19.05-2.08,37.91-5.55,56.45-10.39c20.69-5.39,40.95-12.28,60.64-20.61
		c-8.67-32.57-14.19-65.89-16.51-99.52L-857.54-848.4z M-1089.85-750.88c-1.39,0-2.75-0.36-3.96-1.04
		c-19.99-11.06-39.23-23.42-57.59-37.01c-25.27-18.7-48.96-39.44-70.83-62.02c-3.18-3.29-3.09-8.54,0.2-11.73
		c1.54-1.49,3.61-2.33,5.76-2.33h142.4c4.57-0.01,8.28,3.68,8.29,8.25c0,0.16,0,0.32-0.01,0.47c-1.78,33.59-7.21,66.89-16.21,99.3
		c-0.67,2.45-2.42,4.45-4.76,5.45c-1.04,0.43-2.16,0.65-3.28,0.64L-1089.85-750.88z M-1196.25-848.4
		c17.21,16.54,35.46,31.95,54.65,46.14c14.92,11.04,30.44,21.25,46.48,30.59c6.35-25.17,10.49-50.84,12.38-76.72L-1196.25-848.4z
		 M-749.71-886.12h-116.15c-4.58,0-8.29-3.71-8.29-8.29v-154.48c-0.01-2.31,0.96-4.52,2.66-6.07c1.65-1.64,3.95-2.45,6.26-2.2
		c23.03,1.79,45.86,5.56,68.24,11.25c23.25,5.92,46,13.65,68.04,23.14c3.81,1.61,5.84,5.79,4.76,9.78
		c-10.47,38.75-16.25,78.62-17.24,118.74c-0.11,4.51-3.79,8.1-8.3,8.1L-749.71-886.12z M-857.54-902.71h99.8
		c1.47-36.3,6.74-72.35,15.71-107.55c-19.18-7.89-38.9-14.42-59-19.54c-18.57-4.72-37.46-8.06-56.51-9.99L-857.54-902.71z
		 M-903.53-886.12h-124.68c-4.51,0-8.18-3.61-8.28-8.11c-0.99-41.11-7.04-81.95-18.01-121.58c-1.09-4,0.94-8.2,4.76-9.82
		c23.16-9.94,47.16-17.76,71.73-23.37c17.85-4.05,35.98-6.79,54.23-8.21c6.63-0.55,13.33-0.79,20.05-0.94
		c2.25-0.12,4.45,0.75,6.01,2.38c1.6,1.56,2.51,3.71,2.51,5.95v155.4c-0.01,4.58-3.72,8.28-8.3,8.27c-0.01,0-0.01,0-0.02,0
		L-903.53-886.12z M-1020.15-902.71h108.33v-138.62c-3.56,0.15-7.14,0.32-10.66,0.61c-17.47,1.37-34.81,4-51.9,7.87
		c-21.25,4.84-42.07,11.42-62.25,19.68c9.44,36.11,14.97,73.13,16.47,110.43L-1020.15-902.71z"/>
</g>
<g transform="translate(1473.272 1408.441)">
	<path class="st5" d="M-529.2-914.01c0,46.28-37.52,83.8-83.8,83.8c-46.28,0-83.8-37.52-83.8-83.8c0-46.28,37.52-83.8,83.8-83.8
		C-566.73-997.82-529.2-960.3-529.2-914.01C-529.2-914.02-529.2-914.02-529.2-914.01z"/>
	<path class="st6" d="M-613.01-821.93c-50.86-0.01-92.08-41.25-92.07-92.1c0.01-50.86,41.25-92.08,92.1-92.07
		c50.85,0.01,92.07,41.24,92.07,92.09C-520.96-863.18-562.17-821.98-613.01-821.93z M-613.01-989.52
		c-41.7,0.01-75.5,33.82-75.49,75.52c0.01,41.7,33.82,75.5,75.52,75.49c41.69-0.01,75.48-33.81,75.49-75.49
		C-537.54-955.7-571.32-989.48-613.01-989.52z"/>
</g>
<g transform="translate(1382.734 1408.441)">
	<path class="st5" d="M-1156.5-914.01c0,46.28-37.52,83.79-83.8,83.79s-83.79-37.52-83.79-83.8c0-46.28,37.52-83.79,83.8-83.79
		c46.27,0,83.79,37.51,83.79,83.79C-1156.5-914.02-1156.5-914.02-1156.5-914.01z"/>
	<path class="st6" d="M-1240.28-821.93c-50.86,0-92.09-41.22-92.1-92.08c0-50.86,41.22-92.09,92.08-92.1
		c50.86,0,92.09,41.22,92.1,92.08c0,0,0,0.01,0,0.01C-1148.26-863.19-1189.45-822-1240.28-821.93z M-1240.28-989.52
		c-41.7,0-75.51,33.8-75.51,75.49c0,41.7,33.8,75.51,75.49,75.51c41.7,0,75.51-33.8,75.51-75.49l0,0
		C-1164.83-955.69-1198.61-989.47-1240.28-989.52z"/>
</g>
<g transform="translate(1448.427 1358.513)">
	<path class="st5" d="M-701.34-1259.93c0,46.28-37.53,83.8-83.81,83.8c-46.28,0-83.8-37.53-83.8-83.81c0-46.28,37.52-83.8,83.8-83.8
		c46.28,0,83.8,37.51,83.8,83.79C-701.34-1259.95-701.34-1259.94-701.34-1259.93z"/>
	<path class="st6" d="M-785.13-1167.86c-50.86,0-92.09-41.24-92.08-92.1c0-50.86,41.24-92.09,92.1-92.08
		c50.86,0,92.09,41.24,92.08,92.1C-693.1-1209.1-734.3-1167.91-785.13-1167.86z M-785.13-1335.45c-41.7,0-75.5,33.81-75.49,75.51
		c0,41.7,33.81,75.5,75.51,75.49c41.69,0,75.49-33.8,75.49-75.49C-709.66-1301.62-743.45-1335.4-785.13-1335.45z"/>
</g>
<g transform="translate(1404.474 1459.56)">
	<path class="st5" d="M-1005.88-559.84c0,46.28-37.52,83.79-83.8,83.79c-46.28,0-83.79-37.52-83.79-83.8
		c0-46.28,37.52-83.79,83.8-83.79C-1043.4-643.63-1005.88-606.12-1005.88-559.84z"/>
	<path class="st7" d="M-1089.67-467.7c-50.86,0-92.1-41.23-92.1-92.09c0-50.86,41.23-92.1,92.09-92.1c50.86,0,92.1,41.23,92.1,92.09
		l0,0C-997.64-508.97-1038.83-467.77-1089.67-467.7z M-1089.67-635.31c-41.7,0-75.51,33.8-75.52,75.5c0,41.7,33.8,75.51,75.5,75.52
		c41.7,0,75.51-33.8,75.52-75.5c0,0,0-0.01,0-0.01c-0.02-41.7-33.81-75.5-75.5-75.55V-635.31z"/>
</g>
</svg>
