<?xml version="1.0" encoding="utf-8"?>
<!-- Generator: Adobe Illustrator 23.0.1, SVG Export Plug-In . SVG Version: 6.00 Build 0)  -->
<svg version="1.1" id="Layer_1" xmlns="http://www.w3.org/2000/svg" xmlns:xlink="http://www.w3.org/1999/xlink" x="0px" y="0px"
	 viewBox="0 0 1000 1000" style="enable-background:new 0 0 1000 1000;" xml:space="preserve">
<style type="text/css">
	.st0{fill-rule:evenodd;clip-rule:evenodd;fill:url(#SVGID_1_);}
	.st1{fill:url(#SVGID_2_);}
	.st2{fill-rule:evenodd;clip-rule:evenodd;fill:url(#SVGID_3_);}
	.st3{fill:url(#SVGID_4_);}
	.st4{fill-rule:evenodd;clip-rule:evenodd;fill:url(#SVGID_5_);}
	.st5{fill:url(#SVGID_6_);}
	.st6{fill-rule:evenodd;clip-rule:evenodd;fill:url(#SVGID_7_);}
</style>
<g transform="translate(-143.443 103.821)">
	<g transform="translate(1086.24 1254)">
		
			<linearGradient id="SVGID_1_" gradientUnits="userSpaceOnUse" x1="-1126.1523" y1="-448.4247" x2="-1126.1523" y2="-455.559" gradientTransform="matrix(81.6151 0 0 -58.9607 91619.4531 -27759.7969)">
			<stop  offset="0.09" style="stop-color:#FFAB00"/>
			<stop  offset="0.48" style="stop-color:#FFB800"/>
			<stop  offset="1" style="stop-color:#FFC400"/>
		</linearGradient>
		<path class="st0" d="M-0.89-980.31c-0.93-2.23-3.11-3.68-5.52-3.69h-33.26c0.15-185.62-150.2-336.21-335.81-336.36
			c-75.1-0.06-148.05,25.03-207.22,71.27l59.09,59.08c113.48-81.77,271.77-56.06,353.54,57.42c31.17,43.27,47.9,95.27,47.78,148.59
			h-32.33c-3.29-0.01-5.97,2.64-5.98,5.93c-0.01,1.59,0.63,3.12,1.76,4.25l71.08,71.12c4.01,3.97,10.46,3.97,14.47,0l71.11-71.12
			C-0.48-975.52,0.03-978.08-0.89-980.31z"/>
		
			<linearGradient id="SVGID_2_" gradientUnits="userSpaceOnUse" x1="-1126.1047" y1="-449.1639" x2="-1126.1047" y2="-456.2982" gradientTransform="matrix(83.7384 0 0 -61.0772 94006.7422 -28761.5723)">
			<stop  offset="0.09" style="stop-color:#FFAB00"/>
			<stop  offset="0.48" style="stop-color:#FFB800"/>
			<stop  offset="1" style="stop-color:#FFC400"/>
		</linearGradient>
		<path class="st1" d="M-80.49-892.17c-4.69,0.01-9.2-1.85-12.53-5.15l-71.12-71.16c-5.28-5.27-5.28-13.83-0.01-19.11
			c2.54-2.54,5.98-3.97,9.57-3.96h24.66c-3.9-135.66-117.04-242.47-252.7-238.56c-49.11,1.41-96.67,17.52-136.54,46.23
			c-3.02,2.13-7.12,1.79-9.75-0.79l-59.09-59.08c-2.94-2.95-2.93-7.72,0.02-10.66c0.22-0.22,0.45-0.42,0.7-0.61
			c60.2-47.41,134.66-73.09,211.3-72.88c186.93,0.19,339.56,149.48,343.87,336.36h25.8c7.46-0.02,13.52,6.02,13.53,13.48
			c0.01,3.6-1.42,7.05-3.97,9.59l-71.11,71.12C-71.22-894.01-75.76-892.14-80.49-892.17z M-150.76-976.44l68.37,68.4
			c1.21,0.55,2.6,0.55,3.81,0l68.38-68.4h-29.43c-4.16,0.01-7.55-3.36-7.56-7.53c0-0.01,0-0.01,0-0.02
			c-0.21-181.52-147.31-328.61-328.83-328.81c-70.33-0.2-138.83,22.43-195.21,64.49l48.51,48.51
			c118.97-81.25,281.28-50.66,362.53,68.31c29.68,43.46,45.52,94.87,45.44,147.49c0,4.16-3.37,7.54-7.53,7.55c-0.01,0-0.01,0-0.02,0
			H-150.76z"/>
	</g>
	<g transform="translate(1043.887 1318.778)">
		
			<linearGradient id="SVGID_3_" gradientUnits="userSpaceOnUse" x1="-1086.9827" y1="-519.9397" x2="-1086.9827" y2="-527.074" gradientTransform="matrix(81.614 0 0 -58.9589 88161.6172 -31578.1836)">
			<stop  offset="0.09" style="stop-color:#FFAB00"/>
			<stop  offset="0.48" style="stop-color:#FFB800"/>
			<stop  offset="1" style="stop-color:#FFC400"/>
		</linearGradient>
		<path class="st2" d="M-842.05-842.55c0.92,2.23,3.1,3.69,5.51,3.7h33.27c-0.15,185.61,150.2,336.2,335.81,336.35
			c75.1,0.06,148.05-25.03,207.22-71.28l-59.1-59.06c-113.55,81.73-271.85,55.94-353.58-57.61
			c-31.11-43.22-47.81-95.15-47.72-148.41h32.33c3.3,0,5.98-2.68,5.98-5.98c0-1.59-0.63-3.11-1.75-4.23l-71.09-71.09
			c-4.01-3.97-10.46-3.97-14.47,0l-71.09,71.09C-842.44-847.35-842.96-844.79-842.05-842.55z"/>
		
			<linearGradient id="SVGID_4_" gradientUnits="userSpaceOnUse" x1="-1086.8551" y1="-520.442" x2="-1086.8551" y2="-527.5762" gradientTransform="matrix(83.7281 0 0 -61.0555 90448.9531 -32706.3945)">
			<stop  offset="0.09" style="stop-color:#FFAB00"/>
			<stop  offset="0.48" style="stop-color:#FFB800"/>
			<stop  offset="1" style="stop-color:#FFC400"/>
		</linearGradient>
		<path class="st3" d="M-466.89-494.94c-186.9-0.21-339.51-149.49-343.83-336.35h-25.8c-7.49-0.04-13.52-6.14-13.48-13.63
			c0.02-3.53,1.41-6.91,3.89-9.43l71.14-71.14c7.02-6.71,18.07-6.73,25.11-0.04l71.14,71.14c5.27,5.32,5.24,13.9-0.08,19.17
			c-2.52,2.5-5.93,3.91-9.48,3.93h-24.66c3.93,135.67,117.09,242.46,252.75,238.54c49.09-1.42,96.62-17.51,136.47-46.2
			c3-2.17,7.14-1.84,9.75,0.79l59.1,59.06c1.53,1.53,2.33,3.64,2.2,5.8c-0.13,2.16-1.18,4.15-2.89,5.48
			C-315.77-520.41-390.24-494.73-466.89-494.94z M-832.71-846.39h29.48c4.17,0,7.55,3.37,7.56,7.54c0,0,0,0,0,0.01
			c0.21,181.51,147.3,328.6,328.81,328.8c70.33,0.2,138.83-22.43,195.21-64.49L-320.17-623c-118.97,81.26-281.29,50.69-362.54-68.28
			c-29.69-43.47-45.54-94.92-45.45-147.56c0-4.17,3.38-7.55,7.55-7.55c0,0,0,0,0.01,0h28.54l-68.4-68.41
			c-1.21-0.63-2.65-0.61-3.84,0.04L-832.71-846.39z"/>
	</g>
	<g transform="translate(1056.012 1282.914)">
		
			<linearGradient id="SVGID_5_" gradientUnits="userSpaceOnUse" x1="-1097.8313" y1="-466.6124" x2="-1097.8313" y2="-473.7467" gradientTransform="matrix(85.968 0 0 -35.904 93916.9688 -17896.2266)">
			<stop  offset="0" style="stop-color:#0065FF"/>
			<stop  offset="1" style="stop-color:#0052CC"/>
		</linearGradient>
		<path class="st4" d="M-768.06-950.84h382.1v64.01l231.21-128.08l-231.21-128.07v64.03h-382.1V-950.84z"/>
		
			<linearGradient id="SVGID_6_" gradientUnits="userSpaceOnUse" x1="-1097.7413" y1="-468.395" x2="-1097.7413" y2="-475.5293" gradientTransform="matrix(88.0854 0 0 -38.018 96233.5313 -18957.9414)">
			<stop  offset="0" style="stop-color:#0065FF"/>
			<stop  offset="1" style="stop-color:#0052CC"/>
		</linearGradient>
		<path class="st5" d="M-385.99-879.28c-4.16,0.01-7.55-3.36-7.56-7.53c0-0.01,0-0.02,0-0.03v-56.45h-374.55
			c-4.17,0-7.56-3.38-7.56-7.56l0,0v-128.08c0-4.17,3.37-7.55,7.54-7.56c0,0,0.01,0,0.01,0h374.55v-56.48
			c0-4.17,3.39-7.55,7.56-7.55c1.28,0,2.53,0.32,3.65,0.94l231.22,128.07c3.65,2.02,4.97,6.62,2.94,10.27
			c-0.69,1.24-1.7,2.25-2.94,2.94l-231.22,128.08C-383.45-879.59-384.71-879.27-385.99-879.28z M-760.54-958.39h374.55
			c4.17,0,7.55,3.37,7.56,7.54c0,0,0,0.01,0,0.01v51.2l208.07-115.27l-208.07-115.25v51.23c0,4.17-3.37,7.55-7.54,7.56
			c0,0-0.01,0-0.01,0h-374.55V-958.39z"/>
	</g>
	
		<linearGradient id="SVGID_7_" gradientUnits="userSpaceOnUse" x1="-40.7466" y1="810.0248" x2="-40.7466" y2="802.8906" gradientTransform="matrix(85.972 0 0 -35.907 4204.9297 29487.5254)">
		<stop  offset="0" style="stop-color:#0049B0"/>
		<stop  offset="0.7" style="stop-color:#0065FF"/>
	</linearGradient>
	<path class="st6" d="M1008.54,594.02H626.45v64.08L395.19,530.01l231.22-128.08v64.01h382.1L1008.54,594.02z"/>
</g>
</svg>
