<?xml version="1.0" encoding="utf-8"?>
<!-- Generator: Adobe Illustrator 23.0.1, SVG Export Plug-In . SVG Version: 6.00 Build 0)  -->
<svg version="1.1" id="Layer_1" xmlns="http://www.w3.org/2000/svg" xmlns:xlink="http://www.w3.org/1999/xlink" x="0px" y="0px"
	 viewBox="0 0 1000 1000" style="enable-background:new 0 0 1000 1000;" xml:space="preserve">
<style type="text/css">
	.st0{opacity:0.8;fill:url(#SVGID_1_);enable-background:new    ;}
	.st1{fill:#79E2F2;}
	.st2{fill:none;}
	.st3{fill:url(#SVGID_2_);}
	.st4{fill:url(#SVGID_3_);}
	.st5{fill:url(#SVGID_4_);}
	.st6{fill:#B3F5FF;}
	.st7{fill:url(#SVGID_5_);}
	.st8{fill:url(#SVGID_6_);}
	.st9{fill:url(#SVGID_7_);}
	.st10{fill:url(#SVGID_8_);}
	.st11{fill:url(#SVGID_9_);}
	.st12{fill:url(#SVGID_10_);}
	.st13{fill:url(#SVGID_11_);}
	.st14{fill:url(#SVGID_12_);}
	.st15{fill:url(#SVGID_13_);}
	.st16{fill:url(#SVGID_14_);}
	.st17{fill:url(#SVGID_15_);}
	.st18{fill:url(#SVGID_16_);}
	.st19{fill:#00B8D9;}
	.st20{opacity:0.32;fill:#00BFDF;enable-background:new    ;}
	.st21{fill:#00BFDF;}
	.st22{fill:url(#SVGID_17_);}
	.st23{fill:url(#SVGID_18_);}
	.st24{fill:#00A3BF;}
	.st25{fill:url(#SVGID_19_);}
	.st26{fill:url(#SVGID_20_);}
	.st27{fill:url(#SVGID_21_);}
	.st28{fill:url(#SVGID_22_);}
	.st29{fill:url(#SVGID_23_);}
	.st30{fill:#97A0AF;}
	.st31{fill:url(#SVGID_24_);}
	.st32{clip-path:url(#SVGID_26_);}
	.st33{fill:#DEE1E4;}
	.st34{clip-path:url(#SVGID_28_);}
	.st35{opacity:0.6;fill:#DEE1E4;enable-background:new    ;}
	.st36{fill:url(#SVGID_29_);}
	.st37{clip-path:url(#SVGID_31_);}
	.st38{opacity:0.6;fill:url(#SVGID_32_);enable-background:new    ;}
	.st39{fill:#008DA6;}
	.st40{fill:#344563;}
	.st41{fill:url(#SVGID_33_);}
	.st42{clip-path:url(#SVGID_35_);}
	.st43{fill:url(#SVGID_36_);}
	.st44{fill:#0065FF;}
	.st45{fill:url(#SVGID_37_);}
	.st46{fill:#0049B0;}
	.st47{fill:url(#SVGID_38_);}
	.st48{fill:#D2B494;}
	.st49{fill:url(#SVGID_39_);}
	.st50{fill:url(#SVGID_40_);}
	.st51{fill:#FFE380;}
	.st52{fill:url(#SVGID_41_);}
	.st53{fill:url(#SVGID_42_);}
	.st54{fill:url(#SVGID_43_);}
	.st55{fill:#C1C7D0;}
	.st56{fill:#F9F9F8;}
	.st57{opacity:0.4;fill:#97A0AF;enable-background:new    ;}
	.st58{opacity:0.39;clip-path:url(#SVGID_45_);}
	.st59{fill:#AE8E76;}
	.st60{fill:#42526E;}
	.st61{fill:url(#SVGID_46_);}
	.st62{fill:url(#SVGID_47_);}
	.st63{opacity:0.6;fill:url(#SVGID_48_);enable-background:new    ;}
	.st64{fill:#FF991F;}
	.st65{fill:#FFC400;}
	.st66{clip-path:url(#SVGID_50_);}
	.st67{fill:url(#SVGID_51_);}
	.st68{fill:url(#SVGID_52_);}
	.st69{fill:url(#SVGID_53_);}
	.st70{fill:url(#SVGID_54_);}
	.st71{fill:url(#SVGID_55_);}
	.st72{fill:#FF7452;}
	.st73{fill:#FFAB00;}
	.st74{fill:url(#SVGID_56_);}
	.st75{fill:url(#SVGID_57_);}
	.st76{fill:url(#SVGID_58_);}
	.st77{fill:url(#SVGID_59_);}
	.st78{clip-path:url(#SVGID_61_);}
	.st79{fill:url(#SVGID_62_);}
	.st80{fill:url(#SVGID_63_);}
	.st81{fill:#0052CC;}
	.st82{fill:url(#SVGID_64_);}
	.st83{fill:url(#SVGID_65_);}
	.st84{fill:url(#SVGID_66_);}
	.st85{fill:url(#SVGID_67_);}
	.st86{fill:url(#SVGID_68_);}
	.st87{fill:url(#SVGID_69_);}
	.st88{fill:url(#SVGID_70_);}
	.st89{fill:#A07F68;}
	.st90{clip-path:url(#SVGID_72_);}
	.st91{fill:url(#SVGID_73_);}
	.st92{fill:#8A715E;}
	.st93{clip-path:url(#SVGID_75_);}
	.st94{fill:#7A869A;}
	.st95{clip-path:url(#SVGID_77_);}
	.st96{fill:url(#SVGID_78_);}
	.st97{fill:url(#SVGID_79_);}
	.st98{fill:#4C9AFF;}
	.st99{fill:none;stroke:#707070;}
	.st100{fill:url(#SVGID_80_);}
	.st101{fill:none;stroke:#0049B0;stroke-width:2;}
	.st102{fill:#FF5630;}
	.st103{fill-rule:evenodd;clip-rule:evenodd;fill:url(#SVGID_81_);}
</style>
<linearGradient id="SVGID_1_" gradientUnits="userSpaceOnUse" x1="-183.9294" y1="884.1811" x2="-182.3366" y2="884.1811" gradientTransform="matrix(383.829 0 0 -139.64 70797.3203 124314.0078)">
	<stop  offset="0" style="stop-color:#8993A4"/>
	<stop  offset="1" style="stop-color:#6C798F;stop-opacity:0"/>
</linearGradient>
<path class="st0" d="M199.88,735.77h611.35v197.22c0,13.97-22.22,25.2-49.48,25.2H249.37c-27.26,0-49.48-11.22-49.48-25.2
	L199.88,735.77L199.88,735.77z"/>
<path class="st1" d="M986,458.38H811V170h175V458.38z M799.55,170h-175v288.38h175V170z M612.87,170h-175v288.38h175L612.87,170z
	 M986,469.6H811v288.61h175V469.6z M799.55,469.6h-175v288.61h175V469.6z M612.87,469.6h-175v288.61h175L612.87,469.6z"/>
<path class="st2" d="M528.35,281.32"/>
<path class="st2" d="M539.34,290.03l-1.15-0.69L539.34,290.03z"/>
<path class="st2" d="M534.53,287.28l-0.92-0.69L534.53,287.28z"/>
<path class="st2" d="M530.18,283.61l-0.46-0.46L530.18,283.61z"/>
<path class="st2" d="M532.24,285.45l-0.69-0.69L532.24,285.45z"/>
<path class="st2" d="M536.82,288.65l-1.15-0.69L536.82,288.65z"/>
<path class="st2" d="M542.09,291.17l-1.37-0.46L542.09,291.17z"/>
<path class="st2" d="M551.94,292.78c-1,0.04-2-0.04-2.98-0.23C549.95,292.73,550.94,292.8,551.94,292.78z"/>
<path class="st2" d="M548.05,292.55c-0.69,0-1.37-0.23-1.83-0.23C546.9,292.32,547.36,292.55,548.05,292.55z"/>
<path class="st2" d="M545.07,292.09c-0.46-0.23-1.15-0.23-1.6-0.46C543.99,291.81,544.53,291.97,545.07,292.09z"/>
<path class="st2" d="M674.49,282.93v9.85h80.17v-9.85H674.49z"/>
<linearGradient id="SVGID_2_" gradientUnits="userSpaceOnUse" x1="-203.3379" y1="865.9376" x2="-203.3379" y2="856.4081" gradientTransform="matrix(25.886 0 0 -17.117 5934.4233 15569.9648)">
	<stop  offset="0" style="stop-color:#00B8D9;stop-opacity:0"/>
	<stop  offset="0.52" style="stop-color:#00B8D9"/>
</linearGradient>
<path class="st3" d="M674.49,265.52v-7.56c-0.01-9.52,7.44-17.38,16.95-17.87h-41.23c9.14,0.96,16.07,8.68,16.03,17.87v9.4
	c1.91-0.78,3.91-1.31,5.96-1.6C672.88,265.75,673.57,265.52,674.49,265.52z"/>
<linearGradient id="SVGID_3_" gradientUnits="userSpaceOnUse" x1="-290.7267" y1="880.527" x2="-290.7267" y2="877.9946" gradientTransform="matrix(5.177 0 0 -64.427 2175.4551 57477.2773)">
	<stop  offset="0" style="stop-color:#00B8D9;stop-opacity:0"/>
	<stop  offset="0.52" style="stop-color:#00B8D9"/>
</linearGradient>
<rect x="666.24" y="300.56" class="st4" width="8.25" height="102.62"/>
<linearGradient id="SVGID_4_" gradientUnits="userSpaceOnUse" x1="-290.7267" y1="837.6994" x2="-290.7267" y2="811.9255" gradientTransform="matrix(5.177 0 0 -6.328 2175.4551 6048.5879)">
	<stop  offset="0" style="stop-color:#00B8D9;stop-opacity:0"/>
	<stop  offset="0.52" style="stop-color:#00B8D9"/>
</linearGradient>
<rect x="666.24" y="282.93" class="st5" width="8.25" height="10.08"/>
<path class="st6" d="M703.35,288.62c-4.04,3.65-11.54,6.1-20.13,6.1c-9.14,0-17.06-2.78-20.87-6.82c-4.21,2.62-9.11,3.93-14.07,3.75
	c-9.65,0-17.47-4.13-17.47-9.22s7.82-9.22,17.47-9.22c4.96-0.17,9.86,1.13,14.07,3.75c3.81-4.04,11.73-6.82,20.87-6.82
	c8.58,0,16.09,2.45,20.13,6.1c4.38-4.82,13.71-8.15,24.52-8.15c15.01,0,27.18,6.42,27.18,14.33s-12.17,14.33-27.18,14.33
	C717.07,296.77,707.73,293.44,703.35,288.62z"/>
<linearGradient id="SVGID_5_" gradientUnits="userSpaceOnUse" x1="-203.9968" y1="881.3639" x2="-203.9968" y2="879.7712" gradientTransform="matrix(26.6 0 0 -74.781 6008.145 66640.4219)">
	<stop  offset="0" style="stop-color:#00B8D9;stop-opacity:0"/>
	<stop  offset="0.52" style="stop-color:#00B8D9"/>
</linearGradient>
<path class="st7" d="M560.65,300.33c9.86,0.01,17.85,8,17.87,17.87v101.24h8.25V318.2c0.07-9.23,7.07-16.93,16.26-17.87H560.65z"/>
<linearGradient id="SVGID_6_" gradientUnits="userSpaceOnUse" x1="-202.2481" y1="881.3691" x2="-202.2481" y2="879.7764" gradientTransform="matrix(26.461 0 0 -74.781 6066.2559 66640.5703)">
	<stop  offset="0" style="stop-color:#00B8D9;stop-opacity:0"/>
	<stop  offset="0.52" style="stop-color:#00B8D9"/>
</linearGradient>
<path class="st8" d="M711.13,318.43v101.24h8.25V318.43c0.07-9.23,7.08-16.93,16.26-17.87H693.5
	C703.24,300.76,711.06,308.68,711.13,318.43z"/>
<linearGradient id="SVGID_7_" gradientUnits="userSpaceOnUse" x1="-211.7545" y1="881.3762" x2="-211.7545" y2="879.7834" gradientTransform="matrix(16.394 0 0 -74.925 4328.543 66768.0078)">
	<stop  offset="0" style="stop-color:#00B8D9;stop-opacity:0"/>
	<stop  offset="0.52" style="stop-color:#00B8D9"/>
</linearGradient>
<path class="st9" d="M843.99,344.77v75.13h8.25V318.43c0.01-9.86,8-17.85,17.87-17.87h-19.24v44.21H843.99z"/>
<linearGradient id="SVGID_8_" gradientUnits="userSpaceOnUse" x1="-762.6464" y1="847.2363" x2="-762.6464" y2="830.6525" gradientTransform="matrix(0.863 0 0 -7.191 1500.3232 6823.4185)">
	<stop  offset="0" style="stop-color:#00B8D9;stop-opacity:0"/>
	<stop  offset="0.52" style="stop-color:#00B8D9"/>
</linearGradient>
<path class="st10" d="M842.84,312.02v-11.45h-1.37l0.23,8.7C842.17,310.14,842.56,311.06,842.84,312.02z"/>
<linearGradient id="SVGID_9_" gradientUnits="userSpaceOnUse" x1="-284.3708" y1="837.6994" x2="-284.3708" y2="811.9255" gradientTransform="matrix(5.177 0 0 -6.328 2230.9661 6048.5879)">
	<stop  offset="0" style="stop-color:#00B8D9;stop-opacity:0"/>
	<stop  offset="0.52" style="stop-color:#00B8D9"/>
</linearGradient>
<rect x="754.66" y="282.93" class="st11" width="8.25" height="10.08"/>
<linearGradient id="SVGID_10_" gradientUnits="userSpaceOnUse" x1="-284.3708" y1="880.5185" x2="-284.3708" y2="877.9813" gradientTransform="matrix(5.177 0 0 -64.283 2230.9661 57349.9766)">
	<stop  offset="0" style="stop-color:#00B8D9;stop-opacity:0"/>
	<stop  offset="0.52" style="stop-color:#00B8D9"/>
</linearGradient>
<rect x="754.66" y="300.79" class="st12" width="8.25" height="102.39"/>
<linearGradient id="SVGID_11_" gradientUnits="userSpaceOnUse" x1="-200.7904" y1="872.3994" x2="-200.7904" y2="866.0985" gradientTransform="matrix(27.612 0 0 -25.886 6302.7749 23330.5215)">
	<stop  offset="0" style="stop-color:#00B8D9;stop-opacity:0"/>
	<stop  offset="0.52" style="stop-color:#00B8D9"/>
</linearGradient>
<path class="st13" d="M762.67,281.32v-23.36c0.01-9.86,8.01-17.85,17.87-17.87h-43.98c9.86,0.01,17.85,8,17.87,17.87l0,0v19.01
	c0.46,0.46,1.15,0.69,1.6,1.15C758.1,279.46,760.33,280.54,762.67,281.32z"/>
<linearGradient id="SVGID_12_" gradientUnits="userSpaceOnUse" x1="-853.4852" y1="868.4936" x2="-853.4852" y2="863.4047" gradientTransform="matrix(0.7456 0 0 -20.565 1479.8248 18666.5996)">
	<stop  offset="0" style="stop-color:#00B8D9;stop-opacity:0"/>
	<stop  offset="0.52" style="stop-color:#00B8D9"/>
</linearGradient>
<path class="st14" d="M842.84,312.02v32.75h1.15v-26.34C844.17,316.23,843.77,314.02,842.84,312.02z"/>
<linearGradient id="SVGID_13_" gradientUnits="userSpaceOnUse" x1="-199.5988" y1="874.8693" x2="-199.5988" y2="872.1122" gradientTransform="matrix(27.612 0 0 -37.966 6358.2847 34021.3281)">
	<stop  offset="0" style="stop-color:#00B8D9;stop-opacity:0"/>
	<stop  offset="0.52" style="stop-color:#00B8D9"/>
</linearGradient>
<path class="st15" d="M851.09,257.96c0.01-9.86,8.01-17.85,17.87-17.87h-43.98c9.86,0.01,17.85,8,17.87,17.87l0,0v42.6h8.25V257.96z
	"/>
<linearGradient id="SVGID_14_" gradientUnits="userSpaceOnUse" x1="-278.0479" y1="875.2118" x2="-278.0479" y2="870.9161" gradientTransform="matrix(5.177 0 0 -27.755 2286.1895 25022.4102)">
	<stop  offset="0" style="stop-color:#00B8D9;stop-opacity:0"/>
	<stop  offset="0.52" style="stop-color:#00B8D9"/>
</linearGradient>
<path class="st16" d="M843.99,318.43v26.11h6.87v-44.21h-8.25v11.45C843.48,313.9,843.95,316.15,843.99,318.43z"/>
<linearGradient id="SVGID_15_" gradientUnits="userSpaceOnUse" x1="-278.0479" y1="872.5057" x2="-278.0479" y2="868.7341" gradientTransform="matrix(5.177 0 0 -27.755 2286.1895 25022.4102)">
	<stop  offset="0" style="stop-color:#00B8D9;stop-opacity:0"/>
	<stop  offset="0.52" style="stop-color:#00B8D9"/>
</linearGradient>
<path class="st17" d="M843.99,318.43v26.11h6.87v-44.21h-8.25v11.45C843.48,313.9,843.95,316.15,843.99,318.43z"/>
<linearGradient id="SVGID_16_" gradientUnits="userSpaceOnUse" x1="-198.4071" y1="881.8142" x2="-198.4071" y2="880.2214" gradientTransform="matrix(27.612 0 0 -102.393 6413.7959 91039.2109)">
	<stop  offset="0" style="stop-color:#00B8D9;stop-opacity:0"/>
	<stop  offset="0.52" style="stop-color:#00B8D9"/>
</linearGradient>
<path class="st18" d="M931.26,257.96v145.22h8.25V257.96c0.01-9.86,8.01-17.85,17.87-17.87h-43.98
	C923.25,240.11,931.24,248.1,931.26,257.96z"/>
<path class="st19" d="M799.55,300.79v-8.02h-175v7.56h138.58L799.55,300.79z"/>
<path class="st19" d="M831.62,307.21c4.45,3.35,8,7.76,10.31,12.83l-0.23-10.54l-0.23-8.7l-0.23-7.79H811v8.02h3.21
	C820.51,301.22,826.6,303.39,831.62,307.21z"/>
<path class="st19" d="M612.87,300.56v-7.56h-60.93c-1,0.04-2-0.04-2.98-0.23c-0.32,0.03-0.65-0.05-0.92-0.23
	c-0.59-0.2-1.21-0.28-1.83-0.23c-0.39-0.05-0.77-0.13-1.15-0.23c-0.55-0.08-1.09-0.23-1.6-0.46l-1.37-0.46l-1.37-0.46l-1.37-0.46
	l-1.15-0.69l-1.37-0.69l-1.15-0.69c-0.46-0.23-0.92-0.69-1.37-0.92l-0.92-0.69c-0.51-0.31-0.98-0.7-1.37-1.15l-0.69-0.69l-1.37-1.37
	l-0.46-0.46c-0.51-0.57-0.97-1.18-1.37-1.83l0,0c-3.37-4.33-5.58-9.46-6.41-14.89l0,0v7.33c0.01,14.67,11.9,26.56,26.57,26.57h54.06
	L612.87,300.56z"/>
<path class="st20" d="M799.55,240.09v-7.79H624.32v8.02l25.88-0.23L799.55,240.09L799.55,240.09z"/>
<path class="st20" d="M528.35,281.32c0.46,0.69,0.92,1.15,1.37,1.83l0.46,0.46l1.37,1.37l0.69,0.69c0.46,0.46,0.92,0.69,1.37,1.15
	l0.92,0.69c0.46,0.23,0.92,0.69,1.37,0.92l1.15,0.69l1.37,0.69l1.15,0.69l1.37,0.46l1.37,0.46l1.37,0.46
	c0.46,0.23,1.15,0.23,1.6,0.46c0.35,0.18,0.75,0.26,1.15,0.23c0.46,0,1.37,0.23,1.83,0.23s0.69,0.23,0.92,0.23
	c0.92,0,2.06,0.23,2.98,0.23h60.93v-3.89c-9.69-5.34-15.74-15.51-15.8-26.57c-0.01-3.18,0.45-6.35,1.37-9.4
	c3.6-4.88,8.53-8.62,14.2-10.77v-10.07h-60.93c-16.75-0.03-30.37,13.49-30.46,30.24l0,0c-0.04,1.38,0.04,2.76,0.23,4.12
	C522.67,272.19,524.96,277.15,528.35,281.32z"/>
<path class="st20" d="M986,232.08l-175,0.23v7.79l175-0.23V232.08z"/>
<path class="st21" d="M625.7,292.78h-1.15v0.23h2.98C626.94,292.83,626.32,292.75,625.7,292.78z"/>
<linearGradient id="SVGID_17_" gradientUnits="userSpaceOnUse" x1="-189.1319" y1="873.3674" x2="-189.1319" y2="876.658" gradientTransform="matrix(64.571 0 0 -34.3701 13078.0615 30872.1348)">
	<stop  offset="0" style="stop-color:#00C7E5"/>
	<stop  offset="0.25" style="stop-color:#00BFDF"/>
	<stop  offset="1" style="stop-color:#00B8D9;stop-opacity:0"/>
</linearGradient>
<path class="st22" d="M917.05,320.26c-0.04,15.16-12.32,27.44-27.49,27.49h-75.36c15.16-0.04,27.44-12.32,27.49-27.49v-0.46
	c-0.34-14.92-12.56-26.83-27.49-26.8h75.36c14.93-0.04,27.14,11.88,27.49,26.8V320.26z"/>
<linearGradient id="SVGID_18_" gradientUnits="userSpaceOnUse" x1="-187.0514" y1="885.1965" x2="-185.5542" y2="885.1965" gradientTransform="matrix(164.2127 0 0 -253.9828 30796.6934 225076.6563)">
	<stop  offset="0" style="stop-color:#00B8D9"/>
	<stop  offset="0.08" style="stop-color:#00B5D6"/>
	<stop  offset="0.61" style="stop-color:#00A8C5"/>
	<stop  offset="1" style="stop-color:#00A3BF"/>
</linearGradient>
<path class="st23" d="M153.16,454.26c-3.44-0.69-1.15-14.89,0.23-85.9c0.69-37.79,0.69-60.47,13.29-87.73
	c4.25-9.09,9.48-17.69,15.58-25.65l13.74,12.6c-4.36-11.22-6.16-23.27-5.27-35.27c0.69-7.79,3.21-25.2,32.75-63.68
	c14.66-18.98,30.91-36.68,48.56-52.91l20.39,3.66c-2.84-5.33-3.81-11.46-2.75-17.41c2.98-12.37,16.95-19.93,55.2-32.53
	c17.64-5.73,40.54-12.83,68.03-19.7c-24.28,17.64-35.27,35.73-40.54,49.71c-5.27,13.97-7.56,28.63-19.47,34.36
	c-8.02,3.89-17.18,1.83-23.82-0.69c4.12,5.96,8.02,12.14,11.91,18.1c-17.35,13.17-32.24,29.3-43.98,47.64
	c-12.14,19.24-19.24,38.7-41.23,52c-5.79,3.5-12.03,6.2-18.55,8.02l13.29,9.4c-11.52,13.42-22.15,27.57-31.84,42.37
	C168.96,387.15,160.95,455.63,153.16,454.26z"/>
<path class="st24" d="M161.17,595.81c-2.98-0.23-2.75-11.68-9.62-68.95c-3.66-30.46-6.41-48.56,0.69-71.69
	c2.3-7.77,5.53-15.23,9.62-22.22l12.6,8.48c-4.79-8.5-7.61-17.97-8.25-27.71c-0.46-6.41-0.23-20.39,19.24-54.74
	c9.56-16.9,20.6-32.92,32.98-47.87l16.72,0.69c-2.93-3.88-4.39-8.66-4.12-13.51c0.92-10.31,11.45-17.87,40.54-32.3
	c13.51-6.64,31.15-14.89,52.45-23.36c-17.41,16.95-24.05,32.53-27.03,44.44c-2.98,11.91-2.75,23.82-11.68,29.78
	c-5.96,3.89-13.51,3.44-19.01,2.06L278,331.96c-12.37,12.59-22.44,27.24-29.78,43.29c-7.79,16.72-11.22,33.21-27.26,46.27
	c-4.2,3.51-8.91,6.37-13.97,8.48l11.68,5.96c-7.71,12.04-14.6,24.59-20.62,37.57C166.21,540.16,167.59,596.05,161.17,595.81z"/>
<linearGradient id="SVGID_19_" gradientUnits="userSpaceOnUse" x1="-346.7861" y1="885.2919" x2="-343.521" y2="885.2919" gradientTransform="matrix(41.6258 0 0 -199.9 8448.8916 177271.7969)">
	<stop  offset="0" style="stop-color:#00B8D9"/>
	<stop  offset="0.08" style="stop-color:#00B5D6"/>
	<stop  offset="0.61" style="stop-color:#00A8C5"/>
	<stop  offset="1" style="stop-color:#00A3BF"/>
</linearGradient>
<path class="st25" d="M146.06,397c-5.96-14.43-10.54-26.8-13.74-35.96c-10.99-31.38-12.14-41.23-10.77-50.85
	c1.19-7.79,3.91-15.26,8.02-21.99c-18.78-10.99-26.57-23.13-30.24-31.84c-6.88-17.41-6.88-44.67-6.88-59.33
	c0-8.93,3.44-46.73,13.97-54.29c3.44,6.18,8.02,15.35,13.06,26.57c12.6,27.94,34.13,76.5,38.48,144.08
	c3.21,50.05-3.41,100.24-19.47,147.75l0,0"/>
<linearGradient id="SVGID_20_" gradientUnits="userSpaceOnUse" x1="-186.6192" y1="885.197" x2="-185.0264" y2="885.197" gradientTransform="matrix(164.234 0 0 -253.8472 30800.5449 224956.6406)">
	<stop  offset="0" style="stop-color:#008DA6"/>
	<stop  offset="0.33" style="stop-color:#00A0BD"/>
	<stop  offset="0.74" style="stop-color:#00B2D1"/>
	<stop  offset="1" style="stop-color:#00B8D9"/>
</linearGradient>
<path class="st26" d="M353.58,92.35c15.22-11.93,31.13-22.94,47.65-32.98c3.71-3.43,7.61-6.64,11.68-9.62l0,0l-8.25,2.06
	c-18.84,10.96-36.9,23.21-54.06,36.64C220.5,190.85,170.34,340.88,151.33,450.14c0.23,2.52,0.69,3.66,1.6,3.89
	c0.92,0.23,1.83-0.69,2.75-2.29C174.69,343.63,224.16,194.05,353.58,92.35z"/>
<linearGradient id="SVGID_21_" gradientUnits="userSpaceOnUse" x1="-266.7267" y1="872.0191" x2="-268.0519" y2="871.7802" gradientTransform="matrix(66.3054 0 0 -244.5386 12963.5928 216710.6875)">
	<stop  offset="0" style="stop-color:#008DA6"/>
	<stop  offset="0.33" style="stop-color:#00A0BD"/>
	<stop  offset="0.74" style="stop-color:#00B2D1"/>
	<stop  offset="1" style="stop-color:#00B8D9"/>
</linearGradient>
<path class="st27" d="M130.02,426.54c2.98,1.37,9.16-10.54,46.96-64.59c20.16-28.86,32.76-45.81,38.02-73.07
	c1.79-9.12,2.56-18.42,2.29-27.71L200.11,263c9.37-6.12,17.33-14.16,23.36-23.59c13.74-22.22,11.68-46.04,10.08-65.74
	c-1.28-13.23-3.97-26.28-8.02-38.94c-2.29-7.24-4.97-14.35-8.02-21.3c-5.27-1.15-10.77-2.98-10.77-5.04c0-2.52,8.48-2.98,10.54-6.18
	c3.66-5.73-9.16-23.59-57.03-65.05c0.23,12.31-0.22,24.62-1.37,36.87c-0.69,7.1-2.29,14.2,2.06,19.93
	c4.35,5.73,11.68,6.41,11.45,7.79c-0.23,0.92-3.21,1.6-16.26,0.46c0.69,4.12,1.6,9.85,2.52,16.49c1.37,10.99,2.52,23.13,2.98,37.11
	c1.15,36.88-4.58,44.89,2.29,61.62c2.49,5.75,5.72,11.14,9.62,16.03l-15.12-0.23c1.37,16.38,1.6,32.83,0.69,49.25
	C154.76,367.22,123.38,423.34,130.02,426.54z"/>
<linearGradient id="SVGID_22_" gradientUnits="userSpaceOnUse" x1="-197.3805" y1="881.78" x2="-197.6927" y2="883.2214" gradientTransform="matrix(45.4601 0 0 -244.4985 9169.7393 216675.1563)">
	<stop  offset="0" style="stop-color:#00B8D9"/>
	<stop  offset="0.08" style="stop-color:#00B5D6"/>
	<stop  offset="0.61" style="stop-color:#00A8C5"/>
	<stop  offset="1" style="stop-color:#00A3BF"/>
</linearGradient>
<path class="st28" d="M166.44,42.42l-5.96-5.27v4.35c44.44,70.78,37.34,149.35,33.45,191.95c-6.43,67.57-28.64,132.69-64.83,190.12
	c0,1.6,0,2.75,0.92,2.98c0.92,0.23,2.52-0.69,5.73-4.81c35.04-56.99,56.58-121.23,62.98-187.83
	C202.4,191.3,209.28,113.43,166.44,42.42z"/>
<linearGradient id="SVGID_23_" gradientUnits="userSpaceOnUse" x1="-190.948" y1="885.4164" x2="-189.7661" y2="885.4164" gradientTransform="matrix(133.743 0 0 -171.853 25252.7617 152465.5938)">
	<stop  offset="0" style="stop-color:#00A3BF"/>
	<stop  offset="0.39" style="stop-color:#00A8C5"/>
	<stop  offset="0.92" style="stop-color:#00B5D6"/>
	<stop  offset="1" style="stop-color:#00B8D9"/>
</linearGradient>
<path class="st29" d="M178.81,378.67c13.06-10.31,23.82-19.24,31.61-25.88c26.57-23.13,32.53-31.38,35.96-41
	c2.66-7.64,3.75-15.75,3.21-23.82c15.98-1.32,31.47-6.17,45.35-14.2c11.69-6.96,21.82-16.23,29.78-27.26l-8.25-18.09
	c3.66,2.52,12.14,7.33,21.3,5.5c7.56-1.6,12.14-7.1,19.24-15.8c3.77-4.54,7.08-9.45,9.85-14.65l-22.45-36.2
	c-6.41,4.12-15.58,10.08-26.11,17.87c-26.11,19.01-71.69,52.91-109.72,112.01c-28.05,43.62-46.69,92.61-54.74,143.85l0,0"/>
<path class="st30" d="M259.21,282.01H771.6c27.31,0.05,49.43,22.17,49.48,49.48l0,0v386.64H209.73V331.49
	C209.78,304.18,231.91,282.06,259.21,282.01z"/>
<linearGradient id="SVGID_24_" gradientUnits="userSpaceOnUse" x1="-183.6882" y1="885.4045" x2="-182.3503" y2="883.4343" gradientTransform="matrix(342.125 0 0 -232.11 63234.0859 205885.7969)">
	<stop  offset="0.35" style="stop-color:#00C7E5"/>
	<stop  offset="0.82" style="stop-color:#B3F5FF"/>
</linearGradient>
<rect x="242.72" y="314.99" class="st31" width="544.92" height="369.69"/>
<g>
	<defs>
		<rect id="SVGID_25_" x="242.72" y="314.99" width="544.92" height="369.69"/>
	</defs>
	<clipPath id="SVGID_26_">
		<use xlink:href="#SVGID_25_"  style="overflow:visible;"/>
	</clipPath>
	<g transform="translate(1149.336 351.442)" class="st32">
		<g transform="translate(242.464 -0.431)">
			<rect x="-762.9" y="-36.7" class="st33" width="152.78" height="334.65"/>
			<g>
				<defs>
					<rect id="SVGID_27_" x="-762.9" y="-36.7" width="152.78" height="334.65"/>
				</defs>
				<clipPath id="SVGID_28_">
					<use xlink:href="#SVGID_27_"  style="overflow:visible;"/>
				</clipPath>
				<g class="st34">
					<path class="st35" d="M-762.9,125.7c0,8.86-7.18,16.03-16.03,16.03c-8.86,0-16.03-7.18-16.03-16.03
						c0-8.86,7.18-16.03,16.03-16.03l0,0c8.8-0.06,15.98,7.02,16.03,15.82C-762.89,125.55-762.89,125.63-762.9,125.7z
						 M-649.28,96.38h-156.67v59.78h156.67V96.38z"/>
				</g>
			</g>
		</g>
		
			<linearGradient id="SVGID_29_" gradientUnits="userSpaceOnUse" x1="-1337.5021" y1="533.9195" x2="-1334.9617" y2="532.7599" gradientTransform="matrix(95.921 0 0 -210.107 127768.0078 112220.8359)">
			<stop  offset="0.09" style="stop-color:#FFAB00"/>
			<stop  offset="0.48" style="stop-color:#FFB800"/>
			<stop  offset="1" style="stop-color:#FFC400"/>
		</linearGradient>
		<rect x="-513.33" y="-37.13" class="st36" width="152.78" height="334.65"/>
		<g transform="translate(246.922 -0.431)">
			<g>
				<defs>
					<rect id="SVGID_30_" x="-760.25" y="-36.7" width="152.78" height="334.65"/>
				</defs>
				<clipPath id="SVGID_31_">
					<use xlink:href="#SVGID_30_"  style="overflow:visible;"/>
				</clipPath>
				<g class="st37">
					
						<linearGradient id="SVGID_32_" gradientUnits="userSpaceOnUse" x1="-1584.2996" y1="535.9681" x2="-1582.7068" y2="535.9681" gradientTransform="matrix(98.366 0 0 -37.534 155037.9375 20243.2949)">
						<stop  offset="0.3" style="stop-color:#FFAB00"/>
						<stop  offset="0.41" style="stop-color:#FFBE30"/>
						<stop  offset="0.53" style="stop-color:#FFD05E"/>
						<stop  offset="0.64" style="stop-color:#FFDE83"/>
						<stop  offset="0.75" style="stop-color:#FFE89D"/>
						<stop  offset="0.85" style="stop-color:#FFEEAC"/>
						<stop  offset="0.92" style="stop-color:#FFF0B2"/>
					</linearGradient>
					<path class="st38" d="M-760.25,125.7c0,8.86-7.18,16.03-16.03,16.03c-8.86,0-16.03-7.18-16.03-16.03
						c0-8.86,7.18-16.03,16.03-16.03l0,0c8.8-0.06,15.98,7.02,16.03,15.82C-760.25,125.55-760.25,125.63-760.25,125.7z
						 M-646.64,96.38h-156.67v59.78h156.67L-646.64,96.38z"/>
				</g>
			</g>
		</g>
		<path class="st39" d="M-774.22,245.98c-84.06,0-161.03,33.21-221.49,88.64h442.99C-613.2,279.19-690.16,245.98-774.22,245.98z"/>
		<path class="st40" d="M-499.59,183.45c0.3,1.05,0.53,2.12,0.69,3.21c0.23,2.29,0.46,4.12,0,4.35c-0.46,0.23-2.29-1.15-3.21-2.29
			c-0.52-0.77-0.9-1.62-1.15-2.52c-0.04-1.38,0.04-2.76,0.23-4.12c0.4-0.74,1.25-1.11,2.06-0.92
			C-499.96,181.42-499.35,182.43-499.59,183.45z"/>
		<path class="st40" d="M-506,183.45c-0.23,1.15-0.46,2.06-0.69,3.21c-0.23,2.29-0.46,4.12,0,4.35c0.46,0.23,2.29-1.15,3.21-2.29
			c0.52-0.77,0.9-1.62,1.15-2.52c0.04-1.38-0.04-2.76-0.23-4.12c-0.4-0.74-1.25-1.11-2.06-0.92
			C-505.5,181.57-506.05,182.47-506,183.45z"/>
		
			<linearGradient id="SVGID_33_" gradientUnits="userSpaceOnUse" x1="-1333.2443" y1="533.5707" x2="-1331.6515" y2="533.5707" gradientTransform="matrix(375.632 0 0 -68.6254 499923.6875 36897.8398)">
			<stop  offset="0" style="stop-color:#00A3BF"/>
			<stop  offset="0.01" style="stop-color:#00A3C0"/>
			<stop  offset="0.59" style="stop-color:#00B3D2"/>
			<stop  offset="1" style="stop-color:#00B8D9"/>
		</linearGradient>
		<path class="st41" d="M-548.6,227.42c-75.36-4.58-131.71,13.29-175.23,27.49c-57.57,19.01-112.04,46.33-161.71,81.09l598.29-1.37
			c-30.33-24.78-63.47-45.92-98.72-62.98C-462.71,234.29-526.84,228.57-548.6,227.42z"/>
		<g transform="translate(13.231 165.21)">
			<g>
				<defs>
					<path id="SVGID_34_" d="M-561.84,62.21c-75.36-4.58-131.71,13.29-175.23,27.49c-57.57,19.01-112.04,46.33-161.71,81.09
						l598.29-1.37c-30.33-24.78-63.47-45.92-98.72-62.98C-475.94,69.08-540.07,63.36-561.84,62.21z"/>
				</defs>
				<clipPath id="SVGID_35_">
					<use xlink:href="#SVGID_34_"  style="overflow:visible;"/>
				</clipPath>
				<g class="st42">
					
						<linearGradient id="SVGID_36_" gradientUnits="userSpaceOnUse" x1="-1357.7134" y1="370.462" x2="-1358.6594" y2="369.1098" gradientTransform="matrix(34.8514 0 0 -60.5249 46973.1523 22427.5781)">
						<stop  offset="0" style="stop-color:#00A3BF"/>
						<stop  offset="0.11" style="stop-color:#00A3BF;stop-opacity:0.969"/>
						<stop  offset="0.26" style="stop-color:#00A3BF;stop-opacity:0.878"/>
						<stop  offset="0.43" style="stop-color:#00A3BF;stop-opacity:0.729"/>
						<stop  offset="0.62" style="stop-color:#00A3BF;stop-opacity:0.529"/>
						<stop  offset="0.82" style="stop-color:#00A3BF;stop-opacity:0.271"/>
						<stop  offset="1" style="stop-color:#00A3BF;stop-opacity:0"/>
					</linearGradient>
					<path class="st43" d="M-420.97,143.99c4.58,4.12,8.02,4.12,8.93,7.56c1.15,4.12-3.21,6.18-3.44,10.99
						c-0.23,9.85,18.1,17.18,20.16,17.87c9.16,3.66,20.61,4.81,21.99,1.83c1.37-2.98-8.02-5.96-8.7-13.74
						c-0.92-8.93,10.54-14.2,8.25-20.62c-1.15-3.66-5.04-2.29-8.25-6.64c-6.18-8.02,1.83-20.16-3.21-24.05
						c-3.21-2.52-7.1,1.6-10.99-0.92c-4.81-3.21-0.92-10.99-5.73-19.01c-3.89-6.41-12.14-11.45-17.18-9.16
						c-4.12,1.83-5.5,8.25-5.5,12.37c0,7.33,4.81,9.62,3.44,15.12c-1.15,4.81-5.27,4.12-6.87,9.16
						C-430.36,130.93-426.01,139.17-420.97,143.99z"/>
				</g>
			</g>
		</g>
		<path class="st6" d="M-788.2,21.04c-6.01-0.06-10.83-4.98-10.77-10.99c0.06-6.01,4.98-10.83,10.99-10.77
			c5.92,0.06,10.71,4.85,10.77,10.77C-777.29,16.09-782.16,20.96-788.2,21.04z M-788.2,3.87c-3.42,0-6.18,2.77-6.18,6.18
			s2.77,6.18,6.18,6.18c3.42,0,6.18-2.77,6.18-6.18c0,0,0,0,0,0c0.01-3.4-2.73-6.17-6.13-6.18C-788.16,3.87-788.18,3.87-788.2,3.87z
			"/>
		<path class="st6" d="M-705.51,100.07h-120.48V-20.41h120.48V100.07z M-821.41,95.49h111.09V-15.83h-111.09V95.49z"/>
		<path class="st44" d="M-512.18,135.8l-1.37,6.18c-0.19,1.9-0.27,3.82-0.23,5.73c0.04,1.08,0.19,2.16,0.46,3.21l7.1,31.84h7.56
			c0.92-6.87,1.15-12.37,1.37-16.03c-0.05-1.99,0.03-3.98,0.23-5.96c0.69-7.1,1.6-7.79,1.83-12.83c0.48-4.01-0.24-8.08-2.06-11.68
			c-0.68-1.2-1.45-2.34-2.29-3.44L-512.18,135.8z"/>
		
			<linearGradient id="SVGID_37_" gradientUnits="userSpaceOnUse" x1="-1419.8914" y1="539.2068" x2="-1414.8455" y2="537.9469" gradientTransform="matrix(7.5396 0 0 -27.899 10106.5615 15112.4561)">
			<stop  offset="0" style="stop-color:#0049B0"/>
			<stop  offset="0.14" style="stop-color:#004FC1"/>
			<stop  offset="0.45" style="stop-color:#005BE3"/>
			<stop  offset="0.72" style="stop-color:#0062F7"/>
			<stop  offset="0.89" style="stop-color:#0065FF"/>
		</linearGradient>
		<path class="st45" d="M-503.48,182.76h4.81c0.92-6.87,1.15-12.37,1.37-16.03c-0.05-1.99,0.03-3.98,0.23-5.96
			c0.69-7.1,1.6-7.79,1.83-12.83c0.3-3.25-0.09-6.53-1.15-9.62l-10.77,0.92L-503.48,182.76z"/>
		<path class="st40" d="M-513.33,107.17c-0.15,1.3-0.07,2.62,0.23,3.89c-0.86,0.59-1.57,1.37-2.06,2.29
			c-0.8,1.39-1.04,3.02-0.69,4.58c0.46,1.83,1.37,2.06,1.37,3.21s-1.37,1.6-2.06,3.44c-0.42,1.02-0.5,2.14-0.23,3.21
			c1.15,4.81,19.93,5.5,21.3,1.6c0.47-1.33,0.21-2.81-0.69-3.89c-0.46-0.69-1.15-0.69-1.15-1.37c-0.23-0.92,0.92-1.6,1.6-2.75
			c0.92-1.96,0.92-4.23,0-6.18c-0.9-1.48-2.41-2.49-4.12-2.75c0.46-1.8,0.46-3.69,0-5.5c-0.59-2.52-2.39-4.58-4.81-5.5
			c-1.58-0.5-3.28-0.42-4.81,0.23C-511.63,102.67-513.12,104.77-513.33,107.17z"/>
		<path class="st46" d="M-509.9,114.04c0.92-0.47,1.94-0.7,2.98-0.69c1.21-0.02,2.4,0.3,3.44,0.92l0.23,1.83l-5.5,2.52l-1.83-2.29
			L-509.9,114.04z"/>
		
			<linearGradient id="SVGID_38_" gradientUnits="userSpaceOnUse" x1="-1451.1205" y1="498.1887" x2="-1451.1205" y2="496.596" gradientTransform="matrix(4.7859 0 0 -3.4565 6438.4814 2053.8721)">
			<stop  offset="0.18" style="stop-color:#D2B494"/>
			<stop  offset="0.37" style="stop-color:#CFB292"/>
			<stop  offset="1" style="stop-color:#978475"/>
		</linearGradient>
		<path class="st47" d="M-509.44,114.5c0.23-0.46,0.46-0.69,0.46-1.15c0.23-0.75,0.23-1.54,0-2.29c0.75,0.23,1.54,0.23,2.29,0h2.75
			v1.83c-0.04,0.54,0.04,1.09,0.23,1.6c0.19,0.53,0.61,0.96,1.15,1.15c-0.55,0.19-1.09,0.42-1.6,0.69c-0.51,0.19-1.06,0.27-1.6,0.23
			h-1.6c-0.46,0-0.92-0.23-1.37-0.23c-0.32,0.03-0.65-0.05-0.92-0.23c-0.23-0.23-0.69-0.46-0.46-0.69
			C-510.12,115.19-509.66,114.96-509.44,114.5z"/>
		<path class="st48" d="M-499.82,116.1c0.23,1.15-3.21,3.44-6.64,3.66c-3.44,0.23-7.1-2.29-6.87-3.44s2.52-1.15,4.58-1.37
			C-505.77,114.73-500.05,114.73-499.82,116.1z"/>
		<path class="st46" d="M-528.22,140.61c3.32-0.92,6.43-2.47,9.16-4.58c2.42-1.66,4.32-3.96,5.5-6.64c0.49-1.19,0.87-2.41,1.15-3.66
			c1.6-5.27,1.37-6.64,0.92-7.33c-0.49-0.71-1.22-1.2-2.06-1.37c-0.79,0-1.53,0.33-2.06,0.92c-2.06,1.83-1.15,4.58-2.75,9.4
			c-0.17,0.74-0.48,1.44-0.92,2.06l-10.31,7.56L-528.22,140.61z"/>
		<path class="st44" d="M-503.71,114.04c0.28,0.6,0.19,1.32-0.23,1.83c-0.2,0.48-0.63,0.83-1.15,0.92c-0.9,0.47-1.57,1.3-1.83,2.29
			c-0.46-1.6-1.15-2.06-1.83-2.29c-0.48,0.01-0.93-0.26-1.15-0.69c-0.41-0.69-0.5-1.53-0.23-2.29c-0.96,0.45-1.88,0.98-2.75,1.6
			c-1.15,0.73-2.16,1.66-2.98,2.75l-0.23,0.46c0.17,0.02,0.34,0.1,0.46,0.23c0.23,0.23,0.46,0.69,0.23,2.29
			c-0.25,1.3,0.08,2.64,0.92,3.66c2.57,3.59,3.17,8.24,1.6,12.37l14.89-0.46c-1.56-2.7-2.12-5.86-1.6-8.93
			c0.19-1.49,0.74-2.9,1.6-4.12c0.41-1.27,0.72-2.57,0.92-3.89v-2.29c-0.62-0.92-1.49-1.64-2.52-2.06
			c-0.78-0.19-1.54-0.41-2.29-0.69C-502.5,114.54-503.11,114.31-503.71,114.04z"/>
		<path class="st48" d="M-501.65,106.48c0.23,1.06,0.23,2.15,0,3.21c-0.02,0.64-0.17,1.26-0.46,1.83c-0.24,0.75-0.73,1.39-1.37,1.83
			c-1.6,0.92-3.89-0.46-5.27-2.06c-1.13-1.24-1.63-2.92-1.37-4.58c0.33-2.36,2.43-4.06,4.81-3.89
			C-503.42,103.1-501.94,104.58-501.65,106.48L-501.65,106.48z"/>
		<rect x="-826.45" y="111.75" class="st6" width="277.16" height="4.58"/>
		<rect x="-826.45" y="125.72" class="st6" width="277.16" height="4.58"/>
		<rect x="-826.45" y="139.7" class="st6" width="277.16" height="4.58"/>
		<rect x="-826.45" y="153.67" class="st6" width="277.16" height="4.58"/>
		<rect x="-826.45" y="167.64" class="st6" width="225.39" height="4.58"/>
		
			<linearGradient id="SVGID_39_" gradientUnits="userSpaceOnUse" x1="-1335.0555" y1="531.9075" x2="-1333.9565" y2="529.0262" gradientTransform="matrix(98.366 0 0 -37.534 131010.9375 20218.0586)">
			<stop  offset="0.26" style="stop-color:#E9EAED"/>
			<stop  offset="1" style="stop-color:#F9F9F8"/>
		</linearGradient>
		<path class="st49" d="M-489.74,111.29c0,8.86-7.17,16.04-16.03,16.04s-16.04-7.17-16.04-16.03s7.17-16.04,16.03-16.04
			c0,0,0,0,0.01,0l0,0C-496.93,95.29-489.77,102.45-489.74,111.29z M-376.13,82.2H-532.8v59.78h156.67L-376.13,82.2z"/>
		
			<linearGradient id="SVGID_40_" gradientUnits="userSpaceOnUse" x1="-1346.4324" y1="542.6948" x2="-1346.4324" y2="541.0988" gradientTransform="matrix(33.7495 0 0 -76.5615 45067.4414 41126.6289)">
			<stop  offset="0" style="stop-color:#00B8D9"/>
			<stop  offset="1" style="stop-color:#79E2F2"/>
		</linearGradient>
		<path class="st50" d="M-393.08,283.08c-0.92,5.73-3.89,5.27-5.5,11.68c-3.21,12.83,6.64,25.43,10.99,30.92
			c5.96,7.56,11.68,14.89,18.55,13.97c8.25-0.92,15.12-12.83,15.35-22.91c0-7.79-4.35-10.31-2.75-17.18
			c1.83-7.56,9.16-8.25,9.4-13.74c0-5.27-6.18-5.73-8.48-13.06c-2.75-8.25,3.89-12.6,0.92-19.47c-2.75-5.96-8.48-4.35-10.99-10.54
			c-2.98-6.87,2.98-11.68-0.23-18.1c-2.67-4.37-7.47-6.99-12.6-6.87c-8.25,0.23-14.65,8.25-15.35,15.12
			c-0.69,6.87,5.5,11.22,3.21,16.49c-2.06,4.81-7.56,3.21-9.62,7.56C-403.61,263.84-391.47,271.17-393.08,283.08z"/>
		<path class="st19" d="M-354.6,311.03l-14.43,25.88l-2.29-30.46l17.18-30.69c-0.4-0.64-0.71-1.33-0.92-2.06l-16.26,29.32
			l-2.98-35.96l11.45-20.62c-0.46-0.46-0.92-0.69-1.37-1.15l-10.31,18.32l-1.6-21.07l10.08-17.87l0,0c-0.3-0.66-0.68-1.28-1.15-1.83
			l-9.16,16.26l-1.6-21.53h-2.06l1.6,21.3l-13.29-13.74c-0.23,0.46-0.69,1.15-0.92,1.6l14.43,14.89l1.6,21.53l-14.2-14.89
			c0,0.23-0.23,0.46-0.23,0.69c-0.18,0.41-0.41,0.8-0.69,1.15l15.35,16.03l2.75,36.42l-19.7-20.62v0.69c0,0.46-0.23,1.15-0.23,1.6
			l20.39,21.07l2.29,30.92l-26.57-27.71l2.06,4.81l24.51,25.65h1.83l0.69-0.23l14.43-25.65
			C-354.17,312.42-354.4,311.73-354.6,311.03z"/>
		<rect x="-528.22" y="185.74" class="st51" width="166.52" height="7.1"/>
		<path class="st40" d="M-510.58,107.37h2.71v-2.66l0.87,2.66h2.56l-0.43-2.66l1.4,2.66h2.56l-1.21-2.66l-2.32-2.47h-4.16l-1.74,2.9
			L-510.58,107.37z"/>
	</g>
</g>
<linearGradient id="SVGID_41_" gradientUnits="userSpaceOnUse" x1="-184.118" y1="894.4636" x2="-182.5252" y2="894.4636" gradientTransform="matrix(342.125 0 0 -14.956 63234.0859 13704.502)">
	<stop  offset="0.33" style="stop-color:#DEE1E4"/>
	<stop  offset="1" style="stop-color:#F9F9F8"/>
</linearGradient>
<rect x="242.72" y="314.99" class="st52" width="544.92" height="23.82"/>
<radialGradient id="SVGID_42_" cx="-205.2288" cy="805.7806" r="4.0663" gradientTransform="matrix(32.1835 0 0 8.0535 6744.1313 -7472.3936)" gradientUnits="userSpaceOnUse">
	<stop  offset="0" style="stop-color:#0049B0"/>
	<stop  offset="1" style="stop-color:#0049B0;stop-opacity:0"/>
</radialGradient>
<ellipse class="st53" cx="140.1" cy="834.26" rx="130.1" ry="25.65"/>
<radialGradient id="SVGID_43_" cx="-199.9092" cy="799.1123" r="4.0997" gradientTransform="matrix(26.7439 0 0 6.687 6212.7261 -6157.6953)" gradientUnits="userSpaceOnUse">
	<stop  offset="0" style="stop-color:#0049B0"/>
	<stop  offset="1" style="stop-color:#0049B0;stop-opacity:0"/>
</radialGradient>
<ellipse class="st54" cx="865.75" cy="862.2" rx="108.11" ry="21.3"/>
<path class="st55" d="M209.51,723.17h611.35v197.44c0,13.97-22.22,25.2-49.48,25.2H258.99c-27.26,0-49.48-11.22-49.48-25.2l0,0
	L209.51,723.17L209.51,723.17z"/>
<path class="st30" d="M209.51,718.13h611.35v186.45c0,13.29-22.22,23.82-49.48,23.82H258.99c-27.26,0-49.48-10.77-49.48-23.82l0,0
	L209.51,718.13L209.51,718.13z"/>
<rect x="293.8" y="757.07" class="st55" width="46.27" height="18.78"/>
<rect x="293.8" y="797.84" class="st55" width="46.27" height="18.78"/>
<rect x="343.5" y="757.07" class="st55" width="46.27" height="18.78"/>
<rect x="293.8" y="777.46" class="st55" width="46.27" height="18.78"/>
<rect x="491.93" y="757.07" class="st55" width="46.27" height="18.78"/>
<rect x="392.98" y="757.07" class="st55" width="46.27" height="18.78"/>
<rect x="442.45" y="757.07" class="st55" width="46.27" height="18.78"/>
<rect x="690.29" y="818.23" class="st55" width="46.27" height="18.78"/>
<rect x="541.63" y="818.23" class="st55" width="46.27" height="18.78"/>
<rect x="541.63" y="757.07" class="st55" width="46.27" height="18.78"/>
<rect x="293.8" y="818.23" class="st55" width="46.27" height="18.78"/>
<rect x="640.59" y="818.23" class="st55" width="46.27" height="18.78"/>
<rect x="591.11" y="818.23" class="st55" width="46.27" height="18.78"/>
<rect x="343.5" y="818.23" class="st55" width="46.27" height="18.78"/>
<rect x="442.45" y="818.23" class="st55" width="46.27" height="18.78"/>
<rect x="392.98" y="818.23" class="st55" width="46.27" height="18.78"/>
<rect x="491.93" y="818.23" class="st55" width="46.27" height="18.78"/>
<rect x="343.5" y="777.46" class="st55" width="46.27" height="18.78"/>
<rect x="392.98" y="797.84" class="st55" width="46.27" height="18.78"/>
<rect x="442.45" y="777.46" class="st55" width="46.27" height="18.78"/>
<rect x="343.5" y="797.84" class="st55" width="46.27" height="18.78"/>
<rect x="392.98" y="777.46" class="st55" width="46.27" height="18.78"/>
<rect x="591.11" y="777.46" class="st55" width="46.27" height="18.78"/>
<rect x="591.11" y="757.07" class="st55" width="46.27" height="18.78"/>
<rect x="491.93" y="777.46" class="st55" width="46.27" height="18.78"/>
<rect x="541.63" y="777.46" class="st55" width="46.27" height="18.78"/>
<rect x="640.59" y="777.46" class="st55" width="46.27" height="18.78"/>
<rect x="640.59" y="757.07" class="st55" width="46.27" height="18.78"/>
<rect x="640.59" y="797.84" class="st55" width="46.27" height="18.78"/>
<rect x="442.45" y="797.84" class="st55" width="46.27" height="18.78"/>
<rect x="491.93" y="797.84" class="st55" width="46.27" height="18.78"/>
<rect x="541.63" y="797.84" class="st55" width="46.27" height="18.78"/>
<rect x="739.77" y="757.07" class="st55" width="46.27" height="18.78"/>
<rect x="739.77" y="736.68" class="st55" width="46.27" height="18.78"/>
<rect x="739.77" y="777.46" class="st55" width="46.27" height="18.78"/>
<rect x="244.32" y="818.23" class="st55" width="46.27" height="18.78"/>
<rect x="739.77" y="797.84" class="st55" width="46.27" height="18.78"/>
<rect x="739.77" y="818.23" class="st55" width="46.27" height="18.78"/>
<rect x="640.59" y="736.68" class="st55" width="46.27" height="18.78"/>
<rect x="591.11" y="736.68" class="st55" width="46.27" height="18.78"/>
<rect x="690.29" y="797.84" class="st55" width="46.27" height="18.78"/>
<rect x="541.63" y="736.68" class="st55" width="46.27" height="18.78"/>
<rect x="690.29" y="736.68" class="st55" width="46.27" height="18.78"/>
<rect x="690.29" y="777.46" class="st55" width="46.27" height="18.78"/>
<rect x="690.29" y="757.07" class="st55" width="46.27" height="18.78"/>
<rect x="491.93" y="736.68" class="st55" width="46.27" height="18.78"/>
<rect x="244.32" y="757.07" class="st55" width="46.27" height="18.78"/>
<rect x="244.32" y="797.84" class="st55" width="46.27" height="18.78"/>
<rect x="244.32" y="777.46" class="st55" width="46.27" height="18.78"/>
<rect x="244.32" y="736.68" class="st55" width="46.27" height="18.78"/>
<rect x="293.8" y="736.68" class="st55" width="46.27" height="18.78"/>
<rect x="392.98" y="736.68" class="st55" width="46.27" height="18.78"/>
<rect x="442.45" y="736.68" class="st55" width="46.27" height="18.78"/>
<rect x="343.5" y="736.68" class="st55" width="46.27" height="18.78"/>
<rect x="293.8" y="755.24" class="st56" width="46.27" height="18.78"/>
<rect x="293.8" y="796.01" class="st56" width="46.27" height="18.78"/>
<rect x="343.5" y="755.24" class="st56" width="46.27" height="18.78"/>
<rect x="293.8" y="775.62" class="st56" width="46.27" height="18.78"/>
<rect x="491.93" y="755.24" class="st56" width="46.27" height="18.78"/>
<rect x="392.98" y="755.24" class="st56" width="46.27" height="18.78"/>
<rect x="442.45" y="755.24" class="st56" width="46.27" height="18.78"/>
<rect x="690.29" y="816.39" class="st56" width="46.27" height="18.78"/>
<rect x="541.63" y="816.39" class="st56" width="46.27" height="18.78"/>
<rect x="541.63" y="755.24" class="st56" width="46.27" height="18.78"/>
<rect x="293.8" y="816.39" class="st56" width="46.27" height="18.78"/>
<rect x="640.59" y="816.39" class="st56" width="46.27" height="18.78"/>
<rect x="343.5" y="816.39" class="st56" width="46.27" height="18.78"/>
<rect x="442.45" y="816.39" class="st56" width="46.27" height="18.78"/>
<rect x="392.98" y="816.39" class="st56" width="46.27" height="18.78"/>
<rect x="491.93" y="816.39" class="st56" width="46.27" height="18.78"/>
<rect x="343.5" y="775.62" class="st56" width="46.27" height="18.78"/>
<rect x="392.98" y="796.01" class="st56" width="46.27" height="18.78"/>
<rect x="442.45" y="775.62" class="st56" width="46.27" height="18.78"/>
<rect x="343.5" y="796.01" class="st56" width="46.27" height="18.78"/>
<rect x="392.98" y="775.62" class="st56" width="46.27" height="18.78"/>
<rect x="591.11" y="775.62" class="st56" width="46.27" height="18.78"/>
<rect x="591.11" y="755.24" class="st56" width="46.27" height="18.78"/>
<rect x="491.93" y="775.62" class="st56" width="46.27" height="18.78"/>
<rect x="541.63" y="775.62" class="st56" width="46.27" height="18.78"/>
<rect x="640.59" y="775.62" class="st56" width="46.27" height="18.78"/>
<rect x="640.59" y="755.24" class="st56" width="46.27" height="18.78"/>
<rect x="640.59" y="796.01" class="st56" width="46.27" height="18.78"/>
<rect x="442.45" y="796.01" class="st56" width="46.27" height="18.78"/>
<rect x="491.93" y="796.01" class="st56" width="46.27" height="18.78"/>
<rect x="591.11" y="797.84" class="st55" width="46.27" height="18.78"/>
<rect x="591.11" y="796.01" class="st56" width="46.27" height="18.78"/>
<rect x="541.63" y="796.01" class="st56" width="46.27" height="18.78"/>
<rect x="739.77" y="755.24" class="st56" width="46.27" height="18.78"/>
<rect x="739.77" y="734.85" class="st56" width="46.27" height="18.78"/>
<rect x="739.77" y="775.62" class="st56" width="46.27" height="18.78"/>
<rect x="244.32" y="816.39" class="st56" width="46.27" height="18.78"/>
<rect x="739.77" y="796.01" class="st56" width="46.27" height="18.78"/>
<rect x="739.77" y="816.39" class="st56" width="46.27" height="18.78"/>
<rect x="640.59" y="734.85" class="st56" width="46.27" height="18.78"/>
<rect x="591.11" y="734.85" class="st56" width="46.27" height="18.78"/>
<rect x="690.29" y="796.01" class="st56" width="46.27" height="18.78"/>
<rect x="541.63" y="734.85" class="st56" width="46.27" height="18.78"/>
<rect x="690.29" y="734.85" class="st56" width="46.27" height="18.78"/>
<rect x="690.29" y="775.62" class="st56" width="46.27" height="18.78"/>
<rect x="690.29" y="755.24" class="st56" width="46.27" height="18.78"/>
<rect x="491.93" y="734.85" class="st56" width="46.27" height="18.78"/>
<rect x="244.32" y="755.24" class="st56" width="46.27" height="18.78"/>
<rect x="244.32" y="796.01" class="st56" width="46.27" height="18.78"/>
<rect x="244.32" y="775.62" class="st56" width="46.27" height="18.78"/>
<rect x="244.32" y="734.85" class="st56" width="46.27" height="18.78"/>
<rect x="293.8" y="734.85" class="st56" width="46.27" height="18.78"/>
<rect x="392.98" y="734.85" class="st56" width="46.27" height="18.78"/>
<rect x="442.45" y="734.85" class="st56" width="46.27" height="18.78"/>
<rect x="343.5" y="734.85" class="st56" width="46.27" height="18.78"/>
<rect x="591.11" y="816.39" class="st56" width="46.27" height="18.78"/>
<path class="st57" d="M820.85,718.13c-123,3.44-198.82,13.97-245.09,22.68c-86.81,16.49-108.34,34.13-213.25,49.48
	c-59.33,8.7-116.13,12.14-152.78,13.74V717.9L820.85,718.13z"/>
<path class="st33" d="M431,847.09h168.58c11.22,0,20.39,4.35,20.39,9.85v45.81c0,5.5-9.16,9.85-20.39,9.85H431
	c-11.22,0-20.39-4.35-20.39-9.85v-45.81C410.62,851.44,419.78,847.09,431,847.09z"/>
<g>
	<defs>
		<path id="SVGID_44_" d="M431,847.09h168.58c11.22,0,20.39,4.35,20.39,9.85v45.81c0,5.5-9.16,9.85-20.39,9.85H431
			c-11.22,0-20.39-4.35-20.39-9.85v-45.81C410.62,851.44,419.78,847.09,431,847.09z"/>
	</defs>
	<clipPath id="SVGID_45_">
		<use xlink:href="#SVGID_44_"  style="overflow:visible;"/>
	</clipPath>
	<g transform="translate(1254.749 685.513)" class="st58">
		<path class="st59" d="M-823.75,164.09h168.58c11.22,0,20.39,4.35,20.39,9.85v45.81c0,5.5-9.16,9.85-20.39,9.85h-168.58
			c-11.22,0-20.39-4.35-20.39-9.85v-45.81C-844.13,168.45-834.97,164.09-823.75,164.09z"/>
	</g>
</g>
<circle class="st60" cx="515.06" cy="298.5" r="8.48"/>
<linearGradient id="SVGID_46_" gradientUnits="userSpaceOnUse" x1="-201.6033" y1="885.6654" x2="-201.6033" y2="884.0726" gradientTransform="matrix(35.521 0 0 -217.153 7432.1582 192663.9531)">
	<stop  offset="0" style="stop-color:#00A3BF"/>
	<stop  offset="0.11" style="stop-color:#00A3BF;stop-opacity:0.969"/>
	<stop  offset="0.26" style="stop-color:#00A3BF;stop-opacity:0.878"/>
	<stop  offset="0.43" style="stop-color:#00A3BF;stop-opacity:0.729"/>
	<stop  offset="0.62" style="stop-color:#00A3BF;stop-opacity:0.529"/>
	<stop  offset="0.82" style="stop-color:#00A3BF;stop-opacity:0.271"/>
	<stop  offset="1" style="stop-color:#00A3BF;stop-opacity:0"/>
</linearGradient>
<rect x="242.72" y="339.05" class="st61" width="56.58" height="345.87"/>
<linearGradient id="SVGID_47_" gradientUnits="userSpaceOnUse" x1="-188.2558" y1="884.4138" x2="-186.6631" y2="884.4138" gradientTransform="matrix(128.135 0 0 -97.786 24158.0449 87233.2578)">
	<stop  offset="0.33" style="stop-color:#FF991F"/>
	<stop  offset="1" style="stop-color:#FFC400"/>
</linearGradient>
<path class="st62" d="M239.97,672.09H35.88l30.69,137.43c0,10.08,32.07,18.32,71.47,18.32s71.47-8.25,71.47-18.32v-0.23
	L239.97,672.09z"/>
<linearGradient id="SVGID_48_" gradientUnits="userSpaceOnUse" x1="-189.018" y1="884.3287" x2="-186.3231" y2="884.5867" gradientTransform="matrix(104.694 0 0 -78.372 19896.0977 70071.4297)">
	<stop  offset="0.08" style="stop-color:#FF8B00;stop-opacity:0"/>
	<stop  offset="0.14" style="stop-color:#FF8B00;stop-opacity:0.02"/>
	<stop  offset="0.22" style="stop-color:#FF8B00;stop-opacity:0.078"/>
	<stop  offset="0.3" style="stop-color:#FF8B00;stop-opacity:0.188"/>
	<stop  offset="0.39" style="stop-color:#FF8B00;stop-opacity:0.329"/>
	<stop  offset="0.49" style="stop-color:#FF8B00;stop-opacity:0.51"/>
	<stop  offset="0.59" style="stop-color:#FF8B00;stop-opacity:0.741"/>
	<stop  offset="0.69" style="stop-color:#FF8B00"/>
	<stop  offset="0.7" style="stop-color:#FF8B00"/>
</linearGradient>
<path class="st63" d="M66.58,809.75c0,10.08,32.07,18.32,71.47,18.32s71.47-8.25,71.47-18.32v-0.23l0,0
	c-2.24-14.96-9.42-28.75-20.39-39.17c-15.58-14.89-26.11-9.62-48.79-25.88c-8.25-5.96-22.91-16.72-29.78-32.07
	c-28.16-1.37-52.22-4.58-67.79-9.16L66.58,809.75z"/>
<path class="st64" d="M233.1,703.7l7.1-31.38H35.88l6.87,30.69c15.58,4.58,39.63,7.79,67.8,9.16c9.4,0.46,19.47,0.69,29.78,0.69
	C178.12,712.63,211.8,708.97,233.1,703.7z"/>
<ellipse transform="matrix(2.618018e-03 -1 1 2.618018e-03 -541.2178 819.6097)" class="st65" cx="140.27" cy="681.12" rx="22.22" ry="116.36"/>
<ellipse transform="matrix(2.618018e-03 -1 1 2.618018e-03 -540.8481 819.152)" class="st65" cx="140.23" cy="680.71" rx="22.22" ry="116.36"/>
<ellipse transform="matrix(2.618018e-03 -1 1 2.618018e-03 -540.48 818.696)" class="st65" cx="140.18" cy="680.3" rx="22.22" ry="116.36"/>
<ellipse transform="matrix(2.618018e-03 -1 1 2.618018e-03 -540.1105 818.2829)" class="st65" cx="140.16" cy="679.9" rx="22.22" ry="116.36"/>
<ellipse transform="matrix(2.618018e-03 -1 1 2.618018e-03 -539.5136 818.0562)" class="st65" cx="140.34" cy="679.49" rx="22.22" ry="116.36"/>
<ellipse transform="matrix(2.618018e-03 -1 1 2.618018e-03 -539.1456 817.6002)" class="st65" cx="140.3" cy="679.08" rx="22.22" ry="116.36"/>
<ellipse transform="matrix(2.618018e-03 -1 1 2.618018e-03 -538.7776 817.0964)" class="st65" cx="140.23" cy="678.64" rx="22.22" ry="116.36"/>
<ellipse transform="matrix(2.618018e-03 -1 1 2.618018e-03 -538.4078 816.6388)" class="st65" cx="140.19" cy="678.23" rx="22.22" ry="116.36"/>
<ellipse transform="matrix(2.618018e-03 -1 1 2.618018e-03 -537.9921 816.1829)" class="st65" cx="140.17" cy="677.79" rx="22.22" ry="116.36"/>
<ellipse transform="matrix(2.618018e-03 -1 1 2.618018e-03 -537.3954 816.0007)" class="st65" cx="140.37" cy="677.4" rx="22.22" ry="116.36"/>
<ellipse transform="matrix(2.618018e-03 -1 1 2.618018e-03 -537.0273 815.5446)" class="st65" cx="140.33" cy="676.99" rx="22.22" ry="116.36"/>
<ellipse transform="matrix(2.618018e-03 -1 1 2.618018e-03 -536.6577 815.0869)" class="st65" cx="140.28" cy="676.58" rx="22.22" ry="116.36"/>
<ellipse transform="matrix(2.618018e-03 -1 1 2.618018e-03 -536.2896 814.6277)" class="st65" cx="140.24" cy="676.16" rx="22.22" ry="116.36"/>
<ellipse transform="matrix(2.618018e-03 -1 1 2.618018e-03 -535.9199 814.1255)" class="st65" cx="140.17" cy="675.73" rx="22.22" ry="116.36"/>
<ellipse transform="matrix(2.618018e-03 -1 1 2.618018e-03 -535.5519 813.6696)" class="st65" cx="140.13" cy="675.31" rx="22.22" ry="116.36"/>
<ellipse transform="matrix(2.618018e-03 -1 1 2.618018e-03 -534.9552 813.4874)" class="st65" cx="140.33" cy="674.92" rx="22.22" ry="116.36"/>
<ellipse transform="matrix(2.618018e-03 -1 1 2.618018e-03 -534.541 813.0299)" class="st65" cx="140.31" cy="674.49" rx="22.22" ry="116.36"/>
<ellipse transform="matrix(2.618018e-03 -1 1 2.618018e-03 -534.1714 812.5723)" class="st65" cx="140.27" cy="674.07" rx="22.22" ry="116.36"/>
<ellipse transform="matrix(2.618018e-03 -1 1 2.618018e-03 -533.8033 812.1161)" class="st65" cx="140.22" cy="673.66" rx="22.22" ry="116.36"/>
<ellipse transform="matrix(2.618018e-03 -1 1 2.618018e-03 -533.4337 811.614)" class="st65" cx="140.15" cy="673.22" rx="22.22" ry="116.36"/>
<ellipse transform="matrix(2.618018e-03 -1 1 2.618018e-03 -532.8369 811.3841)" class="st65" cx="140.34" cy="672.81" rx="22.22" ry="116.36"/>
<ellipse transform="matrix(2.618018e-03 -1 1 2.618018e-03 -532.4673 810.9742)" class="st65" cx="140.32" cy="672.42" rx="22.22" ry="116.36"/>
<ellipse transform="matrix(2.618018e-03 -1 1 2.618018e-03 -532.0993 810.5182)" class="st65" cx="140.27" cy="672.01" rx="22.22" ry="116.36"/>
<ellipse transform="matrix(2.618018e-03 -1 1 2.618018e-03 -531.7296 810.0606)" class="st65" cx="140.23" cy="671.59" rx="22.22" ry="116.36"/>
<ellipse transform="matrix(2.618018e-03 -1 1 2.618018e-03 -531.3615 809.6014)" class="st65" cx="140.18" cy="671.18" rx="22.22" ry="116.36"/>
<ellipse transform="matrix(2.618018e-03 -1 1 2.618018e-03 -530.9457 809.1008)" class="st65" cx="140.14" cy="670.72" rx="22.22" ry="116.36"/>
<ellipse transform="matrix(2.618018e-03 -1 1 2.618018e-03 -530.3506 808.8725)" class="st65" cx="140.32" cy="670.31" rx="22.22" ry="116.36"/>
<ellipse transform="matrix(2.618018e-03 -1 1 2.618018e-03 -529.9825 808.4611)" class="st65" cx="140.3" cy="669.92" rx="22.22" ry="116.36"/>
<ellipse transform="matrix(2.618018e-03 -1 1 2.618018e-03 -529.6129 808.0034)" class="st65" cx="140.25" cy="669.5" rx="22.22" ry="116.36"/>
<ellipse transform="matrix(2.618018e-03 -1 1 2.618018e-03 -529.2433 807.5457)" class="st65" cx="140.21" cy="669.09" rx="22.22" ry="116.36"/>
<ellipse transform="matrix(2.618018e-03 -1 1 2.618018e-03 -528.8752 807.0898)" class="st65" cx="140.17" cy="668.68" rx="22.22" ry="116.36"/>
<ellipse transform="matrix(2.618018e-03 -1 1 2.618018e-03 -528.2767 806.8169)" class="st65" cx="140.33" cy="668.24" rx="22.22" ry="116.36"/>
<ellipse transform="matrix(2.618018e-03 -1 1 2.618018e-03 -527.9103 806.3593)" class="st65" cx="140.28" cy="667.83" rx="22.22" ry="116.36"/>
<ellipse transform="matrix(2.618018e-03 -1 1 2.618018e-03 -527.5392 805.9479)" class="st65" cx="140.26" cy="667.43" rx="22.22" ry="116.36"/>
<ellipse transform="matrix(2.618018e-03 -1 1 2.618018e-03 -527.125 805.4902)" class="st65" cx="140.24" cy="667" rx="22.22" ry="116.36"/>
<ellipse transform="matrix(2.618018e-03 -1 1 2.618018e-03 -526.7569 805.0342)" class="st65" cx="140.19" cy="666.59" rx="22.22" ry="116.36"/>
<ellipse transform="matrix(2.618018e-03 -1 1 2.618018e-03 -526.3873 804.5765)" class="st65" cx="140.15" cy="666.17" rx="22.22" ry="116.36"/>
<ellipse transform="matrix(2.618018e-03 -1 1 2.618018e-03 -525.7905 804.3022)" class="st65" cx="140.31" cy="665.74" rx="22.22" ry="116.36"/>
<ellipse transform="matrix(2.618018e-03 -1 1 2.618018e-03 -525.4224 803.8461)" class="st65" cx="140.27" cy="665.32" rx="22.22" ry="116.36"/>
<ellipse transform="matrix(2.618018e-03 -1 1 2.618018e-03 -525.0529 803.3885)" class="st65" cx="140.22" cy="664.91" rx="22.22" ry="116.36"/>
<ellipse transform="matrix(2.618018e-03 -1 1 2.618018e-03 -524.6848 802.9769)" class="st65" cx="140.2" cy="664.52" rx="22.22" ry="116.36"/>
<ellipse transform="matrix(2.618018e-03 -1 1 2.618018e-03 -524.3152 802.5194)" class="st65" cx="140.15" cy="664.1" rx="22.22" ry="116.36"/>
<ellipse transform="matrix(2.618018e-03 -1 1 2.618018e-03 -523.6738 802.2927)" class="st65" cx="140.36" cy="663.67" rx="22.22" ry="116.36"/>
<ellipse transform="matrix(2.618018e-03 -1 1 2.618018e-03 -523.3041 801.7906)" class="st65" cx="140.29" cy="663.23" rx="22.22" ry="116.36"/>
<ellipse transform="matrix(2.618018e-03 -1 1 2.618018e-03 -522.9345 801.3329)" class="st65" cx="140.25" cy="662.82" rx="22.22" ry="116.36"/>
<ellipse transform="matrix(2.618018e-03 -1 1 2.618018e-03 -522.5665 800.8768)" class="st65" cx="140.2" cy="662.41" rx="22.22" ry="116.36"/>
<ellipse transform="matrix(2.618018e-03 -1 1 2.618018e-03 -522.1969 800.4638)" class="st65" cx="140.18" cy="662.01" rx="22.22" ry="116.36"/>
<ellipse transform="matrix(2.618018e-03 -1 1 2.618018e-03 -521.6001 800.237)" class="st65" cx="140.37" cy="661.6" rx="22.22" ry="116.36"/>
<ellipse transform="matrix(2.618018e-03 -1 1 2.618018e-03 -521.2305 799.7795)" class="st65" cx="140.32" cy="661.19" rx="22.22" ry="116.36"/>
<ellipse transform="matrix(2.618018e-03 -1 1 2.618018e-03 -520.8624 799.2757)" class="st65" cx="140.25" cy="660.75" rx="22.22" ry="116.36"/>
<ellipse transform="matrix(2.618018e-03 -1 1 2.618018e-03 -520.4944 798.8196)" class="st65" cx="140.21" cy="660.34" rx="22.22" ry="116.36"/>
<path class="st65" d="M256.69,660.41v-0.23c0-12.37-52.22-22.22-116.36-21.99S23.74,648.27,23.97,660.64v22.91
	c0,12.37,52.22,22.22,116.36,21.99s116.36-10.31,116.36-22.68L256.69,660.41L256.69,660.41z"/>
<ellipse transform="matrix(2.618018e-03 -1 1 2.618018e-03 -520.133 799.8301)" class="st64" cx="140.9" cy="660.66" rx="21.3" ry="111.78"/>
<g>
	<defs>
		
			<ellipse id="SVGID_49_" transform="matrix(2.618018e-03 -1 1 2.618018e-03 -520.1329 799.8301)" cx="140.9" cy="660.66" rx="21.3" ry="111.78"/>
	</defs>
	<clipPath id="SVGID_50_">
		<use xlink:href="#SVGID_49_"  style="overflow:visible;"/>
	</clipPath>
	<g transform="translate(1015.194 554.909)" class="st66">
		
			<ellipse transform="matrix(2.618018e-03 -1 1 2.618018e-03 -996.4132 -750.1284)" class="st40" cx="-874.25" cy="124.45" rx="21.3" ry="111.78"/>
	</g>
</g>
<linearGradient id="SVGID_51_" gradientUnits="userSpaceOnUse" x1="-191.4826" y1="885.6727" x2="-189.5951" y2="884.494" gradientTransform="matrix(85.3622 0 0 -158.0512 16432.9219 140407.0625)">
	<stop  offset="0.09" style="stop-color:#0049B0"/>
	<stop  offset="0.53" style="stop-color:#0052CC"/>
	<stop  offset="1" style="stop-color:#0049B0"/>
</linearGradient>
<path class="st67" d="M249.82,558.25c-10.54,11.45-19.47,11.68-21.3,20.84c-2.06,10.77,9.4,15.12,10.54,27.03
	c2.29,24.74-42.6,46.73-47.41,49.25c-22.68,10.77-51.54,16.26-55.43,8.48c-3.66-7.1,19.24-16.72,19.7-36.42
	c0.46-22.68-29.32-33.9-24.74-50.62c2.52-9.4,12.14-6.87,19.47-18.32c13.97-21.76-8.25-50.85,3.89-61.62
	c7.56-6.87,18.1,2.75,27.49-4.35c11.68-8.93,0.23-27.71,10.99-49.25c8.48-16.95,28.63-31.38,41.92-26.57
	c10.99,3.89,15.58,19.93,16.49,30.24c1.37,18.78-10.54,25.65-6.18,38.94c3.89,11.91,14.2,9.62,19.24,21.76
	C271.12,523.43,261.5,545.42,249.82,558.25z"/>
<linearGradient id="SVGID_52_" gradientUnits="userSpaceOnUse" x1="-191.0228" y1="885.3895" x2="-191.0228" y2="883.7984" gradientTransform="matrix(82.5464 0 0 -161.5218 15845.832 143482.0469)">
	<stop  offset="0" style="stop-color:#0065FF"/>
	<stop  offset="1" style="stop-color:#0052CC"/>
</linearGradient>
<path class="st68" d="M26.03,561.91c9.62,12.14,18.55,13.29,19.7,22.45c1.37,10.99-10.54,14.2-12.6,26.34
	c-4.12,24.51,38.94,49.71,43.75,52.45c21.76,12.37,50.16,19.93,54.74,12.6c4.12-6.87-17.87-18.1-16.95-37.79
	c1.15-22.68,31.61-31.61,28.4-48.56c-1.83-9.62-11.45-7.79-18.1-19.7c-12.37-22.68,11.91-50.16,0.46-61.85
	c-7.1-7.33-18.1,1.37-27.03-6.41c-10.99-9.62,1.83-27.71-7.56-49.93C83.53,434.1,64.74,418.06,51,421.96
	c-11.22,3.21-17.18,18.78-18.55,29.09c-2.75,18.78,8.7,26.34,3.21,39.4c-4.81,11.45-14.89,8.7-20.84,20.16
	C7.25,525.72,15.27,548.41,26.03,561.91z"/>
<linearGradient id="SVGID_53_" gradientUnits="userSpaceOnUse" x1="-195.5049" y1="885.2339" x2="-193.9105" y2="885.2339" gradientTransform="matrix(56.484 0 0 -45.9308 11182.9971 41296.2305)">
	<stop  offset="0" style="stop-color:#0065FF"/>
	<stop  offset="1" style="stop-color:#0052CC"/>
</linearGradient>
<path class="st69" d="M201.72,653.54c-6.18,1.37-9.16-0.46-11.91,2.06c-3.21,3.21-0.23,7.1-2.52,11.45
	c-4.81,8.7-24.74,5.96-26.8,5.5c-9.85-1.6-20.62-6.41-20.39-9.62c0.23-3.21,10.08-1.15,14.65-7.56c5.27-7.33-2.06-17.87,3.21-22.45
	c2.98-2.52,5.5,0.46,10.54-1.6c9.62-4.12,8.7-18.78,15.35-19.47c4.12-0.46,5.27,5.04,10.08,4.81c5.96-0.23,6.41-9.16,14.89-13.74
	c6.64-3.66,16.49-3.89,19.93,0.69c2.75,3.66,0.69,10.08-1.37,13.74c-3.89,6.64-9.4,5.96-10.99,11.45
	c-1.37,4.81,2.52,6.41,1.37,11.45C216.61,646.89,208.59,651.93,201.72,653.54z"/>
<linearGradient id="SVGID_54_" gradientUnits="userSpaceOnUse" x1="-191.0133" y1="885.0597" x2="-192.3544" y2="882.1354" gradientTransform="matrix(78.841 0 0 -178.5698 15215.5801 158552.4844)">
	<stop  offset="0" style="stop-color:#0049B0"/>
	<stop  offset="0.364" style="stop-color:#0065FF"/>
	<stop  offset="1" style="stop-color:#0065FF"/>
</linearGradient>
<path class="st70" d="M189.58,546.34c1.83,13.74,9.16,12.14,12.83,27.26c7.33,30.24-15.58,59.55-25.65,72.15
	c-13.74,17.64-27.03,34.59-43.52,32.76c-19.47-2.29-35.5-30.24-35.5-53.14c0-18.32,10.31-24.28,6.18-40.08
	c-4.35-17.41-21.53-19.01-21.76-32.3c-0.23-12.37,14.2-13.51,19.7-30.46c6.18-19.47-9.4-29.55-2.06-45.58
	c6.18-13.97,19.7-10.31,25.88-24.51c7.1-16.03-7.1-27.26,0.23-42.15c5.27-10.54,18.55-16.49,29.55-16.03
	c19.01,0.46,34.36,19.24,35.96,35.27c1.6,16.72-12.83,26.11-7.56,38.7c4.81,10.99,17.64,7.56,22.45,17.64
	C214.32,501.44,185.68,518.62,189.58,546.34z"/>
<linearGradient id="SVGID_55_" gradientUnits="userSpaceOnUse" x1="-193.3664" y1="885.6946" x2="-193.3664" y2="884.1019" gradientTransform="matrix(63.999 0 0 -178.5759 12524.4082 158557.75)">
	<stop  offset="0" style="stop-color:#0049B0"/>
	<stop  offset="0.14" style="stop-color:#004FC1"/>
	<stop  offset="0.45" style="stop-color:#005BE3"/>
	<stop  offset="0.72" style="stop-color:#0062F7"/>
	<stop  offset="0.89" style="stop-color:#0065FF"/>
</linearGradient>
<path class="st71" d="M154.53,443.72l3.66-49.48c-0.92,0-1.6-0.23-2.52-0.23h-2.06l-3.66,49.71l-21.07-37.79
	c-1.07,1.26-1.99,2.65-2.75,4.12v0.23l23.36,41.69l-3.44,48.56l-24.05-42.37c-1.09,1.13-2.23,2.19-3.44,3.2l26.57,47.87l-6.18,83.38
	l-37.8-68.03c-0.7,1.75-1.54,3.43-2.52,5.04l39.86,71.46l-5.04,70.56l-33.67-60.01c-0.69,2.29-1.15,4.35-1.6,6.64l33.45,59.78
	l1.83,0.23c1.44,0.23,2.91,0.23,4.35,0l57.03-59.55c2.08-3.9,3.85-7.96,5.27-12.14l-62.07,64.83l5.26-71.92l47.19-49.25
	c-0.41-1.35-0.72-2.73-0.92-4.12c0.02-0.54-0.06-1.09-0.23-1.6l-45.81,47.65l6.18-84.52l35.73-37.34c-0.68-0.87-1.16-1.89-1.37-2.98
	c-0.29-0.49-0.45-1.04-0.46-1.6l-33.21,34.58l3.66-49.93l33.45-34.82c-0.76-1.42-1.6-2.8-2.53-4.12L154.53,443.72z"/>
<circle class="st72" cx="256.92" cy="327.13" r="3.89"/>
<circle class="st73" cx="269.75" cy="327.13" r="3.89"/>
<circle class="st19" cx="282.57" cy="327.13" r="3.89"/>
<linearGradient id="SVGID_56_" gradientUnits="userSpaceOnUse" x1="-201.6095" y1="886.3969" x2="-199.9386" y2="886.3969" gradientTransform="matrix(60.3419 0 0 -95.3926 12013.4199 84796.8203)">
	<stop  offset="0" style="stop-color:#00B8D9"/>
	<stop  offset="0.08" style="stop-color:#00B5D6"/>
	<stop  offset="0.61" style="stop-color:#00A8C5"/>
	<stop  offset="1" style="stop-color:#00A3BF"/>
</linearGradient>
<path class="st74" d="M370.99,165.88c12.59,1.77,24.46,6.91,34.36,14.89c24.05,18.1,29.78,45.12,32.53,57.95
	c7.79,35.73-3.44,65.05-9.62,78.34c4.58-17.41,2.06-29.09-3.44-37.11c-5.5-8.02-12.37-9.62-19.01-18.1
	c-8.02-10.31-9.62-23.13-8.02-36.42c-6.11-2.54-11.94-5.69-17.41-9.4c-16.93-11.86-29.56-28.9-35.96-48.55
	C353.05,165.02,362.12,164.48,370.99,165.88z"/>
<linearGradient id="SVGID_57_" gradientUnits="userSpaceOnUse" x1="-188.8087" y1="885.0443" x2="-190.4046" y2="885.0443" gradientTransform="matrix(58.2431 0 0 -73.343 11964.2148 65531.875)">
	<stop  offset="0" style="stop-color:#00C7E5"/>
	<stop  offset="1" style="stop-color:#00A3BF"/>
</linearGradient>
<path class="st75" d="M910.9,637.65c15.53-0.23,28.35-12.23,29.59-27.71c-12.81-1.83-21.64-14.2-19.88-27.49
	c1.53-12.94,13.26-22.18,26.2-20.65c0.1,0.01,0.2,0.02,0.31,0.04c12.81,1.83,21.64,14.2,19.88,27.49
	c-1.31,10.52-9.41,18.92-19.88,20.61c-1.55,19.47-17.45,34.59-36.22,34.59c-16.34,0-29.82,13.97-29.82,30.92
	c-0.18,1.83-1.81,3.17-3.64,2.99c-1.58-0.16-2.83-1.41-2.99-2.99C874.46,654.6,890.81,637.65,910.9,637.65z M960.82,585.89
	c-0.34-9.27-8.13-16.51-17.4-16.17c-9.27,0.34-16.51,8.13-16.17,17.4c0.33,9.03,7.75,16.19,16.79,16.19l0,0
	C953.31,603.29,960.6,595.51,960.82,585.89z"/>
<linearGradient id="SVGID_58_" gradientUnits="userSpaceOnUse" x1="-188.9197" y1="882.132" x2="-188.7222" y2="884.7489" gradientTransform="matrix(71.042 0 0 -68.6173 14226.7354 61285.4766)">
	<stop  offset="0" style="stop-color:#00C7E5"/>
	<stop  offset="1" style="stop-color:#00A3BF"/>
</linearGradient>
<path class="st76" d="M774.81,459.53c-0.02,27.43,22.19,49.68,49.62,49.71c0.03,0,0.06,0,0.09,0c31.22,0.07,56.51,25.36,56.58,56.58
	c-0.25,1.9-2,3.23-3.89,2.98c-1.55-0.21-2.77-1.43-2.98-2.98c0.02-27.43-22.19-49.68-49.62-49.71c-0.03,0-0.06,0-0.09,0
	c-31.22-0.07-56.51-25.36-56.58-56.58H774.81z"/>
<linearGradient id="SVGID_59_" gradientUnits="userSpaceOnUse" x1="-186.5145" y1="884.9303" x2="-186.5145" y2="883.3375" gradientTransform="matrix(97.5 0 0 -74.493 19061.2188 66662.3906)">
	<stop  offset="0.33" style="stop-color:#FF991F"/>
	<stop  offset="1" style="stop-color:#FFC400"/>
</linearGradient>
<path class="st77" d="M953.7,741.26H798.4l23.36,104.68c0,7.79,24.28,13.97,54.52,13.97c30.24,0,54.52-6.18,54.52-13.97v-0.23
	L953.7,741.26z"/>
<path class="st64" d="M896.67,842.73c-21.76-3.21-36.42-23.36-43.98-33.9c-16.95-23.36-11.22-34.36-26.8-50.16
	c-7.32-7.59-16.24-13.46-26.11-17.18h-1.6l23.36,104.68c0,7.79,24.28,13.97,54.52,13.97c30.24,0,54.52-6.18,54.52-13.97v-0.23
	l2.06-9.16C926.22,834.72,914.54,845.48,896.67,842.73z"/>
<ellipse transform="matrix(1 -2.617982e-03 2.617982e-03 1 -1.937 2.296)" class="st39" cx="876.06" cy="741.04" rx="77.65" ry="14.89"/>
<g>
	<defs>
		
			<ellipse id="SVGID_60_" transform="matrix(1 -2.617982e-03 2.617982e-03 1 -1.937 2.296)" cx="876.06" cy="741.04" rx="77.65" ry="14.89"/>
	</defs>
	<clipPath id="SVGID_61_">
		<use xlink:href="#SVGID_60_"  style="overflow:visible;"/>
	</clipPath>
	<g transform="translate(1498.198 609.454)" class="st78">
		
			<ellipse transform="matrix(1 -2.617982e-03 2.617982e-03 1 -0.3808 -1.6283)" class="st40" cx="-622.14" cy="144.64" rx="77.65" ry="14.89"/>
	</g>
</g>
<linearGradient id="SVGID_62_" gradientUnits="userSpaceOnUse" x1="-186.7634" y1="884.7806" x2="-185.1707" y2="884.7806" gradientTransform="matrix(109.296 0 0 -330.3132 21203.3535 292733)">
	<stop  offset="0" style="stop-color:#00C7E5"/>
	<stop  offset="1" style="stop-color:#00A3BF"/>
</linearGradient>
<path class="st79" d="M964.93,302.4c0.09-48.07-38.8-87.12-86.87-87.21c-48.07-0.09-87.12,38.8-87.21,86.87
	c-0.09,46.8,36.84,85.29,83.6,87.14v348.17c-0.25,1.9,1.08,3.64,2.98,3.89c1.9,0.25,3.64-1.08,3.89-2.98V389.44
	C928.05,387.58,964.95,349.15,964.93,302.4z M877.89,382.57c-44.28,0-80.17-35.89-80.17-80.17s35.89-80.17,80.17-80.17
	c44.28,0,80.17,35.89,80.17,80.17v0C958.01,346.65,922.15,382.52,877.89,382.57z"/>
<path class="st19" d="M868.72,604.75c9.4,9.4,8.7,25.2,8.7,25.2s-15.8,0.46-25.2-8.93c-9.39-9.39-8.71-25.43-8.71-25.43
	S859.33,595.36,868.72,604.75z"/>
<path class="st19" d="M916.69,631.18c-3.97,6.88-13.21,8.93-13.21,8.93s-2.71-9.06,1.26-15.94c3.97-6.88,13.34-8.97,13.34-8.97
	S920.66,624.3,916.69,631.18z"/>
<path class="st19" d="M951.71,619.58c7.74-1.79,15.54,3.57,15.54,3.57s-4.78,8.16-12.52,9.95c-7.74,1.79-15.66-3.65-15.66-3.65
	S943.97,621.37,951.71,619.58z"/>
<path class="st24" d="M843.53,595.81v3.44l30.46,30.69h3.44v-3.44l-30.46-30.69H843.53z"/>
<path class="st24" d="M917.94,615.23l-1.98,0.53l-13.02,22.36l0.53,1.98l1.98-0.53l13.02-22.36L917.94,615.23z"/>
<path class="st24" d="M939.19,629.53l1.74,1.09l25.23-5.72l1.09-1.74l-1.74-1.09l-25.23,5.72L939.19,629.53z"/>
<linearGradient id="SVGID_63_" gradientUnits="userSpaceOnUse" x1="-187.8823" y1="886.3105" x2="-186.2879" y2="886.3105" gradientTransform="matrix(87.436 0 0 -87.436 17235.4609 77797.3828)">
	<stop  offset="0" style="stop-color:#0049B0"/>
	<stop  offset="1" style="stop-color:#0052CC"/>
</linearGradient>
<circle class="st80" cx="877.42" cy="301.94" r="69.63"/>
<ellipse class="st81" cx="944.25" cy="585.88" rx="11.71" ry="12.14"/>
<path class="st19" d="M886.13,487.47c-9.4,9.4-8.7,25.43-8.7,25.43s15.8,0.46,25.2-8.93c9.39-9.39,8.7-25.43,8.7-25.43
	S895.29,477.85,886.13,487.47z"/>
<path class="st24" d="M911.33,478.31c-1.07,0.02-2.14,0.09-3.21,0.23l-30.46,30.69v3.44c0,0,1.37,0,3.44-0.23l30.46-30.69
	C911.33,479.68,911.33,478.31,911.33,478.31z"/>
<path class="st19" d="M835.51,489.08c7.33,10.99,3.66,26.57,3.66,26.57s-15.58-2.52-23.13-13.51c-7.56-10.99-3.66-26.57-3.66-26.57
	S828.18,478.08,835.51,489.08z"/>
<path class="st24" d="M815.81,476.25c-2.06-0.46-3.21-0.69-3.21-0.69s-0.23,1.37-0.46,3.44l24.05,35.96
	c1.15,0.23,2.06,0.46,3.21,0.69c0,0,0.23-1.37,0.46-3.44L815.81,476.25z"/>
<path class="st19" d="M787.41,513.58c10.77-7.79,26.34-4.58,26.34-4.58s-2.06,15.8-12.83,23.36c-10.77,7.56-26.34,4.58-26.34,4.58
	S776.42,521.37,787.41,513.58z"/>
<path class="st24" d="M813.75,509c0,0-1.37-0.23-3.44-0.46l-35.27,25.2c-0.23,1.15-0.46,2.06-0.69,3.21
	c1.13,0.27,2.28,0.42,3.44,0.46l35.27-25.2C813.29,511.06,813.52,510.15,813.75,509z"/>
<linearGradient id="SVGID_64_" gradientUnits="userSpaceOnUse" x1="-193.1602" y1="884.6066" x2="-191.5675" y2="884.6066" gradientTransform="matrix(43.7487 0 0 -44.4465 9328.3711 40032.25)">
	<stop  offset="0" style="stop-color:#00A3BF"/>
	<stop  offset="0.39" style="stop-color:#00A8C5"/>
	<stop  offset="0.92" style="stop-color:#00B5D6"/>
	<stop  offset="1" style="stop-color:#00B8D9"/>
</linearGradient>
<path class="st82" d="M929.65,731.42c19.24-19.47,17.87-52.22,17.87-52.22s-32.53-0.92-51.76,18.55
	c-19.24,19.47-17.87,52.22-17.87,52.22S910.41,750.89,929.65,731.42z"/>
<path class="st19" d="M947.52,679.42h-3.21l-66.42,67.11v3.44h3.21l66.42-67.34L947.52,679.42z"/>
<linearGradient id="SVGID_65_" gradientUnits="userSpaceOnUse" x1="-190.6238" y1="886.8994" x2="-189.0199" y2="888.4778" gradientTransform="matrix(43.7438 0 0 -44.4465 9284.041 40032.2773)">
	<stop  offset="0" style="stop-color:#00B8D9"/>
	<stop  offset="0.08" style="stop-color:#00B5D6"/>
	<stop  offset="0.61" style="stop-color:#00A8C5"/>
	<stop  offset="1" style="stop-color:#00A3BF"/>
</linearGradient>
<path class="st83" d="M826.58,731.42c-19.24-19.47-17.87-52.23-17.87-52.23s32.53-0.92,51.76,18.55
	c19.24,19.47,17.87,52.22,17.87,52.22S845.82,750.89,826.58,731.42z"/>
<path class="st19" d="M808.71,679.42v3.21l66.42,67.34h3.21v-3.44l-66.42-67.11C810.85,679.27,809.78,679.27,808.71,679.42z"/>
<path class="st6" d="M393.21,391.04l-21.3,21.3l-10.54-10.54l-26.11,25.88h94.6L393.21,391.04z M346.48,423.11l14.89-14.89
	l7.33,7.33l-6.41,6.41l-1.15,1.15L346.48,423.11z M375.11,415.55l18.1-18.1l25.43,25.65h-51.08L375.11,415.55z"/>
<linearGradient id="SVGID_66_" gradientUnits="userSpaceOnUse" x1="-232.1753" y1="894.6838" x2="-232.1753" y2="893.0911" gradientTransform="matrix(14.094 0 0 -14.094 3542.9419 12970.25)">
	<stop  offset="0.33" style="stop-color:#FF991F"/>
	<stop  offset="1" style="stop-color:#FFC400"/>
</linearGradient>
<circle class="st84" cx="270.66" cy="371.8" r="11.22"/>
<linearGradient id="SVGID_67_" gradientUnits="userSpaceOnUse" x1="-232.1753" y1="893.8129" x2="-232.1753" y2="892.2201" gradientTransform="matrix(14.094 0 0 -14.094 3542.9419 12990.959)">
	<stop  offset="0.33" style="stop-color:#FF991F"/>
	<stop  offset="1" style="stop-color:#FFC400"/>
</linearGradient>
<circle class="st85" cx="270.66" cy="404.78" r="11.22"/>
<linearGradient id="SVGID_68_" gradientUnits="userSpaceOnUse" x1="-290.6409" y1="912.2443" x2="-289.0434" y2="912.2443" gradientTransform="matrix(5.752 0 0 -5.752 2182.314 5545.731)">
	<stop  offset="0" style="stop-color:#FFFFFF;stop-opacity:0.8"/>
	<stop  offset="0.07" style="stop-color:#FFFFFF;stop-opacity:0.678"/>
	<stop  offset="0.18" style="stop-color:#FFFFFF;stop-opacity:0.502"/>
	<stop  offset="0.31" style="stop-color:#FFFFFF;stop-opacity:0.349"/>
	<stop  offset="0.43" style="stop-color:#FFFFFF;stop-opacity:0.22"/>
	<stop  offset="0.56" style="stop-color:#FFFFFF;stop-opacity:0.122"/>
	<stop  offset="0.69" style="stop-color:#FFFFFF;stop-opacity:0.051"/>
	<stop  offset="0.83" style="stop-color:#FFFFFF;stop-opacity:0.012"/>
	<stop  offset="1" style="stop-color:#FFFFFF;stop-opacity:0"/>
</linearGradient>
<circle class="st86" cx="515.06" cy="298.5" r="4.58"/>
<rect x="669.45" y="451.51" class="st33" width="88.64" height="4.58"/>
<rect x="669.45" y="464.11" class="st33" width="88.64" height="4.58"/>
<rect x="669.45" y="476.48" class="st33" width="58.87" height="4.58"/>
<path class="st33" d="M499.95,439.83l-20.39,8.25c-2.45,0.96-3.68,3.72-2.75,6.18l0,0l8.25,20.39c0.96,2.45,3.72,3.68,6.18,2.75l0,0
	l5.04-2.06l5.96,3.66c0.88,0.51,2.01,0.2,2.52-0.68c0,0,0,0,0-0.01c0-0.23,0.23-0.23,0.23-0.46l1.6-6.87l5.04-2.06
	c2.51-1.04,3.73-3.88,2.75-6.41l-8.25-20.39c-0.99-2.31-3.65-3.38-5.96-2.39C500.09,439.76,500.02,439.79,499.95,439.83z"/>
<path class="st33" d="M413.59,352.33l-20.39,8.25c-2.45,0.96-3.68,3.72-2.75,6.18l0,0l8.25,20.39c0.91,2.45,3.64,3.7,6.1,2.78
	c0.03-0.01,0.06-0.02,0.09-0.03l0,0l5.04-2.06l5.96,3.66c0.84,0.46,1.89,0.27,2.52-0.46c0.02-0.17,0.1-0.34,0.23-0.46l1.6-6.87
	l5.04-2.06c2.45-0.96,3.68-3.72,2.75-6.18l0,0l-8.02-20.39C418.97,352.57,416.12,351.35,413.59,352.33z"/>
<linearGradient id="SVGID_69_" gradientUnits="userSpaceOnUse" x1="-207.0135" y1="883.7302" x2="-205.5641" y2="882.5276" gradientTransform="matrix(19.8469 0 0 -23.9247 4678.8481 21666.1426)">
	<stop  offset="0" style="stop-color:#FF991F"/>
	<stop  offset="0.23" style="stop-color:#FFA01A"/>
	<stop  offset="0.56" style="stop-color:#FFB40C"/>
	<stop  offset="0.77" style="stop-color:#FFC400"/>
</linearGradient>
<path class="st87" d="M427.8,353.7h-21.99c-2.59-0.06-4.75,1.99-4.81,4.58c0,0.08,0,0.15,0,0.23l0,0v21.99
	c-0.06,2.59,1.99,4.75,4.58,4.81c0.08,0,0.15,0,0.23,0h5.5l4.12,5.73c0.59,0.8,1.69,1,2.52,0.46c0.23,0,0.23-0.23,0.46-0.46
	l3.89-5.73h5.5c2.65-0.02,4.79-2.16,4.81-4.81v-21.99C432.43,355.93,430.38,353.88,427.8,353.7z"/>
<linearGradient id="SVGID_70_" gradientUnits="userSpaceOnUse" x1="-208.7436" y1="885.3144" x2="-207.3053" y2="884.1119" gradientTransform="matrix(19.9918 0 0 -23.9247 4759.4302 21721.0781)">
	<stop  offset="0" style="stop-color:#FF991F"/>
	<stop  offset="0.22" style="stop-color:#FFA01A"/>
	<stop  offset="0.55" style="stop-color:#FFB40C"/>
	<stop  offset="0.76" style="stop-color:#FFC400"/>
</linearGradient>
<path class="st88" d="M514.15,441.2h-21.99c-2.59-0.06-4.75,1.99-4.81,4.58c0,0.08,0,0.15,0,0.23l0,0V468
	c-0.06,2.59,1.99,4.75,4.58,4.81c0.08,0,0.15,0,0.23,0h5.5l4.12,5.73c0.59,0.8,1.69,1,2.52,0.46c0.23,0,0.23-0.23,0.46-0.46
	l4.12-5.73h5.5c2.59,0.06,4.75-1.99,4.81-4.58c0-0.08,0-0.15,0-0.23v-21.99C519.07,443.32,516.84,441.2,514.15,441.2L514.15,441.2z"
	/>
<path class="st89" d="M723.28,189.01h6.64c0,0.46-0.23,0.92-0.23,1.37c-0.04,0.47,0.04,0.94,0.23,1.37c0,0.12,0.1,0.23,0.22,0.23
	c0,0,0.01,0,0.01,0l1.83,0.23c-0.29,0.73-0.68,1.43-1.15,2.06c-0.67,0.66-1.44,1.2-2.29,1.6c-1.26,0.67-2.71,0.91-4.12,0.69
	c-1.88-0.31-3.54-1.39-4.58-2.98c0.46-0.23,0.92-0.23,1.15-0.46c1.01-0.36,1.83-1.1,2.29-2.06L723.28,189.01L723.28,189.01z"/>
<path class="st89" d="M722.82,191.76c2.38,0.46,4.85-0.03,6.87-1.37c0-0.47,0.07-0.93,0.23-1.37c0.47-1.8,1.08-3.56,1.83-5.27
	c0.43-2.73-0.96-5.42-3.44-6.64c-2.3-1.16-5.07-0.9-7.1,0.69c-0.89,0.92-1.6,2.01-2.06,3.21v2.75c-0.23,0.46-0.46,0.69-0.69,1.15
	c-0.46,0.69-0.92,0.69-0.69,0.92c0.23,0.23,0.46,0.46,1.6,0.46c0,0.69,0.23,1.15,0.23,1.6c0.12,0.53,0.2,1.06,0.23,1.6
	C720.3,191.08,722.13,191.54,722.82,191.76z"/>
<g>
	<defs>
		<path id="SVGID_71_" d="M722.82,191.76c2.38,0.46,4.85-0.03,6.87-1.37c0-0.47,0.07-0.93,0.23-1.37c0.47-1.8,1.08-3.56,1.83-5.27
			c0.43-2.73-0.96-5.42-3.44-6.64c-2.3-1.16-5.07-0.9-7.1,0.69c-0.89,0.92-1.6,2.01-2.06,3.21v2.75c-0.23,0.46-0.46,0.69-0.69,1.15
			c-0.46,0.69-0.92,0.69-0.69,0.92c0.23,0.23,0.46,0.46,1.6,0.46c0,0.69,0.23,1.15,0.23,1.6c0.12,0.53,0.2,1.06,0.23,1.6
			C720.3,191.08,722.13,191.54,722.82,191.76z"/>
	</defs>
	<clipPath id="SVGID_72_">
		<use xlink:href="#SVGID_71_"  style="overflow:visible;"/>
	</clipPath>
	<g transform="translate(1447.56 264.419)" class="st90">
		
			<linearGradient id="SVGID_73_" gradientUnits="userSpaceOnUse" x1="-1692.0914" y1="554.6851" x2="-1692.0914" y2="553.1019" gradientTransform="matrix(8.6438 0 0 -8.8038 13904.3965 5579.8696)">
			<stop  offset="0" style="stop-color:#253858;stop-opacity:0.102"/>
			<stop  offset="0.72" style="stop-color:#253858"/>
		</linearGradient>
		<path class="st91" d="M-727.95-84.11c0.46,0.69,2.06,0.69,2.98,0.46c1.6-0.46,2.06-1.37,2.98-1.15c0.45,0.09,0.86,0.33,1.15,0.69
			c0.18,0.59,0.25,1.21,0.23,1.83v0.92c0.23,0.46,0.46,0.23,0.69,0.69s-0.23,1.15,0,1.37c0.23,0.23,0.23,0.23,0.69,0.23l0.69-1.83
			c0.36,0.01,0.7,0.18,0.92,0.46c0.23,0.23-0.23,0.92-0.92,2.52c0,0.23-0.23,0.46-0.23,0.69c0,0.92,0.92,2.29,1.6,2.29
			c1.15,0,2.52-3.44,2.29-6.41c0.09-2.49-1.02-4.87-2.98-6.41c-1.42-0.94-3.12-1.34-4.81-1.15c-1.31-0.01-2.59,0.39-3.66,1.15
			c-1.07,0.72-1.87,1.76-2.29,2.98v1.15c0-0.46,0.23-1.15,0.46-1.15S-728.18-84.56-727.95-84.11z"/>
	</g>
</g>
<path class="st92" d="M690.98,208.03c0.23,0.46,1.15,2.52,2.29,2.29c0.69,0,1.15-0.92,1.15-1.6c0-0.78-0.45-1.49-1.15-1.83
	c-0.92-0.69-2.29-1.37-2.75-0.92C690.06,206.42,690.75,207.34,690.98,208.03z"/>
<path class="st40" d="M708.84,284.07l0.23-0.46c0.69-1.33,1.96-2.26,3.44-2.52l2.29-0.46c0.78-0.21,1.4-0.82,1.6-1.6l0.23-2.75
	l4.58-0.23l0.23,6.87L708.84,284.07z"/>
<g>
	<defs>
		<path id="SVGID_74_" d="M708.84,284.07l0.23-0.46c0.69-1.33,1.96-2.26,3.44-2.52l2.29-0.46c0.78-0.21,1.4-0.82,1.6-1.6l0.23-2.75
			l4.58-0.23l0.23,6.87L708.84,284.07z"/>
	</defs>
	<clipPath id="SVGID_75_">
		<use xlink:href="#SVGID_74_"  style="overflow:visible;"/>
	</clipPath>
	<g transform="translate(1441.99 326.994)" class="st93">
		<rect x="-733.6" y="-46.82" class="st94" width="4.58" height="4.58"/>
		<path class="st94" d="M-732.92-43.61l12.83-1.37v0.69l-13.06,1.37L-732.92-43.61z"/>
	</g>
</g>
<circle class="st94" cx="719.38" cy="279.72" r="0.92"/>
<path class="st40" d="M727.4,282.24l0.23-0.46c0.69-1.33,1.96-2.26,3.44-2.52l2.29-0.46c0.42-0.27,0.74-0.67,0.92-1.15
	c0.19-0.51,0.27-1.06,0.23-1.6l-0.69-1.83l4.35-2.06l2.98,6.41l-8.02,3.44L727.4,282.24z"/>
<g>
	<defs>
		<path id="SVGID_76_" d="M727.4,282.24l0.23-0.46c0.69-1.33,1.96-2.26,3.44-2.52l2.29-0.46c0.42-0.27,0.74-0.67,0.92-1.15
			c0.19-0.51,0.27-1.06,0.23-1.6l-0.69-1.83l4.35-2.06l2.98,6.41l-8.02,3.44L727.4,282.24z"/>
	</defs>
	<clipPath id="SVGID_77_">
		<use xlink:href="#SVGID_76_"  style="overflow:visible;"/>
	</clipPath>
	<g transform="translate(1453.638 324.549)" class="st95">
		<rect x="-726.47" y="-46.2" class="st30" width="4.58" height="4.58"/>
		<path class="st30" d="M-725.78-43l5.27-0.46l7.79-3.44l0.23,0.69l-8.02,3.21l-5.73,0.69L-725.78-43z"/>
		<circle class="st30" cx="-716.39" cy="-49.41" r="0.92"/>
	</g>
</g>
<path class="st92" d="M699.45,196.57c0.23,2.06-4.12,3.44-4.58,3.66s-2.06,0.69-2.52,0c-0.03-0.24-0.11-0.48-0.23-0.69
	c-0.46-1.15-0.46-1.15-0.46-1.6c0-0.46,0.46-0.69,0.69-1.6c0.23-0.92,0-0.92,0.23-1.37c0.46-0.92,1.83-0.92,2.29-0.92
	C696.48,193.82,699.45,194.97,699.45,196.57z"/>
<linearGradient id="SVGID_78_" gradientUnits="userSpaceOnUse" x1="-218.3054" y1="890.0147" x2="-216.7142" y2="890.0147" gradientTransform="matrix(15.1 0 0 -32.215 4013.2185 28921.7715)">
	<stop  offset="0" style="stop-color:#0052CC"/>
	<stop  offset="1" style="stop-color:#4C9AFF"/>
</linearGradient>
<path class="st96" d="M717.09,224.75c-0.23,3.44-0.23,6.64-0.23,10.08c0.03,1.99,0.18,3.98,0.46,5.96l0,0
	c0.67,6.47,2.53,12.76,5.5,18.55l10.54,16.26l7.56-1.37c-2.06-5.5-4.35-10.99-7.1-16.95c-1.6-3.66-3.44-7.1-5.27-10.54l2.06-22.45
	L717.09,224.75z"/>
<linearGradient id="SVGID_79_" gradientUnits="userSpaceOnUse" x1="-214.2846" y1="889.7696" x2="-212.6855" y2="889.7696" gradientTransform="matrix(17.0358 0 0 -33.649 4362.2153 30190.7168)">
	<stop  offset="0" style="stop-color:#4C9AFF"/>
	<stop  offset="1" style="stop-color:#0052CC"/>
</linearGradient>
<path class="st97" d="M734.96,235.05c-4.64,4.88-8.93,10.08-12.83,15.58c0.23,8.93,0.69,17.87,0.92,26.8l-8.48,0.23
	c-0.46-4.58-0.92-9.16-1.15-13.74c-0.46-5.96-1.15-11.68-1.83-17.41c-0.07-0.79,0.09-1.59,0.46-2.29c1.83-3.66,4.12-7.33,6.41-10.99
	c2.29-3.21,4.58-6.18,7.1-9.16h13.06c0.23,2.01-0.01,4.05-0.69,5.96C737.55,231.98,736.5,233.76,734.96,235.05z"/>
<path class="st92" d="M704.95,199.55L704.95,199.55l3.66-1.37l9.4-2.98c2.6-1.41,5.83-0.84,7.79,1.37c0.61,0.87,0.93,1.91,0.92,2.98
	l0,0c-0.1,2.12-1.9,3.77-4.02,3.67c-0.03,0-0.07,0-0.1-0.01h-0.46l-14.65,0.46C705.81,203.02,704.78,201.34,704.95,199.55z"/>
<path class="st92" d="M696.7,194.74l12.6,3.21c1.83,0,2.29,0.69,2.52,0.92c0.69,1.37-1.37,4.58-3.66,5.04
	c-0.4,0.06-0.8-0.02-1.15-0.23l-11.46-5.95L696.7,194.74z"/>
<path class="st98" d="M739.31,225.89l-23.36-0.22v-29.78c1.15-0.46,2.52-1.15,3.89-1.83l2.75-1.37c0.38,1.07,1.22,1.91,2.29,2.29
	c2.32,0.59,4.74-0.56,5.73-2.75c2.24-0.04,4.46,0.51,6.41,1.6c1.12,0.47,2.13,1.17,2.97,2.06c0.88,4.21,1.19,8.53,0.92,12.83
	c-0.29,3.09-0.83,6.15-1.6,9.16C738.96,220.54,738.97,223.23,739.31,225.89z"/>
<path class="st98" d="M725.79,196.57c-2.01-2.11-5.17-2.67-7.79-1.37l-4.58,1.37c0.92,2.17,1.38,4.51,1.37,6.87l7.33-0.23
	c2.21,0.29,4.24-1.24,4.58-3.44v-0.46C726.72,198.33,726.4,197.36,725.79,196.57z"/>
<line class="st99" x1="693.97" y1="189.01" x2="695.56" y2="429.52"/>
<line class="st99" x1="710" y1="189.01" x2="711.59" y2="429.52"/>
<path class="st59" d="M697.16,211l-0.69-4.12l18.32-3.21c2.27-0.51,4.53,0.92,5.04,3.2c0,0,0,0.01,0,0.01l0,0
	c0.27,2-1.12,3.84-3.12,4.11c-0.03,0-0.06,0.01-0.09,0.01H697.16z"/>
<path class="st59" d="M712.51,209.4c-0.19-0.94-0.03-1.92,0.45-2.75c1.6-2.98,3.89-3.66,9.62-7.1c3.03-1.99,6.26-3.68,9.62-5.04
	c0.46-0.23,1.15-0.23,1.6-0.46c0.94-0.07,1.88,0.09,2.75,0.46c1.02,0.31,1.91,0.96,2.52,1.83c1.15,1.83-0.46,4.81-2.06,6.41
	c-1.09,0.9-2.33,1.6-3.66,2.06c-3.41,1.76-6.93,3.29-10.54,4.58c-1.65,0.51-3.33,0.9-5.04,1.15
	C715.26,211.23,712.96,210.78,712.51,209.4z"/>
<path class="st59" d="M698.08,206.65c0.69,2.06,0.23,3.89-0.69,4.35c-0.79,0.32-1.69,0.14-2.29-0.46c-1.03-0.49-1.78-1.42-2.06-2.52
	c-0.69-0.23-2.52-0.92-2.52-1.83c0-0.46,0.23-0.46,0.69-1.37c0.23-0.46,0.23-0.69,0.46-0.92c0.23-0.23,0.46,0,0.92-0.23
	c0.46-0.23,0.23-0.46,0.46-0.46c0.46-0.46,2.29,0.69,3.21,1.37C697.03,205.11,697.66,205.82,698.08,206.65z"/>
<path class="st92" d="M693.27,200.47c0.51,0.21,1.1,0.02,1.37-0.46v-0.46l0.69-0.69c0-0.46,0-0.92-0.46-1.15
	c0.23,0,0.92-0.46,0.69-0.92c-0.41-0.58-1.14-0.86-1.83-0.69C692.36,196.57,693.04,200.24,693.27,200.47z"/>
<linearGradient id="SVGID_80_" gradientUnits="userSpaceOnUse" x1="-241.5146" y1="908.8368" x2="-239.9251" y2="908.8368" gradientTransform="matrix(9.1604 0 0 -8.053 2937.25 7519.5601)">
	<stop  offset="0" style="stop-color:#4C9AFF"/>
	<stop  offset="1" style="stop-color:#4C9AFF"/>
</linearGradient>
<path class="st100" d="M739.08,196.57c-0.63-0.85-1.51-1.49-2.52-1.83c-0.89-0.26-1.82-0.42-2.75-0.46c-0.56,0.05-1.1,0.2-1.6,0.46
	c-2.55,0.99-5,2.22-7.33,3.66c2.33,2.37,3.85,5.42,4.35,8.7l4.35-1.83c1.34-0.46,2.58-1.16,3.66-2.06
	C738.62,201.38,740.22,198.41,739.08,196.57z"/>
<path class="st89" d="M629.36,492.28l0.46,0.92l0.46,0.46l1.37,0.23c0.25,0.03,0.5-0.05,0.69-0.23l1.15-1.15h-1.15v-0.46l-0.23-0.23
	l-0.23,0.23c0,0,0.23-0.46,0-0.69s-0.23,0-0.23,0l-0.23,0.46v-0.69h-0.23l-0.92,0.92L629.36,492.28z"/>
<path class="st89" d="M652.5,492.51l0.46,0.92c0.18,0.18,0.43,0.26,0.69,0.23h1.37c0.25,0.03,0.5-0.05,0.69-0.23l0.92-0.92h-1.15
	v-0.69l-0.23-0.23c-0.23,0-0.23,0.23-0.23,0.46c0,0,0.23-0.46,0-0.69c-0.23-0.23-0.23,0-0.23,0l-0.23,0.69v-0.69h-0.23l-0.92,0.92
	L652.5,492.51z"/>
<path class="st19" d="M771.38,462.5c-19.42,0.07-35.21-15.62-35.28-35.04c-0.07-19.42,15.62-35.21,35.04-35.28
	c19.42-0.07,35.21,15.62,35.28,35.04c0,0.08,0,0.16,0,0.24l0,0c0.08,19.27-15.48,34.96-34.76,35.04
	C771.57,462.5,771.47,462.5,771.38,462.5z M771.38,398.37c-16.07,0-29.09,13.02-29.09,29.09c0,16.07,13.02,29.09,29.09,29.09
	c16.07,0,29.09-13.02,29.09-29.09l0,0C800.44,411.4,787.43,398.39,771.38,398.37L771.38,398.37z"/>
<circle class="st81" cx="771.37" cy="427.46" r="19.93"/>
<path class="st6" d="M547.26,215.36c-4.04,3.65-11.54,6.1-20.13,6.1c-9.14,0-17.06-2.78-20.87-6.82c-4.21,2.62-9.11,3.93-14.07,3.75
	c-9.65,0-17.47-4.13-17.47-9.22s7.82-9.22,17.47-9.22c4.96-0.17,9.86,1.13,14.07,3.75c3.81-4.04,11.73-6.82,20.87-6.82
	c8.58,0,16.09,2.45,20.13,6.1c4.38-4.82,13.71-8.15,24.52-8.15c15.01,0,27.18,6.42,27.18,14.33c0,7.92-12.17,14.33-27.18,14.33
	C560.98,223.5,551.64,220.18,547.26,215.36z"/>
<line class="st99" x1="693.73" y1="202" x2="709.66" y2="202"/>
<line class="st99" x1="693.97" y1="254.64" x2="709.89" y2="254.64"/>
<line class="st99" x1="694.48" y1="306.29" x2="710.41" y2="306.29"/>
<line class="st99" x1="695" y1="358.85" x2="710.93" y2="358.85"/>
<line class="st99" x1="694.07" y1="219.52" x2="710" y2="219.52"/>
<line class="st99" x1="694.31" y1="272.16" x2="710.24" y2="272.16"/>
<line class="st99" x1="694.83" y1="323.81" x2="710.75" y2="323.81"/>
<line class="st99" x1="695.34" y1="376.37" x2="711.27" y2="376.37"/>
<line class="st99" x1="694.76" y1="237.04" x2="710.69" y2="237.04"/>
<line class="st99" x1="695" y1="289.68" x2="710.93" y2="289.68"/>
<line class="st99" x1="695.52" y1="341.33" x2="711.44" y2="341.33"/>
<line class="st99" x1="696.03" y1="393.89" x2="711.96" y2="393.89"/>
<line class="st99" x1="695.34" y1="411.41" x2="711.27" y2="411.41"/>
<line class="st99" x1="695.66" y1="425.75" x2="711.59" y2="425.75"/>
<path class="st101" d="M299.3,546.8c0,0,32.32,32.33,47.2,31.82s56.45-99.04,85.19-94.42c28.74,4.62,43.11,38.49,82.62,36.43
	c39.51-2.05,122.64-203.73,122.64-203.73"/>
<circle class="st44" cx="348.08" cy="578.41" r="12.83"/>
<circle class="st44" cx="430.31" cy="484.26" r="12.83"/>
<circle class="st44" cx="513.46" cy="520.46" r="12.83"/>
<circle class="st44" cx="636" cy="317.51" r="12.83"/>
<circle class="st65" cx="348.08" cy="578.41" r="5.96"/>
<circle class="st102" cx="430.31" cy="484.27" r="5.96"/>
<circle class="st19" cx="636.01" cy="317.51" r="5.96"/>
<circle class="st19" cx="513.46" cy="520.46" r="5.96"/>
<g transform="translate(1442.379 -396.912)">
	
		<linearGradient id="SVGID_81_" gradientUnits="userSpaceOnUse" x1="-1630.764" y1="1284.4434" x2="-1630.764" y2="1282.8506" gradientTransform="matrix(70.8764 0 0 -70.9009 115018.9375 91710.2031)">
		<stop  offset="0.33" style="stop-color:#FF991F"/>
		<stop  offset="1" style="stop-color:#FFC400"/>
	</linearGradient>
	<path class="st103" d="M-525.73,656.78c-3.59-3.28-7.57-6.08-11.87-8.35c-7.94-4.17-16.76-6.39-25.73-6.46l-0.49-0.01
		c-9.13,0-18.13,2.22-26.22,6.47c-4.3,2.27-8.29,5.08-11.87,8.36c-23.01,21.03-24.61,56.74-3.57,79.74
		c21.03,23.01,56.74,24.61,79.74,3.57c23.01-21.03,24.61-56.74,3.57-79.74C-523.3,659.11-524.49,657.92-525.73,656.78
		L-525.73,656.78z M-590.03,656.42c2.76-1.73,5.68-3.18,8.72-4.34l0.23-0.09l-0.23,0.31c-3.05,4.22-5.48,8.85-7.21,13.76l-1.52-0.3
		c-3.01-0.62-5.99-1.35-8.95-2.18C-596.29,660.86-593.28,658.45-590.03,656.42L-590.03,656.42z M-603.9,669.36l1.99,0.6
		c3.73,1.09,7.5,2.01,11.31,2.77c-1.87,7.26-2.91,14.71-3.11,22.2h-19.5C-612.57,685.71-609.35,676.84-603.9,669.36z M-603.9,727.46
		c-5.45-7.48-8.68-16.35-9.32-25.59h19.51c0.19,7.5,1.24,14.96,3.12,22.23c-3.81,0.75-7.58,1.67-11.31,2.76
		c-0.67,0.19-1.33,0.39-1.99,0.6L-603.9,727.46z M-581.32,744.73c-6.64-2.53-12.67-6.45-17.67-11.5c2.95-0.83,5.94-1.57,8.95-2.18
		l1.52-0.31c1.72,4.91,4.15,9.55,7.2,13.76l0.23,0.32L-581.32,744.73z M-567.3,747.33c-5.53-1.89-10.49-8.2-14.03-17.13l-0.23-0.6
		l0.23-0.04c4.65-0.62,9.33-1,14.03-1.13V747.33z M-567.3,721.51c-4.69,0.11-9.37,0.47-14.03,1.07c-0.8,0.1-1.61,0.21-2.41,0.33
		c-1.83-6.87-2.85-13.93-3.06-21.04h19.5V721.51z M-567.3,694.94h-19.48c0.21-7.1,1.24-14.16,3.06-21.02
		c0.8,0.12,1.61,0.23,2.41,0.34c4.65,0.6,9.34,0.96,14.03,1.07L-567.3,694.94z M-567.3,668.38c-4.69-0.12-9.37-0.5-14.03-1.13
		l-0.23-0.03l0.23-0.6c3.54-8.94,8.49-15.25,14.03-17.14V668.38z M-523.75,669.37c5.44,7.48,8.67,16.35,9.31,25.58h-19.48
		c-0.19-7.5-1.24-14.95-3.11-22.21c3.8-0.76,7.57-1.68,11.3-2.77c0.67-0.19,1.33-0.39,2-0.6H-523.75z M-546.33,652.08
		c3.04,1.15,5.96,2.61,8.72,4.34c3.25,2.04,6.26,4.44,8.96,7.17c-2.96,0.83-5.95,1.56-8.96,2.18l-1.51,0.3
		c-1.73-4.91-4.15-9.55-7.2-13.76l-0.23-0.31L-546.33,652.08z M-560.37,649.48c5.54,1.89,10.5,8.21,14.03,17.15l0.23,0.6l-0.23,0.02
		c-4.65,0.63-9.34,1.01-14.03,1.13V649.48z M-560.37,675.33c4.69-0.11,9.38-0.47,14.03-1.07c0.81-0.1,1.61-0.21,2.41-0.34
		c1.82,6.87,2.85,13.92,3.06,21.02h-19.49L-560.37,675.33z M-560.37,701.87h19.5c-0.21,7.11-1.24,14.16-3.07,21.04
		c-0.8-0.11-1.6-0.22-2.41-0.33c-4.66-0.59-9.34-0.95-14.03-1.06V701.87z M-560.37,747.33v-18.9c4.69,0.13,9.38,0.5,14.03,1.13
		l0.23,0.04l-0.23,0.58c-3.52,8.95-8.48,15.26-14.02,17.15H-560.37z M-537.62,740.4c-2.76,1.72-5.68,3.17-8.72,4.33l-0.23,0.09
		l0.23-0.32c3.05-4.22,5.48-8.85,7.2-13.76l1.51,0.3c3.01,0.62,6,1.34,8.95,2.18c-2.69,2.73-5.69,5.14-8.94,7.18H-537.62z
		 M-523.76,727.45c-0.66-0.2-1.32-0.4-1.99-0.59c-3.72-1.09-7.49-2.01-11.31-2.77c1.88-7.26,2.93-14.72,3.12-22.22h19.49
		c-0.63,9.23-3.85,18.09-9.3,25.58H-523.76z"/>
</g>
</svg>
